<?xml version="1.0" encoding="UTF-8"?>
<svg width="800px" height="275px" viewBox="0 0 800 275" version="1.1" xmlns="http://www.w3.org/2000/svg" xmlns:xlink="http://www.w3.org/1999/xlink">
    <!-- Generator: Sketch 62 (91390) - https://sketch.com -->
    <title>Slice</title>
    <desc>Created with Sketch.</desc>
    <defs>
        <rect id="path-1" x="0" y="0" width="216" height="46" rx="6"></rect>
        <filter x="-5.8%" y="-27.2%" width="113.4%" height="163.0%" filterUnits="objectBoundingBox" id="filter-2">
            <feOffset dx="2" dy="2" in="SourceAlpha" result="shadowOffsetOuter1"></feOffset>
            <feGaussianBlur stdDeviation="4.5" in="shadowOffsetOuter1" result="shadowBlurOuter1"></feGaussianBlur>
            <feComposite in="shadowBlurOuter1" in2="SourceAlpha" operator="out" result="shadowBlurOuter1"></feComposite>
            <feColorMatrix values="0 0 0 0 0   0 0 0 0 0   0 0 0 0 0  0 0 0 0.25 0" type="matrix" in="shadowBlurOuter1"></feColorMatrix>
        </filter>
        <rect id="path-3" x="0" y="0" width="216" height="46" rx="6"></rect>
        <filter x="-5.8%" y="-27.2%" width="113.4%" height="163.0%" filterUnits="objectBoundingBox" id="filter-4">
            <feOffset dx="2" dy="2" in="SourceAlpha" result="shadowOffsetOuter1"></feOffset>
            <feGaussianBlur stdDeviation="4.5" in="shadowOffsetOuter1" result="shadowBlurOuter1"></feGaussianBlur>
            <feComposite in="shadowBlurOuter1" in2="SourceAlpha" operator="out" result="shadowBlurOuter1"></feComposite>
            <feColorMatrix values="0 0 0 0 0   0 0 0 0 0   0 0 0 0 0  0 0 0 0.25 0" type="matrix" in="shadowBlurOuter1"></feColorMatrix>
        </filter>
        <rect id="path-5" x="0" y="0" width="216" height="46" rx="6"></rect>
        <filter x="-5.8%" y="-27.2%" width="113.4%" height="163.0%" filterUnits="objectBoundingBox" id="filter-6">
            <feOffset dx="2" dy="2" in="SourceAlpha" result="shadowOffsetOuter1"></feOffset>
            <feGaussianBlur stdDeviation="4.5" in="shadowOffsetOuter1" result="shadowBlurOuter1"></feGaussianBlur>
            <feComposite in="shadowBlurOuter1" in2="SourceAlpha" operator="out" result="shadowBlurOuter1"></feComposite>
            <feColorMatrix values="0 0 0 0 0   0 0 0 0 0   0 0 0 0 0  0 0 0 0.25 0" type="matrix" in="shadowBlurOuter1"></feColorMatrix>
        </filter>
        <rect id="path-7" x="267" y="90" width="116" height="98" rx="4"></rect>
        <filter x="-10.3%" y="-12.2%" width="124.1%" height="128.6%" filterUnits="objectBoundingBox" id="filter-8">
            <feMorphology radius="1" operator="dilate" in="SourceAlpha" result="shadowSpreadOuter1"></feMorphology>
            <feOffset dx="2" dy="2" in="shadowSpreadOuter1" result="shadowOffsetOuter1"></feOffset>
            <feGaussianBlur stdDeviation="4" in="shadowOffsetOuter1" result="shadowBlurOuter1"></feGaussianBlur>
            <feComposite in="shadowBlurOuter1" in2="SourceAlpha" operator="out" result="shadowBlurOuter1"></feComposite>
            <feColorMatrix values="0 0 0 0 0   0 0 0 0 0   0 0 0 0 0  0 0 0 0.25 0" type="matrix" in="shadowBlurOuter1"></feColorMatrix>
        </filter>
        <filter x="-25.3%" y="-18.7%" width="150.6%" height="137.4%" filterUnits="objectBoundingBox" id="filter-9">
            <feOffset dx="2" dy="2" in="SourceAlpha" result="shadowOffsetOuter1"></feOffset>
            <feGaussianBlur stdDeviation="4" in="shadowOffsetOuter1" result="shadowBlurOuter1"></feGaussianBlur>
            <feColorMatrix values="0 0 0 0 0   0 0 0 0 0   0 0 0 0 0  0 0 0 0.25 0" type="matrix" in="shadowBlurOuter1" result="shadowMatrixOuter1"></feColorMatrix>
            <feMerge>
                <feMergeNode in="shadowMatrixOuter1"></feMergeNode>
                <feMergeNode in="SourceGraphic"></feMergeNode>
            </feMerge>
        </filter>
        <linearGradient x1="22.7443445%" y1="0%" x2="77.2556555%" y2="100%" id="linearGradient-10">
            <stop stop-color="#F0F0F0" offset="0%"></stop>
            <stop stop-color="#CCCCCC" offset="100%"></stop>
        </linearGradient>
        <filter x="-25.3%" y="-18.7%" width="150.6%" height="137.4%" filterUnits="objectBoundingBox" id="filter-11">
            <feOffset dx="2" dy="2" in="SourceAlpha" result="shadowOffsetOuter1"></feOffset>
            <feGaussianBlur stdDeviation="4" in="shadowOffsetOuter1" result="shadowBlurOuter1"></feGaussianBlur>
            <feColorMatrix values="0 0 0 0 0   0 0 0 0 0   0 0 0 0 0  0 0 0 0.25 0" type="matrix" in="shadowBlurOuter1" result="shadowMatrixOuter1"></feColorMatrix>
            <feMerge>
                <feMergeNode in="shadowMatrixOuter1"></feMergeNode>
                <feMergeNode in="SourceGraphic"></feMergeNode>
            </feMerge>
        </filter>
        <filter x="-25.3%" y="-18.7%" width="150.6%" height="137.4%" filterUnits="objectBoundingBox" id="filter-12">
            <feOffset dx="2" dy="2" in="SourceAlpha" result="shadowOffsetOuter1"></feOffset>
            <feGaussianBlur stdDeviation="4" in="shadowOffsetOuter1" result="shadowBlurOuter1"></feGaussianBlur>
            <feColorMatrix values="0 0 0 0 0   0 0 0 0 0   0 0 0 0 0  0 0 0 0.25 0" type="matrix" in="shadowBlurOuter1" result="shadowMatrixOuter1"></feColorMatrix>
            <feMerge>
                <feMergeNode in="shadowMatrixOuter1"></feMergeNode>
                <feMergeNode in="SourceGraphic"></feMergeNode>
            </feMerge>
        </filter>
    </defs>
    <g id="Part-2,-reading-textual-data,-instances-and-fields" stroke="none" stroke-width="1" fill="none" fill-rule="evenodd">
        <g id="Group-2" transform="translate(493.000000, 58.000000)">
            <g id="Rectangle">
                <use fill="black" fill-opacity="1" filter="url(#filter-2)" xlink:href="#path-1"></use>
                <rect stroke="#47515C" stroke-width="2" stroke-linejoin="square" fill="#FFFFFF" fill-rule="evenodd" x="1" y="1" width="214" height="44" rx="6"></rect>
            </g>
            <rect id="Rectangle" fill="#DBC5FF" x="8" y="8" width="86" height="31" rx="6"></rect>
            <rect id="Rectangle" fill="#8299EA" x="99" y="8" width="86" height="31" rx="6"></rect>
            <text id="Field2" font-family="Helvetica" font-size="20" font-weight="normal" fill="#47515D">
                <tspan x="114.263672" y="30">Field2</tspan>
            </text>
            <text id="…" font-family="Helvetica" font-size="20" font-weight="normal" fill="#47515C">
                <tspan x="188" y="26">…</tspan>
            </text>
            <text id="Field1" font-family="Helvetica" font-size="20" font-weight="normal" fill="#47515D">
                <tspan x="24.2636719" y="30">Field1</tspan>
            </text>
        </g>
        <g id="Group-2" transform="translate(493.000000, 116.000000)">
            <g id="Rectangle">
                <use fill="black" fill-opacity="1" filter="url(#filter-4)" xlink:href="#path-3"></use>
                <rect stroke="#47515C" stroke-width="2" stroke-linejoin="square" fill="#FFFFFF" fill-rule="evenodd" x="1" y="1" width="214" height="44" rx="6"></rect>
            </g>
            <rect id="Rectangle" fill="#DBC5FF" x="8" y="8" width="86" height="31" rx="6"></rect>
            <rect id="Rectangle" fill="#8299EA" x="99" y="8" width="86" height="31" rx="6"></rect>
            <text id="Field2" font-family="Helvetica" font-size="20" font-weight="normal" fill="#47515D">
                <tspan x="114.263672" y="30">Field2</tspan>
            </text>
            <text id="…" font-family="Helvetica" font-size="20" font-weight="normal" fill="#47515C">
                <tspan x="188" y="26">…</tspan>
            </text>
            <text id="Field1" font-family="Helvetica" font-size="20" font-weight="normal" fill="#47515D">
                <tspan x="24.2636719" y="30">Field1</tspan>
            </text>
        </g>
        <g id="Group-2" transform="translate(493.000000, 174.000000)">
            <g id="Rectangle">
                <use fill="black" fill-opacity="1" filter="url(#filter-6)" xlink:href="#path-5"></use>
                <rect stroke="#47515C" stroke-width="2" stroke-linejoin="square" fill="#FFFFFF" fill-rule="evenodd" x="1" y="1" width="214" height="44" rx="6"></rect>
            </g>
            <rect id="Rectangle" fill="#DBC5FF" x="8" y="8" width="86" height="31" rx="6"></rect>
            <rect id="Rectangle" fill="#8299EA" x="99" y="8" width="86" height="31" rx="6"></rect>
            <text id="Field2" font-family="Helvetica" font-size="20" font-weight="normal" fill="#47515D">
                <tspan x="114.263672" y="30">Field2</tspan>
            </text>
            <text id="…" font-family="Helvetica" font-size="20" font-weight="normal" fill="#47515C">
                <tspan x="188" y="26">…</tspan>
            </text>
            <text id="Field1" font-family="Helvetica" font-size="20" font-weight="normal" fill="#47515D">
                <tspan x="24.2636719" y="30">Field1</tspan>
            </text>
        </g>
        <g id="Rectangle">
            <use fill="black" fill-opacity="1" filter="url(#filter-8)" xlink:href="#path-7"></use>
            <use stroke="#47515C" stroke-width="2" fill="#FFFFFF" fill-rule="evenodd" xlink:href="#path-7"></use>
        </g>
        <text id="Dataset-Reader" font-family="Helvetica" font-size="20" font-weight="normal" fill="#47515C">
            <tspan x="289.037109" y="134">Dataset</tspan>
            <tspan x="290.702148" y="158">Reader</tspan>
        </text>
        <text id="Instances" font-family="Helvetica" font-size="20" font-weight="normal" fill="#47515C">
            <tspan x="554.197266" y="41">Instances</tspan>
        </text>
        <text id="Dataset" font-family="Helvetica" font-size="20" font-weight="normal" fill="#47515C">
            <tspan x="98.5371094" y="239">Dataset</tspan>
        </text>
        <g id="Group" filter="url(#filter-9)" transform="translate(80.000000, 73.000000)" stroke="#47515C" stroke-width="2">
            <path d="M75,106 L4,106 C3.17157288,106 2.42157288,105.664214 1.87867966,105.12132 C1.33578644,104.578427 1,103.828427 1,103 L1,16.8361005 C1,16.0266773 1.32707607,15.2515994 1.90695265,14.686879 L15.0875538,1.85077856 C15.6477081,1.30526495 16.3987073,1 17.1806011,1 L75,1 C75.8284271,1 76.5784271,1.33578644 77.1213203,1.87867966 C77.6642136,2.42157288 78,3.17157288 78,4 L78,103 C78,103.828427 77.6642136,104.578427 77.1213203,105.12132 C76.5784271,105.664214 75.8284271,106 75,106 Z" id="Rectangle" fill="url(#linearGradient-10)"></path>
            <polyline id="Path" points="17 1 17 16 1 16"></polyline>
            <line x1="14.5" y1="28.5" x2="65.5" y2="28.5" id="Line-2" stroke-linecap="square"></line>
            <line x1="14.5" y1="38.5" x2="65.5" y2="38.5" id="Line-2" stroke-linecap="square"></line>
            <line x1="14.5" y1="48.5" x2="65.5" y2="48.5" id="Line-2" stroke-linecap="square"></line>
            <line x1="14.5" y1="58.5" x2="65.5" y2="58.5" id="Line-2" stroke-linecap="square"></line>
            <line x1="14.5" y1="68.5" x2="65.5" y2="68.5" id="Line-2" stroke-linecap="square"></line>
            <line x1="14.5" y1="78.5" x2="65.5" y2="78.5" id="Line-2" stroke-linecap="square"></line>
            <line x1="14.5" y1="88.5" x2="65.5" y2="88.5" id="Line-2" stroke-linecap="square"></line>
        </g>
        <g id="Group" filter="url(#filter-11)" transform="translate(90.000000, 83.000000)" stroke="#47515C" stroke-width="2">
            <path d="M75,106 L4,106 C3.17157288,106 2.42157288,105.664214 1.87867966,105.12132 C1.33578644,104.578427 1,103.828427 1,103 L1,16.8361005 C1,16.0266773 1.32707607,15.2515994 1.90695265,14.686879 L15.0875538,1.85077856 C15.6477081,1.30526495 16.3987073,1 17.1806011,1 L75,1 C75.8284271,1 76.5784271,1.33578644 77.1213203,1.87867966 C77.6642136,2.42157288 78,3.17157288 78,4 L78,103 C78,103.828427 77.6642136,104.578427 77.1213203,105.12132 C76.5784271,105.664214 75.8284271,106 75,106 Z" id="Rectangle" fill="url(#linearGradient-10)"></path>
            <polyline id="Path" points="17 1 17 16 1 16"></polyline>
            <line x1="14.5" y1="28.5" x2="65.5" y2="28.5" id="Line-2" stroke-linecap="square"></line>
            <line x1="14.5" y1="38.5" x2="65.5" y2="38.5" id="Line-2" stroke-linecap="square"></line>
            <line x1="14.5" y1="48.5" x2="65.5" y2="48.5" id="Line-2" stroke-linecap="square"></line>
            <line x1="14.5" y1="58.5" x2="65.5" y2="58.5" id="Line-2" stroke-linecap="square"></line>
            <line x1="14.5" y1="68.5" x2="65.5" y2="68.5" id="Line-2" stroke-linecap="square"></line>
            <line x1="14.5" y1="78.5" x2="65.5" y2="78.5" id="Line-2" stroke-linecap="square"></line>
            <line x1="14.5" y1="88.5" x2="65.5" y2="88.5" id="Line-2" stroke-linecap="square"></line>
        </g>
        <g id="Group" filter="url(#filter-12)" transform="translate(100.000000, 93.000000)" stroke="#47515C" stroke-width="2">
            <path d="M75,106 L4,106 C3.17157288,106 2.42157288,105.664214 1.87867966,105.12132 C1.33578644,104.578427 1,103.828427 1,103 L1,16.8361005 C1,16.0266773 1.32707607,15.2515994 1.90695265,14.686879 L15.0875538,1.85077856 C15.6477081,1.30526495 16.3987073,1 17.1806011,1 L75,1 C75.8284271,1 76.5784271,1.33578644 77.1213203,1.87867966 C77.6642136,2.42157288 78,3.17157288 78,4 L78,103 C78,103.828427 77.6642136,104.578427 77.1213203,105.12132 C76.5784271,105.664214 75.8284271,106 75,106 Z" id="Rectangle" fill="url(#linearGradient-10)"></path>
            <polyline id="Path" points="17 1 17 16 1 16"></polyline>
            <line x1="14.5" y1="28.5" x2="65.5" y2="28.5" id="Line-2" stroke-linecap="square"></line>
            <line x1="14.5" y1="38.5" x2="65.5" y2="38.5" id="Line-2" stroke-linecap="square"></line>
            <line x1="14.5" y1="48.5" x2="65.5" y2="48.5" id="Line-2" stroke-linecap="square"></line>
            <line x1="14.5" y1="58.5" x2="65.5" y2="58.5" id="Line-2" stroke-linecap="square"></line>
            <line x1="14.5" y1="68.5" x2="65.5" y2="68.5" id="Line-2" stroke-linecap="square"></line>
            <line x1="14.5" y1="78.5" x2="65.5" y2="78.5" id="Line-2" stroke-linecap="square"></line>
            <line x1="14.5" y1="88.5" x2="65.5" y2="88.5" id="Line-2" stroke-linecap="square"></line>
        </g>
        <path id="Line" d="M245,132 L259,139 L245,146 L245,140 L195.15625,140 L195.15625,138 L245,138 L245,132 Z" fill="#47515C" fill-rule="nonzero"></path>
        <path id="Line" d="M457.890625,74 L471.890625,81 L457.890625,88 L457.89,82 L408.046875,82 L408.046875,80 L457.89,80 L457.890625,74 Z" fill="#47515C" fill-rule="nonzero"></path>
        <path id="Line" d="M457.890625,134 L471.890625,141 L457.890625,148 L457.89,142 L408.046875,142 L408.046875,140 L457.89,140 L457.890625,134 Z" fill="#47515C" fill-rule="nonzero"></path>
        <path id="Line" d="M457.890625,192 L471.890625,199 L457.890625,206 L457.89,200 L408.046875,200 L408.046875,198 L457.89,198 L457.890625,192 Z" fill="#47515C" fill-rule="nonzero"></path>
    </g>
</svg>