<svg width="505" height="237" viewBox="0 0 505 237" fill="none" xmlns="http://www.w3.org/2000/svg">
<path opacity="0.2" d="M239.372 13.272L234.037 18.8426" stroke="#2376E5" stroke-width="1.4" stroke-miterlimit="10"/>
<path opacity="0.2" d="M208.392 41.7539L202.675 47.2347" stroke="#2376E5" stroke-width="1.4" stroke-miterlimit="10"/>
<path opacity="0.2" d="M175.075 70.4158L168.902 75.9864" stroke="#2376E5" stroke-width="1.4" stroke-miterlimit="10"/>
<path opacity="0.2" d="M140.324 99.5269L133.932 105.277" stroke="#2376E5" stroke-width="1.4" stroke-miterlimit="10"/>
<path opacity="0.2" d="M105.126 129.177L98.507 135.107" stroke="#2376E5" stroke-width="1.4" stroke-miterlimit="10"/>
<path opacity="0.2" d="M70.6048 159.456L63.8356 165.835" stroke="#2376E5" stroke-width="1.4" stroke-miterlimit="10"/>
<path opacity="0.2" d="M37.512 190.633L30.8185 197.642" stroke="#2376E5" stroke-width="1.4" stroke-miterlimit="10"/>
<path opacity="0.2" d="M6.97688 222.799L0.433197 230.437" stroke="#2376E5" stroke-width="1.4" stroke-miterlimit="10"/>
<path opacity="0.24" d="M265.4 11.0256L259.308 17.2253" stroke="#2376E5" stroke-width="1.4" stroke-miterlimit="10"/>
<path opacity="0.24" d="M234.184 39.3281L227.644 45.4378" stroke="#2376E5" stroke-width="1.4" stroke-miterlimit="10"/>
<path opacity="0.24" d="M200.566 67.9001L193.725 74.0099" stroke="#2376E5" stroke-width="1.4" stroke-miterlimit="10"/>
<path opacity="0.24" d="M165.742 96.9211L158.6 103.21" stroke="#2376E5" stroke-width="1.4" stroke-miterlimit="10"/>
<path opacity="0.24" d="M130.547 126.571L123.252 133.22" stroke="#2376E5" stroke-width="1.4" stroke-miterlimit="10"/>
<path opacity="0.24" d="M96.0256 157.03L88.6545 164.129" stroke="#2376E5" stroke-width="1.4" stroke-miterlimit="10"/>
<path opacity="0.24" d="M63.159 188.387L55.8636 196.114" stroke="#2376E5" stroke-width="1.4" stroke-miterlimit="10"/>
<path opacity="0.24" d="M32.9245 220.913L25.8547 229.449" stroke="#2376E5" stroke-width="1.4" stroke-miterlimit="10"/>
<path opacity="0.28" d="M291.192 8.86938L284.799 15.3385" stroke="#2376E5" stroke-width="1.4" stroke-miterlimit="10"/>
<path opacity="0.28" d="M259.683 36.9919L252.842 43.3713" stroke="#2376E5" stroke-width="1.4" stroke-miterlimit="10"/>
<path opacity="0.28" d="M225.91 65.4741L218.767 71.9432" stroke="#2376E5" stroke-width="1.4" stroke-miterlimit="10"/>
<path opacity="0.28" d="M190.94 94.4055L183.496 101.055" stroke="#2376E5" stroke-width="1.4" stroke-miterlimit="10"/>
<path opacity="0.28" d="M155.668 124.056L148.07 131.064" stroke="#2376E5" stroke-width="1.4" stroke-miterlimit="10"/>
<path opacity="0.28" d="M121.221 154.604L113.55 162.152" stroke="#2376E5" stroke-width="1.4" stroke-miterlimit="10"/>
<path opacity="0.28" d="M88.5796 186.231L80.9838 194.497" stroke="#2376E5" stroke-width="1.4" stroke-miterlimit="10"/>
<path opacity="0.28" d="M58.7212 219.205L51.4258 228.37" stroke="#2376E5" stroke-width="1.4" stroke-miterlimit="10"/>
<path opacity="0.32" d="M316.845 6.80298L310.371 13.5416" stroke="#2376E5" stroke-width="1.4" stroke-miterlimit="10"/>
<path opacity="0.32" d="M285.1 34.7458L278.186 41.4845" stroke="#2376E5" stroke-width="1.4" stroke-miterlimit="10"/>
<path opacity="0.32" d="M251.18 62.9583L243.81 69.8766" stroke="#2376E5" stroke-width="1.4" stroke-miterlimit="10"/>
<path opacity="0.32" d="M216.064 91.8896L208.392 98.9873" stroke="#2376E5" stroke-width="1.4" stroke-miterlimit="10"/>
<path opacity="0.32" d="M180.784 121.54L172.966 129.087" stroke="#2376E5" stroke-width="1.4" stroke-miterlimit="10"/>
<path opacity="0.32" d="M146.416 152.178L138.594 160.354" stroke="#2376E5" stroke-width="1.4" stroke-miterlimit="10"/>
<path opacity="0.32" d="M114.001 184.074L106.254 193.06" stroke="#2376E5" stroke-width="1.4" stroke-miterlimit="10"/>
<path opacity="0.32" d="M84.3681 217.319L77.0727 227.382" stroke="#2376E5" stroke-width="1.4" stroke-miterlimit="10"/>
<path opacity="0.38" d="M342.711 4.82617L335.796 11.5648" stroke="#2376E5" stroke-width="1.4" stroke-miterlimit="10"/>
<path opacity="0.38" d="M310.753 32.5896L303.302 39.3283" stroke="#2376E5" stroke-width="1.4" stroke-miterlimit="10"/>
<path opacity="0.38" d="M276.533 60.7122L268.78 67.6306" stroke="#2376E5" stroke-width="1.4" stroke-miterlimit="10"/>
<path opacity="0.38" d="M241.334 89.5537L233.207 96.7416" stroke="#2376E5" stroke-width="1.4" stroke-miterlimit="10"/>
<path opacity="0.38" d="M206.055 119.204L197.78 126.93" stroke="#2376E5" stroke-width="1.4" stroke-miterlimit="10"/>
<path opacity="0.38" d="M171.76 149.932L163.486 158.378" stroke="#2376E5" stroke-width="1.4" stroke-miterlimit="10"/>
<path opacity="0.38" d="M139.422 182.008L131.374 191.442" stroke="#2376E5" stroke-width="1.4" stroke-miterlimit="10"/>
<path opacity="0.38" d="M110.24 215.612L102.644 226.214" stroke="#2376E5" stroke-width="1.4" stroke-miterlimit="10"/>
<path opacity="0.48" d="M368.364 2.66968L361.368 9.85757" stroke="#2376E5" stroke-width="1.4" stroke-miterlimit="10"/>
<path opacity="0.48" d="M336.171 30.2534L328.573 37.4414" stroke="#2376E5" stroke-width="1.4" stroke-miterlimit="10"/>
<path opacity="0.48" d="M301.803 58.1963L293.831 65.6537" stroke="#2376E5" stroke-width="1.4" stroke-miterlimit="10"/>
<path opacity="0.48" d="M266.45 86.9478L258.176 94.6752" stroke="#2376E5" stroke-width="1.4" stroke-miterlimit="10"/>
<path opacity="0.48" d="M231.105 116.598L222.676 124.954" stroke="#2376E5" stroke-width="1.4" stroke-miterlimit="10"/>
<path opacity="0.48" d="M196.885 147.506L188.456 156.581" stroke="#2376E5" stroke-width="1.4" stroke-miterlimit="10"/>
<path opacity="0.48" d="M164.846 179.762L156.572 189.915" stroke="#2376E5" stroke-width="1.4" stroke-miterlimit="10"/>
<path opacity="0.48" d="M135.962 213.815L128.215 225.135" stroke="#2376E5" stroke-width="1.4" stroke-miterlimit="10"/>
<path opacity="0.56" d="M394.156 0.603271L386.94 7.97082" stroke="#2376E5" stroke-width="1.4" stroke-miterlimit="10"/>
<path opacity="0.56" d="M361.669 27.9172L353.843 35.3747" stroke="#2376E5" stroke-width="1.4" stroke-miterlimit="10"/>
<path opacity="0.56" d="M327.074 55.8604L318.873 63.4975" stroke="#2376E5" stroke-width="1.4" stroke-miterlimit="10"/>
<path opacity="0.56" d="M291.648 84.4321L283.072 92.6089" stroke="#2376E5" stroke-width="1.4" stroke-miterlimit="10"/>
<path opacity="0.56" d="M256.295 114.173L247.499 122.887" stroke="#2376E5" stroke-width="1.4" stroke-miterlimit="10"/>
<path opacity="0.56" d="M222.155 145.081L213.425 154.694" stroke="#2376E5" stroke-width="1.4" stroke-miterlimit="10"/>
<path opacity="0.56" d="M190.263 177.606L181.761 188.388" stroke="#2376E5" stroke-width="1.4" stroke-miterlimit="10"/>
<path opacity="0.56" d="M161.686 212.018L153.86 224.147" stroke="#2376E5" stroke-width="1.4" stroke-miterlimit="10"/>
<path opacity="0.66" d="M420.103 -1.28345L412.211 5.90444" stroke="#2376E5" stroke-width="1.4" stroke-miterlimit="10"/>
<path opacity="0.66" d="M387.315 25.9407L378.813 33.2183" stroke="#2376E5" stroke-width="1.4" stroke-miterlimit="10"/>
<path opacity="0.66" d="M352.638 53.614L343.614 61.2512" stroke="#2376E5" stroke-width="1.4" stroke-miterlimit="10"/>
<path opacity="0.66" d="M316.992 82.186L307.74 90.2726" stroke="#2376E5" stroke-width="1.4" stroke-miterlimit="10"/>
<path opacity="0.66" d="M281.647 111.836L272.167 120.641" stroke="#2376E5" stroke-width="1.4" stroke-miterlimit="10"/>
<path opacity="0.66" d="M247.573 142.834L238.093 152.717" stroke="#2376E5" stroke-width="1.4" stroke-miterlimit="10"/>
<path opacity="0.66" d="M215.909 175.539L206.73 186.77" stroke="#2376E5" stroke-width="1.4" stroke-miterlimit="10"/>
<path opacity="0.66" d="M187.633 210.221L179.204 223.069" stroke="#2376E5" stroke-width="1.4" stroke-miterlimit="10"/>
<path opacity="0.7" d="M445.829 -2.5415L437.783 4.91599" stroke="#2376E5" stroke-width="1.4" stroke-miterlimit="10"/>
<path opacity="0.7" d="M412.887 24.593L404.157 32.32" stroke="#2376E5" stroke-width="1.4" stroke-miterlimit="10"/>
<path opacity="0.7" d="M377.909 52.3562L368.739 60.3528" stroke="#2376E5" stroke-width="1.4" stroke-miterlimit="10"/>
<path opacity="0.7" d="M342.262 81.0176L332.71 89.6437" stroke="#2376E5" stroke-width="1.4" stroke-miterlimit="10"/>
<path opacity="0.7" d="M306.836 110.758L297.137 120.282" stroke="#2376E5" stroke-width="1.4" stroke-miterlimit="10"/>
<path opacity="0.7" d="M272.843 142.115L263.217 152.628" stroke="#2376E5" stroke-width="1.4" stroke-miterlimit="10"/>
<path opacity="0.7" d="M241.334 175.179L232.083 187.13" stroke="#2376E5" stroke-width="1.4" stroke-miterlimit="10"/>
<path opacity="0.7" d="M213.425 210.401L205.004 224.057" stroke="#2376E5" stroke-width="1.4" stroke-miterlimit="10"/>
<path opacity="0.8" d="M471.849 -5.41675L463.054 2.22041" stroke="#2376E5" stroke-width="1.4" stroke-miterlimit="10"/>
<path opacity="0.8" d="M438.606 21.3584L429.126 29.1752" stroke="#2376E5" stroke-width="1.4" stroke-miterlimit="10"/>
<path opacity="0.8" d="M403.562 48.7622L393.48 57.0283" stroke="#2376E5" stroke-width="1.4" stroke-miterlimit="10"/>
<path opacity="0.8" d="M367.68 77.0647L357.231 86.0499" stroke="#2376E5" stroke-width="1.4" stroke-miterlimit="10"/>
<path opacity="0.8" d="M332.262 106.715L321.658 116.688" stroke="#2376E5" stroke-width="1.4" stroke-miterlimit="10"/>
<path opacity="0.8" d="M298.416 137.892L287.739 149.123" stroke="#2376E5" stroke-width="1.4" stroke-miterlimit="10"/>
<path opacity="0.8" d="M267.053 171.047L256.897 183.895" stroke="#2376E5" stroke-width="1.4" stroke-miterlimit="10"/>
<path opacity="0.8" d="M239.453 206.357L230.202 221.182" stroke="#2376E5" stroke-width="1.4" stroke-miterlimit="10"/>
<path opacity="0.9" d="M497.723 -7.573L488.618 0.423551" stroke="#2376E5" stroke-width="1.4" stroke-miterlimit="10"/>
<path opacity="0.9" d="M464.251 19.0222L454.478 27.2883" stroke="#2376E5" stroke-width="1.4" stroke-miterlimit="10"/>
<path opacity="0.9" d="M428.906 46.2466L418.604 55.0518" stroke="#2376E5" stroke-width="1.4" stroke-miterlimit="10"/>
<path opacity="0.9" d="M393.032 74.5488L382.274 83.9827" stroke="#2376E5" stroke-width="1.4" stroke-miterlimit="10"/>
<path opacity="0.9" d="M357.533 104.109L346.628 114.711" stroke="#2376E5" stroke-width="1.4" stroke-miterlimit="10"/>
<path opacity="0.9" d="M323.686 135.377L312.855 147.326" stroke="#2376E5" stroke-width="1.4" stroke-miterlimit="10"/>
<path opacity="0.9" d="M292.552 168.711L282.242 182.458" stroke="#2376E5" stroke-width="1.4" stroke-miterlimit="10"/>
<path opacity="0.9" d="M265.245 204.47L255.993 220.193" stroke="#2376E5" stroke-width="1.4" stroke-miterlimit="10"/>
<path d="M489.896 16.5962L479.896 25.3116" stroke="#2376E5" stroke-width="1.4" stroke-miterlimit="10"/>
<path d="M454.397 43.7307L443.875 52.9851" stroke="#2376E5" stroke-width="1.4" stroke-miterlimit="10"/>
<path d="M418.303 71.9431L407.398 82.0065" stroke="#2376E5" stroke-width="1.4" stroke-miterlimit="10"/>
<path d="M382.803 101.504L371.744 112.734" stroke="#2376E5" stroke-width="1.4" stroke-miterlimit="10"/>
<path d="M349.03 132.861L338.052 145.619" stroke="#2376E5" stroke-width="1.4" stroke-miterlimit="10"/>
<path d="M318.043 166.375L307.667 181.02" stroke="#2376E5" stroke-width="1.4" stroke-miterlimit="10"/>
<path d="M291.045 202.494L281.867 219.296" stroke="#2376E5" stroke-width="1.4" stroke-miterlimit="10"/>
<path d="M515.623 14.3501L505.395 23.335" stroke="#2376E5" stroke-width="1.4" stroke-miterlimit="10"/>
<path d="M479.969 41.3047L469.064 50.9186" stroke="#2376E5" stroke-width="1.4" stroke-miterlimit="10"/>
<path d="M443.794 69.3376L432.514 79.8499" stroke="#2376E5" stroke-width="1.4" stroke-miterlimit="10"/>
<path d="M408.221 98.9873L396.787 110.668" stroke="#2376E5" stroke-width="1.4" stroke-miterlimit="10"/>
<path d="M374.529 130.435L363.249 143.733" stroke="#2376E5" stroke-width="1.4" stroke-miterlimit="10"/>
<path d="M343.769 164.218L333.166 179.492" stroke="#2376E5" stroke-width="1.4" stroke-miterlimit="10"/>
<path d="M316.992 200.607L307.74 218.217" stroke="#2376E5" stroke-width="1.4" stroke-miterlimit="10"/>
<path d="M505.541 38.7891L494.417 48.7622" stroke="#2376E5" stroke-width="1.4" stroke-miterlimit="10"/>
<path d="M469.292 66.8218L457.638 77.6936" stroke="#2376E5" stroke-width="1.4" stroke-miterlimit="10"/>
<path d="M433.719 96.3823L421.911 108.602" stroke="#2376E5" stroke-width="1.4" stroke-miterlimit="10"/>
<path d="M400.028 128.009L388.52 141.935" stroke="#2376E5" stroke-width="1.4" stroke-miterlimit="10"/>
<path d="M369.415 161.972L358.656 177.965" stroke="#2376E5" stroke-width="1.4" stroke-miterlimit="10"/>
<path d="M342.938 198.72L333.687 217.229" stroke="#2376E5" stroke-width="1.4" stroke-miterlimit="10"/>
<path d="M495.312 63.9468L482.306 75.8968" stroke="#2376E5" stroke-width="1.4" stroke-miterlimit="10"/>
<path d="M459.813 93.5068L446.579 106.895" stroke="#2376E5" stroke-width="1.4" stroke-miterlimit="10"/>
<path d="M426.194 125.044L413.188 140.498" stroke="#2376E5" stroke-width="1.4" stroke-miterlimit="10"/>
<path d="M395.809 159.096L383.626 176.977" stroke="#2376E5" stroke-width="1.4" stroke-miterlimit="10"/>
<path d="M369.561 196.114L359.186 216.959" stroke="#2376E5" stroke-width="1.4" stroke-miterlimit="10"/>
<path d="M348.656 236.726L341.212 260.446" stroke="#2376E5" stroke-width="1.4" stroke-miterlimit="10"/>
<path d="M485.311 90.8115L471.849 105.008" stroke="#2376E5" stroke-width="1.4" stroke-miterlimit="10"/>
<path d="M451.766 122.439L438.606 138.791" stroke="#2376E5" stroke-width="1.4" stroke-miterlimit="10"/>
<path d="M421.463 156.76L409.353 175.629" stroke="#2376E5" stroke-width="1.4" stroke-miterlimit="10"/>
<path d="M395.508 194.138L385.36 216.061" stroke="#2376E5" stroke-width="1.4" stroke-miterlimit="10"/>
<path d="M375.058 235.288L368.063 260.177" stroke="#2376E5" stroke-width="1.4" stroke-miterlimit="10"/>
<path d="M511.03 88.386L497.047 102.762" stroke="#2376E5" stroke-width="1.4" stroke-miterlimit="10"/>
<path d="M477.566 120.103L463.876 136.814" stroke="#2376E5" stroke-width="1.4" stroke-miterlimit="10"/>
<path d="M447.483 154.514L434.843 174.012" stroke="#2376E5" stroke-width="1.4" stroke-miterlimit="10"/>
<path d="M421.756 192.251L411.307 214.983" stroke="#2376E5" stroke-width="1.4" stroke-miterlimit="10"/>
<path d="M401.681 233.941L394.685 259.817" stroke="#2376E5" stroke-width="1.4" stroke-miterlimit="10"/>
<path d="M503.44 117.137L489.221 135.466" stroke="#2376E5" stroke-width="1.4" stroke-miterlimit="10"/>
<path d="M473.429 151.729L460.497 173.113" stroke="#2376E5" stroke-width="1.4" stroke-miterlimit="10"/>
<path d="M448.004 189.735L437.482 214.533" stroke="#2376E5" stroke-width="1.4" stroke-miterlimit="10"/>
<path d="M428.23 231.964L421.609 259.997" stroke="#2376E5" stroke-width="1.4" stroke-miterlimit="10"/>
<path d="M499.449 149.483L486.142 171.496" stroke="#2376E5" stroke-width="1.4" stroke-miterlimit="10"/>
<path d="M474.26 187.848L463.575 213.455" stroke="#2376E5" stroke-width="1.4" stroke-miterlimit="10"/>
<path d="M454.926 230.616L448.387 259.638" stroke="#2376E5" stroke-width="1.4" stroke-miterlimit="10"/>
<path d="M500.508 185.872L489.823 212.467" stroke="#2376E5" stroke-width="1.4" stroke-miterlimit="10"/>
<path d="M481.63 229.179L475.311 259.278" stroke="#2376E5" stroke-width="1.4" stroke-miterlimit="10"/>
<path d="M509.002 228.01L501.485 258.739" stroke="#2376E5" stroke-width="1.4" stroke-miterlimit="10"/>
</svg>
