<svg width="638" height="237" viewBox="0 0 638 237" fill="none" xmlns="http://www.w3.org/2000/svg">
<path opacity="0.2" d="M408.775 209.177L404.498 213.015" stroke="#2376E5" stroke-width="1.4" stroke-miterlimit="10"/>
<path opacity="0.2" d="M444.138 179.386L439.784 183.315" stroke="#2376E5" stroke-width="1.4" stroke-miterlimit="10"/>
<path opacity="0.2" d="M480.035 149.503L475.605 153.524" stroke="#2376E5" stroke-width="1.4" stroke-miterlimit="10"/>
<path opacity="0.2" d="M515.627 119.438L511.121 123.55" stroke="#2376E5" stroke-width="1.4" stroke-miterlimit="10"/>
<path opacity="0.2" d="M550.074 89.1887L545.567 93.5755" stroke="#2376E5" stroke-width="1.4" stroke-miterlimit="10"/>
<path opacity="0.2" d="M582.381 58.8494L577.951 63.6013" stroke="#2376E5" stroke-width="1.4" stroke-miterlimit="10"/>
<path opacity="0.2" d="M611.863 28.3269L607.586 33.4444" stroke="#2376E5" stroke-width="1.4" stroke-miterlimit="10"/>
<path opacity="0.2" d="M637.526 -2.37842L633.554 3.28737" stroke="#2376E5" stroke-width="1.4" stroke-miterlimit="10"/>
<path opacity="0.24" d="M383.112 211.005L378.682 214.934" stroke="#2376E5" stroke-width="1.4" stroke-miterlimit="10"/>
<path opacity="0.24" d="M418.704 181.487L414.121 185.6" stroke="#2376E5" stroke-width="1.4" stroke-miterlimit="10"/>
<path opacity="0.24" d="M454.754 151.696L450.095 155.9" stroke="#2376E5" stroke-width="1.4" stroke-miterlimit="10"/>
<path opacity="0.24" d="M490.27 121.63L485.535 126.109" stroke="#2376E5" stroke-width="1.4" stroke-miterlimit="10"/>
<path opacity="0.24" d="M524.563 91.2905L519.828 96.0426" stroke="#2376E5" stroke-width="1.4" stroke-miterlimit="10"/>
<path opacity="0.24" d="M556.718 60.7683L552.059 65.9772" stroke="#2376E5" stroke-width="1.4" stroke-miterlimit="10"/>
<path opacity="0.24" d="M585.894 30.063L581.388 35.7289" stroke="#2376E5" stroke-width="1.4" stroke-miterlimit="10"/>
<path opacity="0.24" d="M611.251 -0.824951L607.051 5.38918" stroke="#2376E5" stroke-width="1.4" stroke-miterlimit="10"/>
<path opacity="0.28" d="M357.449 212.833L352.867 216.945" stroke="#2376E5" stroke-width="1.4" stroke-miterlimit="10"/>
<path opacity="0.28" d="M393.27 183.498L388.534 187.885" stroke="#2376E5" stroke-width="1.4" stroke-miterlimit="10"/>
<path opacity="0.28" d="M429.397 153.889L424.509 158.367" stroke="#2376E5" stroke-width="1.4" stroke-miterlimit="10"/>
<path opacity="0.28" d="M464.912 123.823L459.948 128.576" stroke="#2376E5" stroke-width="1.4" stroke-miterlimit="10"/>
<path opacity="0.28" d="M499.053 93.3931L494.089 98.5104" stroke="#2376E5" stroke-width="1.4" stroke-miterlimit="10"/>
<path opacity="0.28" d="M530.979 62.7788L526.091 68.3532" stroke="#2376E5" stroke-width="1.4" stroke-miterlimit="10"/>
<path opacity="0.28" d="M559.926 31.7993L555.191 37.9221" stroke="#2376E5" stroke-width="1.4" stroke-miterlimit="10"/>
<path opacity="0.28" d="M584.978 0.72876L580.548 7.39984" stroke="#2376E5" stroke-width="1.4" stroke-miterlimit="10"/>
<path opacity="0.32" d="M331.786 214.66L326.974 218.864" stroke="#2376E5" stroke-width="1.4" stroke-miterlimit="10"/>
<path opacity="0.32" d="M367.837 185.691L362.872 190.077" stroke="#2376E5" stroke-width="1.4" stroke-miterlimit="10"/>
<path opacity="0.32" d="M404.04 156.082L398.922 160.743" stroke="#2376E5" stroke-width="1.4" stroke-miterlimit="10"/>
<path opacity="0.32" d="M439.555 126.017L434.362 131.043" stroke="#2376E5" stroke-width="1.4" stroke-miterlimit="10"/>
<path opacity="0.32" d="M473.62 95.5854L468.35 100.977" stroke="#2376E5" stroke-width="1.4" stroke-miterlimit="10"/>
<path opacity="0.32" d="M505.316 64.7893L500.123 70.6379" stroke="#2376E5" stroke-width="1.4" stroke-miterlimit="10"/>
<path opacity="0.32" d="M533.958 33.6272L528.993 40.1155" stroke="#2376E5" stroke-width="1.4" stroke-miterlimit="10"/>
<path opacity="0.32" d="M558.628 2.19092L554.045 9.50167" stroke="#2376E5" stroke-width="1.4" stroke-miterlimit="10"/>
<path opacity="0.38" d="M306.123 216.488L301.159 220.783" stroke="#2376E5" stroke-width="1.4" stroke-miterlimit="10"/>
<path opacity="0.38" d="M342.403 187.701L337.209 192.363" stroke="#2376E5" stroke-width="1.4" stroke-miterlimit="10"/>
<path opacity="0.38" d="M378.682 158.276L373.336 163.21" stroke="#2376E5" stroke-width="1.4" stroke-miterlimit="10"/>
<path opacity="0.38" d="M414.197 128.301L408.775 133.602" stroke="#2376E5" stroke-width="1.4" stroke-miterlimit="10"/>
<path opacity="0.38" d="M448.11 97.688L442.611 103.445" stroke="#2376E5" stroke-width="1.4" stroke-miterlimit="10"/>
<path opacity="0.38" d="M479.654 66.7085L474.231 73.014" stroke="#2376E5" stroke-width="1.4" stroke-miterlimit="10"/>
<path opacity="0.38" d="M507.99 35.3635L502.719 42.4001" stroke="#2376E5" stroke-width="1.4" stroke-miterlimit="10"/>
<path opacity="0.38" d="M532.354 3.74438L527.542 11.5121" stroke="#2376E5" stroke-width="1.4" stroke-miterlimit="10"/>
<path opacity="0.48" d="M280.461 218.315L275.267 222.702" stroke="#2376E5" stroke-width="1.4" stroke-miterlimit="10"/>
<path opacity="0.48" d="M316.969 189.804L311.546 194.555" stroke="#2376E5" stroke-width="1.4" stroke-miterlimit="10"/>
<path opacity="0.48" d="M353.325 160.561L347.749 165.586" stroke="#2376E5" stroke-width="1.4" stroke-miterlimit="10"/>
<path opacity="0.48" d="M388.84 130.495L383.112 136.069" stroke="#2376E5" stroke-width="1.4" stroke-miterlimit="10"/>
<path opacity="0.48" d="M422.599 99.8806L416.871 105.912" stroke="#2376E5" stroke-width="1.4" stroke-miterlimit="10"/>
<path opacity="0.48" d="M453.914 68.7188L448.262 75.3898" stroke="#2376E5" stroke-width="1.4" stroke-miterlimit="10"/>
<path opacity="0.48" d="M482.021 37.1912L476.522 44.5932" stroke="#2376E5" stroke-width="1.4" stroke-miterlimit="10"/>
<path opacity="0.48" d="M506.08 5.29785L501.039 13.6138" stroke="#2376E5" stroke-width="1.4" stroke-miterlimit="10"/>
<path opacity="0.56" d="M254.798 220.144L249.375 224.712" stroke="#2376E5" stroke-width="1.4" stroke-miterlimit="10"/>
<path opacity="0.56" d="M291.535 191.906L285.96 196.84" stroke="#2376E5" stroke-width="1.4" stroke-miterlimit="10"/>
<path opacity="0.56" d="M327.967 162.662L322.239 168.145" stroke="#2376E5" stroke-width="1.4" stroke-miterlimit="10"/>
<path opacity="0.56" d="M363.407 132.688L357.525 138.628" stroke="#2376E5" stroke-width="1.4" stroke-miterlimit="10"/>
<path opacity="0.56" d="M397.013 101.891L391.132 108.472" stroke="#2376E5" stroke-width="1.4" stroke-miterlimit="10"/>
<path opacity="0.56" d="M428.174 70.6379L422.37 77.8573" stroke="#2376E5" stroke-width="1.4" stroke-miterlimit="10"/>
<path opacity="0.56" d="M455.976 38.8359L450.4 46.8778" stroke="#2376E5" stroke-width="1.4" stroke-miterlimit="10"/>
<path opacity="0.56" d="M479.654 6.76001L474.612 15.7157" stroke="#2376E5" stroke-width="1.4" stroke-miterlimit="10"/>
<path opacity="0.66" d="M229.059 221.971L223.56 226.723" stroke="#2376E5" stroke-width="1.4" stroke-miterlimit="10"/>
<path opacity="0.66" d="M266.026 193.916L260.297 199.125" stroke="#2376E5" stroke-width="1.4" stroke-miterlimit="10"/>
<path opacity="0.66" d="M302.61 164.856L296.653 170.521" stroke="#2376E5" stroke-width="1.4" stroke-miterlimit="10"/>
<path opacity="0.66" d="M337.973 134.881L331.939 141.095" stroke="#2376E5" stroke-width="1.4" stroke-miterlimit="10"/>
<path opacity="0.66" d="M371.502 104.085L365.392 110.938" stroke="#2376E5" stroke-width="1.4" stroke-miterlimit="10"/>
<path opacity="0.66" d="M402.435 72.6484L396.402 80.2335" stroke="#2376E5" stroke-width="1.4" stroke-miterlimit="10"/>
<path opacity="0.66" d="M429.931 40.6638L424.127 49.1627" stroke="#2376E5" stroke-width="1.4" stroke-miterlimit="10"/>
<path opacity="0.66" d="M453.303 8.31372L448.033 17.8177" stroke="#2376E5" stroke-width="1.4" stroke-miterlimit="10"/>
<path opacity="0.7" d="M203.395 223.799L197.667 228.642" stroke="#2376E5" stroke-width="1.4" stroke-miterlimit="10"/>
<path opacity="0.7" d="M240.592 196.018L234.634 201.41" stroke="#2376E5" stroke-width="1.4" stroke-miterlimit="10"/>
<path opacity="0.7" d="M277.253 167.14L271.066 172.989" stroke="#2376E5" stroke-width="1.4" stroke-miterlimit="10"/>
<path opacity="0.7" d="M312.615 137.075L306.276 143.563" stroke="#2376E5" stroke-width="1.4" stroke-miterlimit="10"/>
<path opacity="0.7" d="M345.992 106.186L339.653 113.406" stroke="#2376E5" stroke-width="1.4" stroke-miterlimit="10"/>
<path opacity="0.7" d="M376.696 74.5674L370.434 82.6095" stroke="#2376E5" stroke-width="1.4" stroke-miterlimit="10"/>
<path opacity="0.7" d="M403.963 42.4001L397.93 51.3558" stroke="#2376E5" stroke-width="1.4" stroke-miterlimit="10"/>
<path opacity="0.7" d="M426.953 9.77563L421.53 19.9194" stroke="#2376E5" stroke-width="1.4" stroke-miterlimit="10"/>
<path opacity="0.8" d="M177.961 225.169L171.47 231.018" stroke="#2376E5" stroke-width="1.4" stroke-miterlimit="10"/>
<path opacity="0.8" d="M215.387 197.754L208.665 204.059" stroke="#2376E5" stroke-width="1.4" stroke-miterlimit="10"/>
<path opacity="0.8" d="M252.048 168.876L245.25 175.822" stroke="#2376E5" stroke-width="1.4" stroke-miterlimit="10"/>
<path opacity="0.8" d="M287.41 138.902L280.461 146.487" stroke="#2376E5" stroke-width="1.4" stroke-miterlimit="10"/>
<path opacity="0.8" d="M320.635 107.923L313.761 116.238" stroke="#2376E5" stroke-width="1.4" stroke-miterlimit="10"/>
<path opacity="0.8" d="M351.033 76.2122L344.389 85.3507" stroke="#2376E5" stroke-width="1.4" stroke-miterlimit="10"/>
<path opacity="0.8" d="M377.995 43.7708L371.655 54.0059" stroke="#2376E5" stroke-width="1.4" stroke-miterlimit="10"/>
<path opacity="0.8" d="M400.679 11.0552L395.027 22.2955" stroke="#2376E5" stroke-width="1.4" stroke-miterlimit="10"/>
<path opacity="0.9" d="M152.375 227.18L145.501 232.846" stroke="#2376E5" stroke-width="1.4" stroke-miterlimit="10"/>
<path opacity="0.9" d="M189.953 199.947L182.926 206.162" stroke="#2376E5" stroke-width="1.4" stroke-miterlimit="10"/>
<path opacity="0.9" d="M226.767 171.252L219.587 178.106" stroke="#2376E5" stroke-width="1.4" stroke-miterlimit="10"/>
<path opacity="0.9" d="M262.053 141.187L254.798 148.863" stroke="#2376E5" stroke-width="1.4" stroke-miterlimit="10"/>
<path opacity="0.9" d="M295.125 110.116L287.945 118.615" stroke="#2376E5" stroke-width="1.4" stroke-miterlimit="10"/>
<path opacity="0.9" d="M325.371 78.2229L318.343 87.6351" stroke="#2376E5" stroke-width="1.4" stroke-miterlimit="10"/>
<path opacity="0.9" d="M352.026 45.5986L345.382 56.1992" stroke="#2376E5" stroke-width="1.4" stroke-miterlimit="10"/>
<path opacity="0.9" d="M374.328 12.6086L368.447 24.3059" stroke="#2376E5" stroke-width="1.4" stroke-miterlimit="10"/>
<path d="M126.712 229.007L119.61 234.765" stroke="#2376E5" stroke-width="1.4" stroke-miterlimit="10"/>
<path d="M164.52 202.049L157.187 208.446" stroke="#2376E5" stroke-width="1.4" stroke-miterlimit="10"/>
<path d="M201.333 173.446L193.925 180.574" stroke="#2376E5" stroke-width="1.4" stroke-miterlimit="10"/>
<path d="M236.619 143.471L229.135 151.422" stroke="#2376E5" stroke-width="1.4" stroke-miterlimit="10"/>
<path d="M269.615 112.31L262.13 121.174" stroke="#2376E5" stroke-width="1.4" stroke-miterlimit="10"/>
<path d="M299.555 80.1416L292.375 90.1028" stroke="#2376E5" stroke-width="1.4" stroke-miterlimit="10"/>
<path d="M325.982 47.3347L319.184 58.3923" stroke="#2376E5" stroke-width="1.4" stroke-miterlimit="10"/>
<path d="M347.978 14.0708L341.945 26.4078" stroke="#2376E5" stroke-width="1.4" stroke-miterlimit="10"/>
<path d="M100.973 230.835L93.7173 236.684" stroke="#2376E5" stroke-width="1.4" stroke-miterlimit="10"/>
<path d="M139.01 204.151L131.524 210.73" stroke="#2376E5" stroke-width="1.4" stroke-miterlimit="10"/>
<path d="M175.976 175.638L168.338 183.041" stroke="#2376E5" stroke-width="1.4" stroke-miterlimit="10"/>
<path d="M211.186 145.665L203.471 153.889" stroke="#2376E5" stroke-width="1.4" stroke-miterlimit="10"/>
<path d="M244.028 114.411L236.39 123.641" stroke="#2376E5" stroke-width="1.4" stroke-miterlimit="10"/>
<path d="M273.815 82.1523L266.407 92.4788" stroke="#2376E5" stroke-width="1.4" stroke-miterlimit="10"/>
<path d="M299.937 49.1626L292.91 60.6771" stroke="#2376E5" stroke-width="1.4" stroke-miterlimit="10"/>
<path d="M321.551 15.6243L315.441 28.5095" stroke="#2376E5" stroke-width="1.4" stroke-miterlimit="10"/>
<path d="M75.31 232.846L67.7487 238.511" stroke="#2376E5" stroke-width="1.4" stroke-miterlimit="10"/>
<path d="M113.575 206.344L105.785 212.833" stroke="#2376E5" stroke-width="1.4" stroke-miterlimit="10"/>
<path d="M150.619 177.924L142.675 185.325" stroke="#2376E5" stroke-width="1.4" stroke-miterlimit="10"/>
<path d="M185.828 147.949L177.809 156.265" stroke="#2376E5" stroke-width="1.4" stroke-miterlimit="10"/>
<path d="M218.518 116.604L210.575 126.017" stroke="#2376E5" stroke-width="1.4" stroke-miterlimit="10"/>
<path d="M248.076 84.1631L240.362 94.7631" stroke="#2376E5" stroke-width="1.4" stroke-miterlimit="10"/>
<path d="M273.892 50.9902L266.636 62.8702" stroke="#2376E5" stroke-width="1.4" stroke-miterlimit="10"/>
<path d="M295.278 17.1777L288.862 30.6113" stroke="#2376E5" stroke-width="1.4" stroke-miterlimit="10"/>
<path d="M49.571 234.582L41.8568 240.522" stroke="#2376E5" stroke-width="1.4" stroke-miterlimit="10"/>
<path d="M88.0652 208.354L80.1217 215.117" stroke="#2376E5" stroke-width="1.4" stroke-miterlimit="10"/>
<path d="M125.185 180.117L117.089 187.793" stroke="#2376E5" stroke-width="1.4" stroke-miterlimit="10"/>
<path d="M160.318 150.143L152.146 158.824" stroke="#2376E5" stroke-width="1.4" stroke-miterlimit="10"/>
<path d="M192.932 118.706L184.836 128.576" stroke="#2376E5" stroke-width="1.4" stroke-miterlimit="10"/>
<path d="M222.261 86.0823L214.47 97.231" stroke="#2376E5" stroke-width="1.4" stroke-miterlimit="10"/>
<path d="M247.771 52.6353L240.438 65.1549" stroke="#2376E5" stroke-width="1.4" stroke-miterlimit="10"/>
<path d="M268.775 18.6401L262.359 32.7134" stroke="#2376E5" stroke-width="1.4" stroke-miterlimit="10"/>
<path d="M284.585 -15.6292L279.697 0.088963" stroke="#2376E5" stroke-width="1.4" stroke-miterlimit="10"/>
<path d="M23.9078 236.592L15.8118 242.349" stroke="#2376E5" stroke-width="1.4" stroke-miterlimit="10"/>
<path d="M62.6314 210.548L54.3062 217.31" stroke="#2376E5" stroke-width="1.4" stroke-miterlimit="10"/>
<path d="M99.8275 182.401L91.4256 190.169" stroke="#2376E5" stroke-width="1.4" stroke-miterlimit="10"/>
<path d="M134.961 152.427L126.483 161.291" stroke="#2376E5" stroke-width="1.4" stroke-miterlimit="10"/>
<path d="M167.422 120.9L159.02 130.952" stroke="#2376E5" stroke-width="1.4" stroke-miterlimit="10"/>
<path d="M196.521 88.092L188.425 99.6069" stroke="#2376E5" stroke-width="1.4" stroke-miterlimit="10"/>
<path d="M221.726 54.4629L214.241 67.4394" stroke="#2376E5" stroke-width="1.4" stroke-miterlimit="10"/>
<path d="M242.424 20.1936L235.856 34.8152" stroke="#2376E5" stroke-width="1.4" stroke-miterlimit="10"/>
<path d="M257.777 -14.3499L252.888 2.0081" stroke="#2376E5" stroke-width="1.4" stroke-miterlimit="10"/>
<path d="M37.0449 212.558L28.7197 219.686" stroke="#2376E5" stroke-width="1.4" stroke-miterlimit="10"/>
<path d="M74.3173 184.503L65.8394 192.728" stroke="#2376E5" stroke-width="1.4" stroke-miterlimit="10"/>
<path d="M109.375 154.438L100.897 163.942" stroke="#2376E5" stroke-width="1.4" stroke-miterlimit="10"/>
<path d="M141.683 122.819L133.281 133.602" stroke="#2376E5" stroke-width="1.4" stroke-miterlimit="10"/>
<path d="M170.63 89.9202L162.534 102.166" stroke="#2376E5" stroke-width="1.4" stroke-miterlimit="10"/>
<path d="M195.529 56.1077L188.12 69.8154" stroke="#2376E5" stroke-width="1.4" stroke-miterlimit="10"/>
<path d="M215.845 21.5642L209.43 37.0082" stroke="#2376E5" stroke-width="1.4" stroke-miterlimit="10"/>
<path d="M230.891 -13.1619L226.156 3.92708" stroke="#2376E5" stroke-width="1.4" stroke-miterlimit="10"/>
<path d="M11.5347 214.66L2.90399 221.88" stroke="#2376E5" stroke-width="1.4" stroke-miterlimit="10"/>
<path d="M48.9599 186.788L40.1765 195.104" stroke="#2376E5" stroke-width="1.4" stroke-miterlimit="10"/>
<path d="M84.0169 156.722L75.1573 166.409" stroke="#2376E5" stroke-width="1.4" stroke-miterlimit="10"/>
<path d="M116.172 125.012L107.465 136.069" stroke="#2376E5" stroke-width="1.4" stroke-miterlimit="10"/>
<path d="M144.814 91.9302L136.489 104.45" stroke="#2376E5" stroke-width="1.4" stroke-miterlimit="10"/>
<path d="M169.484 57.844L161.846 72.0086" stroke="#2376E5" stroke-width="1.4" stroke-miterlimit="10"/>
<path d="M189.418 23.1179L182.926 39.0188" stroke="#2376E5" stroke-width="1.4" stroke-miterlimit="10"/>
<path d="M204.083 -11.8823L199.347 5.84637" stroke="#2376E5" stroke-width="1.4" stroke-miterlimit="10"/>
<path d="M23.3733 188.798L14.5899 197.663" stroke="#2376E5" stroke-width="1.4" stroke-miterlimit="10"/>
<path d="M58.4307 158.824L49.5709 169.059" stroke="#2376E5" stroke-width="1.4" stroke-miterlimit="10"/>
<path d="M90.4331 127.022L81.8022 138.72" stroke="#2376E5" stroke-width="1.4" stroke-miterlimit="10"/>
<path d="M118.922 93.7583L110.673 107.009" stroke="#2376E5" stroke-width="1.4" stroke-miterlimit="10"/>
<path d="M143.21 59.489L135.725 74.4761" stroke="#2376E5" stroke-width="1.4" stroke-miterlimit="10"/>
<path d="M162.839 24.4888L156.576 41.3035" stroke="#2376E5" stroke-width="1.4" stroke-miterlimit="10"/>
<path d="M177.045 -10.6943L172.691 7.85675" stroke="#2376E5" stroke-width="1.4" stroke-miterlimit="10"/>
<path d="M32.997 161.109L23.8317 171.435" stroke="#2376E5" stroke-width="1.4" stroke-miterlimit="10"/>
<path d="M64.9227 129.215L55.9102 141.004" stroke="#2376E5" stroke-width="1.4" stroke-miterlimit="10"/>
<path d="M93.1824 95.769L84.5522 109.294" stroke="#2376E5" stroke-width="1.4" stroke-miterlimit="10"/>
<path d="M117.242 61.3167L109.298 76.4866" stroke="#2376E5" stroke-width="1.4" stroke-miterlimit="10"/>
<path d="M136.489 26.0422L129.844 43.2225" stroke="#2376E5" stroke-width="1.4" stroke-miterlimit="10"/>
<path d="M150.466 -9.41504L145.654 9.68431" stroke="#2376E5" stroke-width="1.4" stroke-miterlimit="10"/>
<path d="M7.56315 163.028L-1.8313 173.629" stroke="#2376E5" stroke-width="1.4" stroke-miterlimit="10"/>
<path d="M39.2597 131.043L30.0944 143.289" stroke="#2376E5" stroke-width="1.4" stroke-miterlimit="10"/>
<path d="M67.2905 97.5054L58.5071 111.487" stroke="#2376E5" stroke-width="1.4" stroke-miterlimit="10"/>
<path d="M91.0443 62.7788L83.1006 78.5883" stroke="#2376E5" stroke-width="1.4" stroke-miterlimit="10"/>
<path d="M109.985 27.3215L103.341 45.1415" stroke="#2376E5" stroke-width="1.4" stroke-miterlimit="10"/>
<path d="M123.505 -8.40991L118.922 11.3292" stroke="#2376E5" stroke-width="1.4" stroke-miterlimit="10"/>
<path d="M13.6732 132.78L4.20245 145.299" stroke="#2376E5" stroke-width="1.4" stroke-miterlimit="10"/>
<path d="M41.4749 99.0583L32.4623 113.406" stroke="#2376E5" stroke-width="1.4" stroke-miterlimit="10"/>
<path d="M64.9227 64.0581L56.8267 80.416" stroke="#2376E5" stroke-width="1.4" stroke-miterlimit="10"/>
<path d="M83.4827 28.4182L76.7613 46.7866" stroke="#2376E5" stroke-width="1.4" stroke-miterlimit="10"/>
<path d="M96.6194 -7.49609L92.0367 12.8827" stroke="#2376E5" stroke-width="1.4" stroke-miterlimit="10"/>
<path d="M15.3534 100.155L6.64642 115.416" stroke="#2376E5" stroke-width="1.4" stroke-miterlimit="10"/>
<path d="M38.4196 64.9722L30.7819 82.3352" stroke="#2376E5" stroke-width="1.4" stroke-miterlimit="10"/>
<path d="M56.6739 29.1492L50.5636 48.4313" stroke="#2376E5" stroke-width="1.4" stroke-miterlimit="10"/>
<path d="M69.3528 -7.03906L65.5338 14.3449" stroke="#2376E5" stroke-width="1.4" stroke-miterlimit="10"/>
<path d="M12.2221 65.9773L4.58441 83.8888" stroke="#2376E5" stroke-width="1.4" stroke-miterlimit="10"/>
<path d="M30.0181 29.8804L23.9844 49.8936" stroke="#2376E5" stroke-width="1.4" stroke-miterlimit="10"/>
<path d="M42.3147 -6.49072L38.725 15.5329" stroke="#2376E5" stroke-width="1.4" stroke-miterlimit="10"/>
<path d="M3.36231 30.4287L-2.44244 51.173" stroke="#2376E5" stroke-width="1.4" stroke-miterlimit="10"/>
<path d="M15.2772 -6.12524L11.993 16.6296" stroke="#2376E5" stroke-width="1.4" stroke-miterlimit="10"/>
</svg>
