<svg version="1.1" viewBox="0.0 0.0 1195.2152230971128 281.87401574803147" fill="none" stroke="none" stroke-linecap="square" stroke-miterlimit="10" xmlns:xlink="http://www.w3.org/1999/xlink" xmlns="http://www.w3.org/2000/svg"><clipPath id="p.0"><path d="m0 0l1195.2152 0l0 281.87402l-1195.2152 0l0 -281.87402z" clip-rule="nonzero"/></clipPath><g clip-path="url(#p.0)"><path fill="#000000" fill-opacity="0.0" d="m0 0l1195.2152 0l0 281.87402l-1195.2152 0z" fill-rule="evenodd"/><g filter="url(#shadowFilter-p.1)"><use xlink:href="#p.1" transform="matrix(1.0 0.0 0.0 1.0 5.470235989788386 12.887067339238845)"/></g><defs><filter id="shadowFilter-p.1" filterUnits="userSpaceOnUse"><feGaussianBlur in="SourceAlpha" stdDeviation="12.5" result="blur"/><feComponentTransfer in="blur" color-interpolation-filters="sRGB"><feFuncR type="linear" slope="0" intercept="0.0"/><feFuncG type="linear" slope="0" intercept="0.0"/><feFuncB type="linear" slope="0" intercept="0.0"/><feFuncA type="linear" slope="0.45" intercept="0"/></feComponentTransfer></filter></defs><g id="p.1"><path fill="#ffffff" d="m20.062992 121.220856l0 0c0 -10.587845 8.583143 -19.17099 19.170986 -19.17099l199.04385 0c5.0844574 0 9.960678 2.0197983 13.555939 5.615059c3.5952606 3.595253 5.6150513 8.471466 5.6150513 13.555931l0 76.68164c0 10.587845 -8.583145 19.17099 -19.17099 19.17099l-199.04385 0l0 0c-10.587843 0 -19.170986 -8.583145 -19.170986 -19.17099z" fill-rule="evenodd"/><path stroke="#000000" stroke-width="1.0" stroke-linejoin="round" stroke-linecap="butt" d="m20.062992 121.220856l0 0c0 -10.587845 8.583143 -19.17099 19.170986 -19.17099l199.04385 0c5.0844574 0 9.960678 2.0197983 13.555939 5.615059c3.5952606 3.595253 5.6150513 8.471466 5.6150513 13.555931l0 76.68164c0 10.587845 -8.583145 19.17099 -19.17099 19.17099l-199.04385 0l0 0c-10.587843 0 -19.170986 -8.583145 -19.170986 -19.17099z" fill-rule="evenodd"/></g><path fill="#000000" fill-opacity="0.0" d="m35.666668 23.406824l161.6063 0l0 45.196854l-161.6063 0z" fill-rule="evenodd"/><path fill="#434343" d="m62.166668 40.220577l3.0312462 0l0 13.234375q0 3.453125 -0.78125 5.484375q-0.7812462 2.03125 -2.8281212 3.3125q-2.03125 1.265625 -5.34375 1.265625q-3.21875 0 -5.265625 -1.109375q-2.046875 -1.109375 -2.921875 -3.203125q-0.875 -2.109375 -0.875 -5.75l0 -13.234375l3.03125 0l0 13.21875q0 2.984375 0.546875 4.40625q0.5625 1.40625 1.90625 2.171875q1.359375 0.765625 3.3125 0.765625q3.34375 0 4.765625 -1.515625q1.421875 -1.515625 1.421875 -5.828125l0 -13.21875zm13.859371 20.390625l0.40625 2.484375q-1.1875 0.25 -2.125 0.25q-1.53125 0 -2.375 -0.484375q-0.84375 -0.484375 -1.1875 -1.265625q-0.34375 -0.796875 -0.34375 -3.328125l0 -9.546875l-2.0625 0l0 -2.1875l2.0625 0l0 -4.109375l2.796875 -1.6875l0 5.796875l2.828125 0l0 2.1875l-2.828125 0l0 9.703125q0 1.203125 0.140625 1.546875q0.15625 0.34375 0.484375 0.546875q0.34375 0.203125 0.96875 0.203125q0.46875 0 1.234375 -0.109375zm8.890625 0l0.40625 2.484375q-1.1875 0.25 -2.125 0.25q-1.53125 0 -2.375 -0.484375q-0.84375 -0.484375 -1.1875 -1.265625q-0.34375 -0.796875 -0.34375 -3.328125l0 -9.546875l-2.0625 0l0 -2.1875l2.0625 0l0 -4.109375l2.796875 -1.6875l0 5.796875l2.828125 0l0 2.1875l-2.828125 0l0 9.703125q0 1.203125 0.140625 1.546875q0.15625 0.34375 0.484375 0.546875q0.34375 0.203125 0.96875 0.203125q0.46875 0 1.234375 -0.109375zm14.109375 -2.828125l2.90625 0.359375q-0.6875 2.546875 -2.546875 3.953125q-1.859375 1.40625 -4.75 1.40625q-3.640625 0 -5.78125 -2.234375q-2.125 -2.25 -2.125 -6.296875q0 -4.1875 2.15625 -6.5q2.15625 -2.3125 5.59375 -2.3125q3.328125 0 5.4375 2.265625q2.109375 2.265625 2.109375 6.375q0 0.25 -0.015625 0.75l-12.375 0q0.15625 2.734375 1.546875 4.1875q1.390625 1.453125 3.46875 1.453125q1.546875 0 2.640625 -0.8125q1.09375 -0.8125 1.734375 -2.59375zm-9.234375 -4.546875l9.265625 0q-0.1875 -2.09375 -1.0625 -3.140625q-1.34375 -1.625 -3.484375 -1.625q-1.9375 0 -3.265625 1.296875q-1.3125 1.296875 -1.453125 3.46875zm15.640625 9.890625l0 -16.59375l2.53125 0l0 2.515625q0.96875 -1.765625 1.78125 -2.328125q0.828125 -0.5625 1.8125 -0.5625q1.421875 0 2.890625 0.90625l-0.96875 2.609375q-1.03125 -0.609375 -2.0625 -0.609375q-0.921875 0 -1.65625 0.5625q-0.734375 0.546875 -1.046875 1.53125q-0.46875 1.5 -0.46875 3.28125l0 8.6875l-2.8125 0zm21.515625 -2.046875q-1.5625 1.328125 -3.015625 1.875q-1.4375 0.546875 -3.09375 0.546875q-2.734375 0 -4.203125 -1.328125q-1.46875 -1.34375 -1.46875 -3.421875q0 -1.21875 0.546875 -2.21875q0.5625 -1.015625 1.453125 -1.625q0.90625 -0.609375 2.03125 -0.921875q0.828125 -0.21875 2.5 -0.421875q3.40625 -0.40625 5.015625 -0.96875q0.015625 -0.578125 0.015625 -0.734375q0 -1.71875 -0.796875 -2.421875q-1.078125 -0.953125 -3.203125 -0.953125q-1.984375 0 -2.9375 0.703125q-0.9375 0.6875 -1.390625 2.453125l-2.75 -0.375q0.375 -1.765625 1.234375 -2.84375q0.859375 -1.09375 2.484375 -1.671875q1.625 -0.59375 3.765625 -0.59375q2.125 0 3.453125 0.5q1.328125 0.5 1.9531326 1.265625q0.625 0.75 0.875 1.90625q0.140625 0.71875 0.140625 2.59375l0 3.75q0 3.921875 0.171875 4.96875q0.1875 1.03125 0.71875 1.984375l-2.9375076 0q-0.4375 -0.875 -0.5625 -2.046875zm-0.234375 -6.28125q-1.53125 0.625 -4.59375 1.0625q-1.734375 0.25 -2.453125 0.5625q-0.71875 0.3125 -1.109375 0.921875q-0.390625 0.59375 -0.390625 1.328125q0 1.125 0.84375 1.875q0.859375 0.75 2.5 0.75q1.625 0 2.890625 -0.703125q1.265625 -0.71875 1.859375 -1.953125q0.453125 -0.953125 0.453125 -2.8125l0 -1.03125zm7.2031326 8.328125l0 -16.59375l2.53125 0l0 2.359375q1.828125 -2.734375 5.28125 -2.734375q1.5 0 2.75 0.546875q1.265625 0.53125 1.890625 1.40625q0.625 0.875 0.875 2.078125q0.15625 0.78125 0.15625 2.734375l0 10.203125l-2.8125 0l0 -10.09375q0 -1.71875 -0.328125 -2.5625q-0.328125 -0.859375 -1.171875 -1.359375q-0.828125 -0.515625 -1.953125 -0.515625q-1.796875 0 -3.109375 1.140625q-1.296875 1.140625 -1.296875 4.328125l0 9.0625l-2.8125 0zm28.625 -6.078125l2.765625 0.359375q-0.453125 2.859375 -2.328125 4.484375q-1.859375 1.609375 -4.578125 1.609375q-3.40625 0 -5.484375 -2.21875q-2.0625 -2.234375 -2.0625 -6.390625q0 -2.6875 0.890625 -4.703125q0.890625 -2.015625 2.703125 -3.015625q1.828125 -1.015625 3.96875 -1.015625q2.703125 0 4.421875 1.375q1.71875 1.359375 2.203125 3.875l-2.734375 0.421875q-0.390625 -1.671875 -1.390625 -2.515625q-0.984375 -0.84375 -2.390625 -0.84375q-2.125 0 -3.453125 1.53125q-1.328125 1.515625 -1.328125 4.8125q0 3.34375 1.28125 4.859375q1.28125 1.515625 3.34375 1.515625q1.65625 0 2.765625 -1.015625q1.109375 -1.015625 1.40625 -3.125zm16.53125 0.734375l2.90625 0.359375q-0.6875 2.546875 -2.546875 3.953125q-1.859375 1.40625 -4.75 1.40625q-3.640625 0 -5.78125 -2.234375q-2.125 -2.25 -2.125 -6.296875q0 -4.1875 2.15625 -6.5q2.15625 -2.3125 5.59375 -2.3125q3.328125 0 5.4375 2.265625q2.109375 2.265625 2.109375 6.375q0 0.25 -0.015625 0.75l-12.375 0q0.15625 2.734375 1.546875 4.1875q1.390625 1.453125 3.46875 1.453125q1.546875 0 2.640625 -0.8125q1.09375 -0.8125 1.734375 -2.59375zm-9.234375 -4.546875l9.265625 0q-0.1875 -2.09375 -1.0625 -3.140625q-1.34375 -1.625 -3.484375 -1.625q-1.9375 0 -3.265625 1.296875q-1.3125 1.296875 -1.453125 3.46875z" fill-rule="nonzero"/><path fill="#000000" fill-opacity="0.0" d="m514.4411 23.406824l180.18896 0l0 45.196854l-180.18896 0z" fill-rule="evenodd"/><path fill="#434343" d="m524.8786 55.767452l2.859375 -0.25q0.203125 1.71875 0.9375 2.828125q0.75 1.09375 2.3125 1.78125q1.5625 0.671875 3.515625 0.671875q1.734375 0 3.0625 -0.515625q1.328125 -0.515625 1.96875 -1.40625q0.65625 -0.90625 0.65625 -1.96875q0 -1.078125 -0.625 -1.875q-0.625 -0.8125 -2.0625 -1.359375q-0.921875 -0.359375 -4.078125 -1.109375q-3.15625 -0.765625 -4.421875 -1.4375q-1.640625 -0.859375 -2.453125 -2.125q-0.796875 -1.28125 -0.796875 -2.859375q0 -1.734375 0.984375 -3.234375q0.984375 -1.515625 2.875 -2.296875q1.890625 -0.78125 4.203125 -0.78125q2.546875 0 4.484375 0.828125q1.953125 0.8125 3.0 2.40625q1.046875 1.59375 1.125 3.609375l-2.90625 0.21875q-0.234375 -2.171875 -1.59375 -3.28125q-1.34375 -1.109375 -3.984375 -1.109375q-2.75 0 -4.015625 1.015625q-1.25 1.0 -1.25 2.421875q0 1.234375 0.890625 2.03125q0.875 0.796875 4.5625 1.640625q3.703125 0.828125 5.078125 1.453125q2.0 0.921875 2.953125 2.34375q0.953125 1.40625 0.953125 3.25q0 1.828125 -1.046875 3.453125q-1.046875 1.609375 -3.015625 2.515625q-1.953125 0.890625 -4.40625 0.890625q-3.109375 0 -5.21875 -0.90625q-2.09375 -0.90625 -3.296875 -2.71875q-1.1875 -1.828125 -1.25 -4.125zm39.734375 4.90625q2.109375 1.453125 3.890625 2.125l-0.890625 2.1093712q-2.46875 -0.890625 -4.921875 -2.8124962q-2.546875 1.421875 -5.625 1.421875q-3.109375 0 -5.640625 -1.5q-2.53125 -1.5 -3.90625 -4.21875q-1.359375 -2.71875 -1.359375 -6.125q0 -3.390625 1.375 -6.171875q1.375 -2.78125 3.90625 -4.234375q2.546875 -1.453125 5.6875 -1.453125q3.171875 0 5.71875 1.515625q2.546875 1.5 3.875 4.21875q1.34375 2.703125 1.34375 6.109375q0 2.828125 -0.859375 5.09375q-0.859375 2.25 -2.59375 3.921875zm-6.671875 -3.875q2.625 0.734375 4.328125 2.1875q2.671875 -2.4375 2.671875 -7.328125q0 -2.78125 -0.953125 -4.859375q-0.9375 -2.078125 -2.765625 -3.21875q-1.8125 -1.15625 -4.078125 -1.15625q-3.390625 0 -5.625 2.328125q-2.234375 2.3125 -2.234375 6.921875q0 4.46875 2.203125 6.859375q2.21875 2.390625 5.65625 2.390625q1.625 0 3.0625 -0.609375q-1.421875 -0.921875 -3.0 -1.3125l0.734375 -2.203125zm14.078125 6.328125l0 -22.90625l3.03125 0l0 20.203125l11.28125 0l0 2.703125l-14.3125 0zm42.984375 -2.453125q2.109375 1.453125 3.890625 2.125l-0.890625 2.1093712q-2.46875 -0.890625 -4.921875 -2.8124962q-2.546875 1.421875 -5.625 1.421875q-3.109375 0 -5.640625 -1.5q-2.53125 -1.5 -3.90625 -4.21875q-1.359375 -2.71875 -1.359375 -6.125q0 -3.390625 1.375 -6.171875q1.375 -2.78125 3.90625 -4.234375q2.546875 -1.453125 5.6875 -1.453125q3.171875 0 5.71875 1.515625q2.546875 1.5 3.875 4.21875q1.34375 2.703125 1.34375 6.109375q0 2.828125 -0.859375 5.09375q-0.859375 2.25 -2.59375 3.921875zm-6.671875 -3.875q2.625 0.734375 4.328125 2.1875q2.671875 -2.4375 2.671875 -7.328125q0 -2.78125 -0.953125 -4.859375q-0.9375 -2.078125 -2.765625 -3.21875q-1.8125 -1.15625 -4.078125 -1.15625q-3.390625 0 -5.625 2.328125q-2.234375 2.3125 -2.234375 6.921875q0 4.46875 2.203125 6.859375q2.21875 2.390625 5.65625 2.390625q1.625 0 3.0625 -0.609375q-1.421875 -0.921875 -3.0 -1.3125l0.734375 -2.203125zm24.71875 6.328125l0 -2.4375q-1.9375 2.8125 -5.265625 2.8125q-1.46875 0 -2.75 -0.5625q-1.265625 -0.5625 -1.890625 -1.40625q-0.609375 -0.859375 -0.859375 -2.09375q-0.171875 -0.828125 -0.171875 -2.625l0 -10.28125l2.8125 0l0 9.203125q0 2.203125 0.171875 2.96875q0.265625 1.109375 1.125 1.75q0.859375 0.625 2.125 0.625q1.265625 0 2.375 -0.640625q1.109375 -0.65625 1.5625 -1.765625q0.46875 -1.125 0.46875 -3.25l0 -8.890625l2.8125 0l0 16.59375l-2.515625 0zm18.28125 -5.34375l2.90625 0.359375q-0.6875 2.546875 -2.546875 3.953125q-1.859375 1.40625 -4.75 1.40625q-3.640625 0 -5.78125 -2.234375q-2.125 -2.25 -2.125 -6.296875q0 -4.1875 2.15625 -6.5q2.15625 -2.3125 5.59375 -2.3125q3.328125 0 5.4375 2.265625q2.109375 2.265625 2.109375 6.375q0 0.25 -0.015625 0.75l-12.375 0q0.15625 2.734375 1.546875 4.1875q1.390625 1.453125 3.46875 1.453125q1.546875 0 2.640625 -0.8125q1.09375 -0.8125 1.734375 -2.59375zm-9.234375 -4.546875l9.265625 0q-0.1875 -2.09375 -1.0625 -3.140625q-1.34375 -1.625 -3.484375 -1.625q-1.9375 0 -3.265625 1.296875q-1.3125 1.296875 -1.453125 3.46875zm15.640625 9.890625l0 -16.59375l2.53125 0l0 2.515625q0.96875 -1.765625 1.78125 -2.328125q0.828125 -0.5625 1.8125 -0.5625q1.421875 0 2.890625 0.90625l-0.96875 2.609375q-1.03125 -0.609375 -2.0625 -0.609375q-0.921875 0 -1.65625 0.5625q-0.734375 0.546875 -1.046875 1.53125q-0.46875 1.5 -0.46875 3.28125l0 8.6875l-2.8125 0zm10.5625 6.390621l-0.3125 -2.640625q0.921875 0.25 1.609375 0.25q0.9375 0 1.5 -0.3125q0.5625 -0.3125 0.921875 -0.875q0.265625 -0.421875 0.859375 -2.0937462q0.078125 -0.234375 0.25 -0.6875l-6.296875 -16.625l3.03125 0l3.453125 9.609375q0.671875 1.828125 1.203125 3.84375q0.484375 -1.9375 1.15625 -3.78125l3.546875 -9.671875l2.8125 0l-6.3125 16.875q-1.015625 2.7343712 -1.578125 3.7656212q-0.75 1.390625 -1.71875 2.03125q-0.96875 0.65625 -2.3125 0.65625q-0.8125 0 -1.8125 -0.34375z" fill-rule="nonzero"/><path fill="#000000" fill-opacity="0.0" d="m1020.0971 23.406824l161.60626 0l0 45.196854l-161.60626 0z" fill-rule="evenodd"/><path fill="#434343" d="m1031.6128 63.126827l0 -22.90625l10.15625 0q3.0625 0 4.65625 0.625q1.59375 0.609375 2.546875 2.171875q0.953125 1.5625 0.953125 3.453125q0 2.4375 -1.578125 4.109375q-1.578125 1.671875 -4.875 2.125q1.203125 0.578125 1.828125 1.140625q1.328125 1.21875 2.515625 3.046875l3.984375 6.234375l-3.8125 0l-3.03125 -4.765625q-1.328125 -2.0625 -2.1875 -3.15625q-0.859375 -1.09375 -1.546875 -1.53125q-0.671875 -0.4375 -1.375 -0.609375q-0.515625 -0.109375 -1.6875 -0.109375l-3.515625 0l0 10.171875l-3.03125 0zm3.03125 -12.796875l6.515625 0q2.078125 0 3.25 -0.421875q1.171875 -0.4375 1.78125 -1.375q0.609375 -0.953125 0.609375 -2.0625q0 -1.625 -1.1875 -2.671875q-1.171875 -1.046875 -3.71875 -1.046875l-7.25 0l0 7.578125zm31.03125 7.453125l2.90625 0.359375q-0.6875 2.546875 -2.546875 3.953125q-1.859375 1.40625 -4.75 1.40625q-3.640625 0 -5.78125 -2.234375q-2.125 -2.25 -2.125 -6.296875q0 -4.1875 2.15625 -6.5q2.15625 -2.3125 5.59375 -2.3125q3.328125 0 5.4375 2.265625q2.109375 2.265625 2.109375 6.375q0 0.25 -0.015625 0.75l-12.375 0q0.15625 2.734375 1.546875 4.1875q1.390625 1.453125 3.46875 1.453125q1.546875 0 2.640625 -0.8125q1.09375 -0.8125 1.734375 -2.59375zm-9.234375 -4.546875l9.265625 0q-0.1875 -2.09375 -1.0625 -3.140625q-1.34375 -1.625 -3.484375 -1.625q-1.9375 0 -3.265625 1.296875q-1.3125 1.296875 -1.453125 3.46875zm14.546875 4.9375l2.78125 -0.4375q0.234375 1.671875 1.296875 2.5625q1.078125 0.890625 3.0 0.890625q1.9375 0 2.875 -0.78125q0.9375 -0.796875 0.9375 -1.859375q0 -0.953125 -0.828125 -1.5q-0.578125 -0.375 -2.875 -0.953125q-3.09375 -0.78125 -4.296875 -1.34375q-1.1875 -0.578125 -1.8125 -1.578125q-0.609375 -1.015625 -0.609375 -2.234375q0 -1.109375 0.5 -2.046875q0.515625 -0.953125 1.390625 -1.578125q0.65625 -0.484375 1.78125 -0.8125q1.140625 -0.34375 2.4375 -0.34375q1.953125 0 3.421875 0.5625q1.484375 0.5625 2.1875 1.53125q0.703125 0.953125 0.96875 2.5625l-2.75 0.375q-0.1875 -1.28125 -1.09375 -2.0q-0.890625 -0.71875 -2.53125 -0.71875q-1.9375 0 -2.765625 0.640625q-0.828125 0.640625 -0.828125 1.5q0 0.546875 0.34375 0.984375q0.34375 0.453125 1.078125 0.75q0.421875 0.15625 2.484375 0.71875q2.984375 0.796875 4.15625 1.3125q1.1875 0.5 1.859375 1.46875q0.671875 0.96875 0.671875 2.40625q0 1.40625 -0.828125 2.65625q-0.8125 1.234375 -2.359375 1.921875q-1.546875 0.671875 -3.5 0.671875q-3.234375 0 -4.9375 -1.34375q-1.6875 -1.34375 -2.15625 -3.984375zm28.0 4.953125l0 -2.4375q-1.9375 2.8125 -5.265625 2.8125q-1.46875 0 -2.75 -0.5625q-1.265625 -0.5625 -1.890625 -1.40625q-0.609375 -0.859375 -0.859375 -2.09375q-0.171875 -0.828125 -0.171875 -2.625l0 -10.28125l2.8125 0l0 9.203125q0 2.203125 0.171875 2.96875q0.265625 1.109375 1.125 1.75q0.859375 0.625 2.125 0.625q1.265625 0 2.375 -0.640625q1.109375 -0.65625 1.5625 -1.765625q0.46875 -1.125 0.46875 -3.25l0 -8.890625l2.8125 0l0 16.59375l-2.515625 0zm6.859375 0l0 -22.90625l2.8125 0l0 22.90625l-2.8125 0zm13.3125 -2.515625l0.40625 2.484375q-1.1875 0.25 -2.125 0.25q-1.53125 0 -2.375 -0.484375q-0.84375 -0.484375 -1.1875 -1.265625q-0.34375 -0.796875 -0.34375 -3.328125l0 -9.546875l-2.0625 0l0 -2.1875l2.0625 0l0 -4.109375l2.796875 -1.6875l0 5.796875l2.828125 0l0 2.1875l-2.828125 0l0 9.703125q0 1.203125 0.140625 1.546875q0.15625 0.34375 0.484375 0.546875q0.34375 0.203125 0.96875 0.203125q0.46875 0 1.234375 -0.109375z" fill-rule="nonzero"/><path fill="#000000" fill-opacity="0.0" d="m35.666668 102.049866l237.38582 0l0 115.02362l-237.38582 0z" fill-rule="evenodd"/><path fill="#434343" d="m52.151043 122.47799q-0.875 0 -1.140625 -0.875q-1.390625 -4.453125 -1.390625 -4.8125q0 -0.515625 0.359375 -0.828125q0.375 -0.328125 0.890625 -0.328125q0.921875 0 1.140625 0.953125l0.765625 2.484375q0.578125 1.84375 0.578125 2.234375q0 0.5 -0.359375 0.84375q-0.34375 0.328125 -0.84375 0.328125zm-4.171875 -0.046875q-0.78125 0 -1.09375 -0.75q-0.1875 -0.421875 -0.734375 -2.3125q-0.5625 -1.953125 -0.5625 -2.234375q0 -0.484375 0.375 -0.8125q0.375 -0.34375 0.875 -0.34375q0.828125 0 1.109375 0.859375l0.65625 2.3125l0.59375 2.109375q0 0.484375 -0.375 0.828125q-0.375 0.34375 -0.84375 0.34375zm26.131313 -4.125q-0.203125 0.546875 -0.203125 1.609375q0 0.390625 0.03125 1.15625q0.03125 0.765625 0.03125 1.15625q0 1.296875 -0.234375 3.875q-0.21875 2.5781326 -0.21875 3.8750076q0 1.0 0.140625 2.984375q0.140625 1.96875 0.140625 2.96875q0 0.53125 -0.359375 0.890625q-0.359375 0.375 -0.890625 0.375q-0.515625 0 -0.890625 -0.375q-0.359375 -0.359375 -0.359375 -0.890625q0 -1.0 -0.140625 -2.96875q-0.140625 -1.984375 -0.140625 -2.984375q0 -0.9375 0.0625 -1.921875q-2.234375 0.046875 -5.515625 0.671875l-5.453121 1.0625q0 1.171875 -0.234375 3.328125q-0.234375 2.15625 -0.234375 3.34375q0 0.53125 -0.359375 0.890625q-0.359375 0.375 -0.890625 0.375q-0.546875 0 -0.90625 -0.375q-0.34375 -0.359375 -0.34375 -0.890625q0 -1.390625 0.21875 -4.125q0.234375 -2.734375 0.234375 -4.125q0 -0.7187576 -0.0625 -2.1562576q-0.046875 -1.453125 -0.046875 -2.171875q0 -1.03125 0.125 -3.09375q0.140625 -2.0625 0.140625 -3.09375q0 -0.546875 0.359375 -0.90625q0.359375 -0.359375 0.890625 -0.359375q0.53125 0 0.890625 0.359375q0.359375 0.359375 0.359375 0.90625q0 1.046875 -0.140625 3.125q-0.140625 2.078125 -0.140625 3.109375l0.078125 3.296875l5.593746 -1.0625q3.34375 -0.625 5.625 -0.640625q0.140625 -1.859375 0.140625 -5.609375q0 -1.0 0.328125 -2.015625q0.4375 -1.390625 1.21875 -1.390625q0.484375 0 0.875 0.359375q0.390625 0.359375 0.390625 0.90625q0 0.203125 -0.109375 0.53125zm8.208145 19.109383q-2.1875 0 -3.765625 -1.609375q-1.75 -1.796875 -1.84375 -4.828125q-0.078125 -2.9375 1.484375 -5.1875076q1.828125 -2.640625 5.078125 -2.640625q2.609375 0 3.9375 2.390625q1.078125 1.921875 1.03125 4.6250076q-0.03125 2.890625 -1.5 4.9375q-1.671875 2.3125 -4.421875 2.3125zm0.78125 -11.625008q-1.90625 -0.015625 -2.984375 1.828125q-0.84375 1.4687576 -0.84375 3.3593826q0 1.890625 1.03125 2.9375q0.859375 0.875 2.015625 0.875q1.359375 0 2.328125 -0.984375q1.109375 -1.09375 1.171875 -2.96875q0.1875 -5.0312576 -2.71875 -5.0468826zm23.939835 -0.796875q-1.015625 4.2500076 -2.65625 9.593758q-0.359375 1.1875 -1.21875 2.4375q-0.453125 0.6875 -1.234375 0.671875q-1.40625 -0.015625 -2.203125 -3.515625q-0.265625 -1.125 -0.53125 -3.046875l-0.4375 -2.90625l-1.0625 2.484375l-1.984375 5.375q-0.171875 0.5 -0.484375 0.75q-0.390625 0.765625 -1.25 0.78125q-1.0 0.046875 -1.921875 -3.875q-0.46875 -2.015625 -0.9375 -5.46875l-0.3125 -1.9531326q-0.171875 -1.171875 -0.171875 -1.953125q0 -0.546875 0.375 -0.90625q0.390625 -0.359375 0.9375 -0.359375q1.0 0 1.234375 1.078125q0.171875 0.765625 0.265625 1.90625l0.203125 1.90625l0.765625 5.8437576q1.4375 -4.0 2.984375 -9.234383q0.4375 -1.453125 1.5 -1.453125q1.03125 0 1.390625 1.609375q0.34375 1.53125 0.859375 4.6875076q0.515625 3.28125 0.921875 5.125l0.9375 -3.546875l1.6875 -7.0937576q0.1875 -0.796875 1.125 -0.796875q0.546875 0 0.9375 0.375q0.40625 0.375 0.40625 0.890625q0 0.0625 -0.125 0.59375zm27.153831 12.734383q-1.078125 0 -1.25 -1.125q-0.234375 -1.4375 -0.46875 -4.046875l-0.453125 -4.03125q-0.125 -0.8906326 -0.4375 -1.7500076q-0.4375 -1.171875 -0.96875 -1.171875q-0.46875 0 -1.78125 0.8125q-1.2500076 0.765625 -1.6406326 1.21875q-0.015625 1.2187576 0.0625 2.4375076l0.390625 3.484375q0.25 2.046875 0.25 3.390625q0 0.578125 -0.359375 0.9375q-0.359375 0.375 -0.921875 0.375q-0.5625 0 -0.921875 -0.375q-0.359375 -0.359375 -0.359375 -0.9375q0 -1.578125 -0.328125 -4.65625q-0.3125 -3.078125 -0.3125 -4.6406326q0 -1.390625 -0.390625 -2.15625q-0.90625 0.421875 -1.84375 1.359375l-1.53125 1.7187576q-0.203125 0.3125 -0.671875 0.8125q0 0.78125 -0.140625 2.3125q-0.140625 1.515625 -0.140625 2.25q0 0.390625 0.125 1.09375q0.125 0.703125 0.125 1.015625q0 0.53125 -0.40625 0.890625q-0.390625 0.359375 -0.921875 0.359375q-1.46875 0 -1.46875 -3.34375q0 -0.78125 0.140625 -2.328125q0.140625 -1.546875 0.140625 -2.328125q0 -0.6875 -0.125 -2.0625076q-0.125 -1.390625 -0.125 -2.09375q0 -2.953125 1.328125 -2.953125q0.515625 0 0.9375 0.453125q0.421875 0.4375 0.421875 0.953125q0 0.25 -0.0625 0.78125q-0.0625 0.515625 -0.0625 0.78125l0.015625 1.375q0.6875 -1.390625 2.0 -2.515625q1.3125 -1.125 2.234375 -1.125q2.046875 0 2.8125 2.015625q0.71875 -0.9375 1.7031326 -1.40625q0.984375 -0.484375 2.265625 -0.484375q2.171875 0 2.96875 2.34375q0.15625 0.46875 0.53125 3.6562576q0.359375 2.234375 0.9375 7.453125q0.046875 0.515625 -0.34375 0.875q-0.390625 0.375 -0.953125 0.375zm14.333054 -0.21875q-0.234375 0 -0.890625 -0.578125q-0.59375 -0.53125 -0.875 -0.9375q-1.25 0.671875 -2.203125 1.015625q-0.953125 0.34375 -1.578125 0.34375q-3.046875 0 -4.4375 -1.71875q-1.328125 -1.609375 -1.328125 -4.953125q0 -3.1406326 2.171875 -5.3750076q2.171875 -2.25 5.171875 -2.25q1.140625 0 2.546875 0.59375q1.765625 0.71875 1.765625 1.75q0 0.359375 -0.265625 0.625q-0.125 0.5 -0.203125 1.640625q-0.0625 1.1250076 -0.078125 2.8906326q-0.015625 1.609375 0.21875 2.546875q0.140625 0.578125 0.828125 2.296875q0.09375 0.234375 0.296875 0.6875l0.078125 0.21875q0 0.53125 -0.375 0.859375q-0.359375 0.34375 -0.84375 0.34375zm-2.703125 -9.046875q0 -0.5625076 0.0625 -1.2187576q0.078125 -0.65625 0.21875 -1.390625q-0.46875 -0.25 -0.828125 -0.359375q-0.34375 -0.125 -0.546875 -0.125q-2.015625 0 -3.484375 1.65625q-1.453125 1.6406326 -1.453125 3.7812576q0 2.140625 0.75 3.203125q0.75 1.0625 2.265625 1.0625q1.25 0 2.125 -0.453125q0.46875 -0.25 1.3125 -0.984375q-0.421875 -3.453125 -0.421875 -5.171875zm16.171753 9.109375q-1.125 0 -1.265625 -1.21875l-0.359375 -2.859375q-0.1875 -1.515625 -0.1875 -2.84375q0 -0.359375 0.046875 -1.234375q0.046875 -0.875 0.046875 -1.234375q0 -2.8125076 -1.046875 -2.8125076q-1.453125 0 -2.78125 1.734375q-1.203125 1.5625076 -1.875 3.9687576q-0.03125 0.515625 -0.125 1.28125q-0.078125 0.65625 -0.078125 1.265625q0 0.390625 0.078125 1.171875q0.078125 0.78125 0.078125 1.171875q0 0.578125 -0.359375 0.9375q-0.34375 0.375 -0.90625 0.375q-0.578125 0 -0.9375 -0.375q-0.34375 -0.359375 -0.34375 -0.9375q0 -0.390625 -0.09375 -1.171875q-0.078125 -0.78125 -0.078125 -1.171875q0 -1.34375 0.1875 -3.71875q0.1875 -2.3750076 0.1875 -3.7187576q0 -0.40625 -0.046875 -1.21875q-0.03125 -0.828125 -0.03125 -1.25q0 -0.5625 0.359375 -0.921875q0.375 -0.359375 0.921875 -0.359375q1.203125 0 1.3125 1.703125l0.046875 1.515625q2.1875 -2.90625 4.484375 -2.90625q2.078125 0 2.90625 1.828125q0.5625 1.21875 0.609375 3.6250076l0 1.3125l-0.015625 1.203125q0 1.078125 0.28125 2.796875q0.28125 1.703125 0.28125 2.78125q0 0.5625 -0.375 0.921875q-0.359375 0.359375 -0.921875 0.359375zm15.312256 -12.531258l-4.5 9.734383q-1.671875 3.546875 -2.546875 5.953125l-0.859375 2.515625q-0.34375 0.9375 -1.171875 0.9375q-0.546875 0 -0.953125 -0.359375q-0.390625 -0.359375 -0.390625 -0.890625q0 -1.296875 2.8125 -7.53125l-4.65625 -8.968758l-0.59375 -0.953125q-0.34375 -0.59375 -0.34375 -1.0q0 -0.53125 0.40625 -0.9375q0.40625 -0.40625 0.921875 -0.40625q0.59375 0 0.921875 0.453125q2.203125 3.078125 4.75 8.750008l1.921875 -4.4843826q1.046875 -2.328125 2.0 -4.015625q0.421875 -0.71875 1.09375 -0.71875q0.546875 0 0.953125 0.375q0.40625 0.375 0.40625 0.890625q0 0.296875 -0.171875 0.65625z" fill-rule="nonzero"/><path fill="#434343" d="m52.354168 169.46237q-2.65625 0 -4.453125 -1.609375q-1.875 -1.6875 -1.875 -4.46875q0 -2.640625 1.765625 -5.453125q1.953125 -3.109375 4.390625 -3.109375q1.28125 0 2.859375 0.59375q1.984375 0.765625 1.984375 1.875q0 0.484375 -0.328125 0.875q-0.3125 0.390625 -0.796875 0.390625q-0.375 0 -0.65625 -0.234375q-0.28125 -0.234375 -0.546875 -0.453125q-0.765625 -0.609375 -2.515625 -0.609375q-1.3125 0 -2.625 2.375q-1.1875 2.171875 -1.1875 3.75q0 1.71875 1.171875 2.71875q1.09375 0.921875 2.8125 0.921875q0.78125 0 1.671875 -0.421875l1.515625 -0.796875q0.390625 -0.21875 0.546875 -0.21875q0.484375 0 0.828125 0.390625q0.359375 0.375 0.359375 0.875q0 0.953125 -2.0 1.828125q-1.765625 0.78125 -2.921875 0.78125zm18.442562 -8.40625q0 0.921875 0 2.796875q0.015625 1.875 0.015625 2.8125q0 0.296875 0.046875 0.890625q0.046875 0.578125 0.046875 0.859375q0 0.5625 -0.375 0.921875q-0.375 0.359375 -0.921875 0.359375q-1.0 0 -1.28125 -1.234375q-1.625 0.84375 -3.75 0.84375q-1.7031212 0 -2.8281212 -0.765625q-1.234375 -0.828125 -1.46875 -2.421875q-0.5 -3.453125 -0.5 -6.15625q0 -1.78125 0.390625 -4.0625q0.171875 -1.125 1.234375 -1.125q0.5625 0 0.9375 0.359375q0.375 0.359375 0.375 0.921875q0 0.59375 -0.1875 1.90625q-0.1875 1.3125 -0.1875 2.0q0 2.171875 0.140625 3.734375q0.140625 1.546875 0.4375 2.484375q0.421875 0.234375 0.828125 0.359375q0.4218712 0.125 0.8281212 0.125q1.75 0 3.6875 -0.5625l-0.015625 -2.640625l-0.03125 -2.53125q0 -2.8125 0.25 -4.875q0.140625 -1.203125 1.265625 -1.203125q0.5625 0 0.9375 0.375q0.375 0.359375 0.359375 0.90625l-0.234375 4.921875zm12.018021 -2.421875q-0.71875 0 -1.0 -0.484375q-0.203125 -0.34375 -0.34375 -1.40625q-0.96875 0.25 -3.0 0.90625q-2.09375 0.828125 -2.109375 2.0625q0.390625 0.140625 0.765625 0.203125q3.0 0.53125 4.453125 1.46875q2.125 1.375 2.125 3.953125q0 2.125 -1.84375 3.203125q-1.515625 0.890625 -3.84375 0.890625q-1.703125 0 -3.265625 -0.578125q-2.0 -0.71875 -2.0 -2.03125q0 -0.515625 0.40625 -0.90625q0.421875 -0.390625 0.9375 -0.390625q0.40625 0 1.046875 0.625q0.3125 0.296875 1.40625 0.5q0.859375 0.15625 1.46875 0.15625q1.09375 0 1.921875 -0.265625q1.203125 -0.375 1.203125 -1.203125q0 -1.765625 -2.46875 -2.390625l-1.34375 -0.296875q-1.734375 -0.375 -2.46875 -0.890625q-1.046875 -0.71875 -1.046875 -2.1875q0 -2.734375 2.5625 -3.890625q0.78125 -0.34375 2.5 -0.828125q1.71875 -0.5 2.453125 -0.828125q0.53125 -0.234375 1.15625 -0.234375q0.5625 0 0.921875 0.359375q0.359375 0.359375 0.359375 0.953125q0 0.375 0.15625 1.109375q0.171875 0.71875 0.171875 1.09375q0 0.59375 -0.359375 0.96875q-0.359375 0.359375 -0.921875 0.359375zm12.898575 -1.078125q-0.265625 0 -0.640625 -0.015625q-0.375 -0.03125 -0.640625 -0.03125q-0.3125 0 -1.78125 0.1875l0.25 7.703125l0.015625 0.5625l0.015625 0.671875q0.046875 2.84375 -1.375 2.84375q-0.515625 0 -0.90625 -0.34375q-0.375 -0.328125 -0.375 -0.828125q0 -0.5 0.03125 -1.484375q0.046875 -1.0 0.046875 -1.484375l-0.265625 -7.609375q-0.953125 -0.03125 -2.890625 -0.21875q-1.15625 -0.15625 -1.15625 -1.296875q0 -0.5625 0.34375 -0.9375q0.359375 -0.375 0.90625 -0.375l2.734375 0.21875q0 -0.671875 -0.0625 -1.78125q-0.046875 -1.109375 -0.046875 -1.609375q0 -0.546875 0.375 -0.90625q0.375 -0.359375 0.921875 -0.359375q1.171875 0 1.359375 1.921875q0.046875 0.484375 0.046875 1.15625l-0.03125 0.75l-0.015625 0.8125q1.625 -0.203125 1.859375 -0.203125q1.34375 0 1.765625 0.125q0.796875 0.265625 0.796875 1.21875q0 0.578125 -0.359375 0.953125q-0.359375 0.359375 -0.921875 0.359375zm8.732071 11.859375q-2.1875 0 -3.765625 -1.609375q-1.75 -1.796875 -1.84375 -4.828125q-0.078125 -2.9375 1.484375 -5.1875q1.828125 -2.640625 5.078125 -2.640625q2.609375 0 3.9375 2.390625q1.078125 1.921875 1.03125 4.625q-0.03125 2.890625 -1.5 4.9375q-1.671875 2.3125 -4.421875 2.3125zm0.78125 -11.625q-1.90625 -0.015625 -2.984375 1.828125q-0.84375 1.46875 -0.84375 3.359375q0 1.890625 1.03125 2.9375q0.859375 0.875 2.015625 0.875q1.359375 0 2.328125 -0.984375q1.109375 -1.09375 1.171875 -2.96875q0.1875 -5.03125 -2.71875 -5.046875zm24.892967 11.9375q-1.078125 0 -1.25 -1.125q-0.234375 -1.4375 -0.46875 -4.046875l-0.45313263 -4.03125q-0.125 -0.890625 -0.4375 -1.75q-0.4375 -1.171875 -0.96875 -1.171875q-0.46875 0 -1.78125 0.8125q-1.25 0.765625 -1.640625 1.21875q-0.015625 1.21875 0.0625 2.4375l0.390625 3.484375q0.25 2.046875 0.25 3.390625q0 0.578125 -0.359375 0.9375q-0.359375 0.375 -0.921875 0.375q-0.5625 0 -0.921875 -0.375q-0.359375 -0.359375 -0.359375 -0.9375q0 -1.578125 -0.328125 -4.65625q-0.3125 -3.078125 -0.3125 -4.640625q0 -1.390625 -0.390625 -2.15625q-0.90625 0.421875 -1.84375 1.359375l-1.53125 1.71875q-0.203125 0.3125 -0.671875 0.8125q0 0.78125 -0.140625 2.3125q-0.140625 1.515625 -0.140625 2.25q0 0.390625 0.125 1.09375q0.125 0.703125 0.125 1.015625q0 0.53125 -0.40625 0.890625q-0.390625 0.359375 -0.921875 0.359375q-1.46875 0 -1.46875 -3.34375q0 -0.78125 0.140625 -2.328125q0.140625 -1.546875 0.140625 -2.328125q0 -0.6875 -0.125 -2.0625q-0.125 -1.390625 -0.125 -2.09375q0 -2.953125 1.328125 -2.953125q0.515625 0 0.9375 0.453125q0.421875 0.4375 0.421875 0.953125q0 0.25 -0.0625 0.78125q-0.0625 0.515625 -0.0625 0.78125l0.015625 1.375q0.6875 -1.390625 2.0 -2.515625q1.3125 -1.125 2.234375 -1.125q2.046875 0 2.8125 2.015625q0.71875 -0.9375 1.703125 -1.40625q0.984375 -0.484375 2.265625 -0.484375q2.1718826 0 2.9687576 2.34375q0.15625 0.46875 0.53125 3.65625q0.359375 2.234375 0.9375 7.453125q0.046875 0.515625 -0.34375 0.875q-0.390625 0.375 -0.953125 0.375zm10.254929 -0.484375q-2.9375 0 -4.765625 -1.46875q-2.0 -1.625 -2.0 -4.546875q0 -3.390625 1.640625 -5.6875q1.796875 -2.484375 4.765625 -2.484375q2.171875 0 3.53125 0.71875q1.6875 0.90625 1.6875 2.765625q0 1.296875 -1.484375 2.359375q-0.640625 0.46875 -2.75 1.46875l-4.96875 2.34375q0.71875 1.09375 1.796875 1.640625q1.09375 0.546875 2.546875 0.546875q0.890625 0 2.109375 -0.34375q1.53125 -0.4375 1.96875 -1.125q0.453125 -0.703125 0.953125 -0.703125q0.453125 0 0.8125 0.34375q0.359375 0.34375 0.359375 0.8125q0 1.4375 -2.328125 2.484375q-1.984375 0.875 -3.875 0.875zm-0.359375 -11.859375q-1.578125 0 -2.640625 1.234375q-1.046875 1.234375 -1.578125 3.703125l4.0 -1.890625q2.359375 -1.15625 3.359375 -2.0q-1.125 -1.046875 -3.140625 -1.046875zm19.009918 1.640625q-0.09375 1.640625 -1.296875 1.640625q-1.125 0 -1.125 -1.296875q0 -0.25 -0.046875 -0.90625l-0.03125 -1.09375q-2.0625 0.25 -3.296875 1.15625q-1.15625 0.84375 -1.921875 2.546875l0.03125 7.140625q0 1.3125 -1.296875 1.3125q-1.140625 0 -1.140625 -1.3125l0 -9.140625q0 -0.4375 0.03125 -1.296875q0.03125 -0.859375 0.03125 -1.28125q0 -1.3125 1.140625 -1.3125q1.28125 0 1.296875 2.15625q2.5 -2.40625 5.546875 -2.40625q1.046875 0 1.5625 0.796875q0.53125 0.796875 0.53125 2.390625q0 0.671875 -0.015625 0.90625zm11.463745 -0.390625q-0.71875 0 -1.0 -0.484375q-0.203125 -0.34375 -0.34375 -1.40625q-0.96875 0.25 -3.0 0.90625q-2.09375 0.828125 -2.109375 2.0625q0.390625 0.140625 0.765625 0.203125q3.0 0.53125 4.453125 1.46875q2.125 1.375 2.125 3.953125q0 2.125 -1.84375 3.203125q-1.515625 0.890625 -3.84375 0.890625q-1.703125 0 -3.265625 -0.578125q-2.0 -0.71875 -2.0 -2.03125q0 -0.515625 0.40625 -0.90625q0.421875 -0.390625 0.9375 -0.390625q0.40625 0 1.046875 0.625q0.3125 0.296875 1.40625 0.5q0.859375 0.15625 1.46875 0.15625q1.09375 0 1.921875 -0.265625q1.203125 -0.375 1.203125 -1.203125q0 -1.765625 -2.46875 -2.390625l-1.34375 -0.296875q-1.734375 -0.375 -2.46875 -0.890625q-1.046875 -0.71875 -1.046875 -2.1875q0 -2.734375 2.5625 -3.890625q0.78125 -0.34375 2.5 -0.828125q1.71875 -0.5 2.453125 -0.828125q0.53125 -0.234375 1.15625 -0.234375q0.5625 0 0.921875 0.359375q0.359375 0.359375 0.359375 0.953125q0 0.375 0.15625 1.109375q0.171875 0.71875 0.171875 1.09375q0 0.59375 -0.359375 0.96875q-0.359375 0.359375 -0.921875 0.359375zm20.942337 0q-0.71875 0 -1.0 -0.484375q-0.203125 -0.34375 -0.34375 -1.40625q-0.96875 0.25 -3.0 0.90625q-2.09375 0.828125 -2.109375 2.0625q0.390625 0.140625 0.765625 0.203125q3.0 0.53125 4.453125 1.46875q2.125 1.375 2.125 3.953125q0 2.125 -1.84375 3.203125q-1.515625 0.890625 -3.84375 0.890625q-1.703125 0 -3.265625 -0.578125q-2.0 -0.71875 -2.0 -2.03125q0 -0.515625 0.40625 -0.90625q0.421875 -0.390625 0.9375 -0.390625q0.40625 0 1.046875 0.625q0.3125 0.296875 1.40625 0.5q0.859375 0.15625 1.46875 0.15625q1.09375 0 1.921875 -0.265625q1.203125 -0.375 1.203125 -1.203125q0 -1.765625 -2.46875 -2.390625l-1.34375 -0.296875q-1.734375 -0.375 -2.46875 -0.890625q-1.046875 -0.71875 -1.046875 -2.1875q0 -2.734375 2.5625 -3.890625q0.78125 -0.34375 2.5 -0.828125q1.71875 -0.5 2.453125 -0.828125q0.53125 -0.234375 1.15625 -0.234375q0.5625 0 0.921875 0.359375q0.359375 0.359375 0.359375 0.953125q0 0.375 0.15625 1.109375q0.171875 0.71875 0.171875 1.09375q0 0.59375 -0.359375 0.96875q-0.359375 0.359375 -0.921875 0.359375zm12.898575 -1.078125q-0.265625 0 -0.640625 -0.015625q-0.375 -0.03125 -0.640625 -0.03125q-0.3125 0 -1.78125 0.1875l0.25 7.703125l0.015625 0.5625l0.015625 0.671875q0.046875 2.84375 -1.375 2.84375q-0.515625 0 -0.90625 -0.34375q-0.375 -0.328125 -0.375 -0.828125q0 -0.5 0.03125 -1.484375q0.046875 -1.0 0.046875 -1.484375l-0.265625 -7.609375q-0.953125 -0.03125 -2.890625 -0.21875q-1.15625 -0.15625 -1.15625 -1.296875q0 -0.5625 0.34375 -0.9375q0.359375 -0.375 0.90625 -0.375l2.734375 0.21875q0 -0.671875 -0.0625 -1.78125q-0.046875 -1.109375 -0.046875 -1.609375q0 -0.546875 0.375 -0.90625q0.375 -0.359375 0.921875 -0.359375q1.171875 0 1.359375 1.921875q0.046875 0.484375 0.046875 1.15625l-0.03125 0.75l-0.015625 0.8125q1.625 -0.203125 1.859375 -0.203125q1.34375 0 1.765625 0.125q0.796875 0.265625 0.796875 1.21875q0 0.578125 -0.359375 0.953125q-0.359375 0.359375 -0.921875 0.359375zm6.341446 -5.390625q-0.625 0 -1.078125 -0.4375q-0.453125 -0.4375 -0.453125 -1.0625q0 -0.625 0.453125 -1.0625q0.453125 -0.453125 1.078125 -0.453125q0.625 0 1.0625 0.453125q0.453125 0.4375 0.453125 1.0625q0 0.625 -0.453125 1.0625q-0.4375 0.4375 -1.0625 0.4375zm0.578125 10.578125q0 0.78125 0.046875 2.34375q0.046875 1.546875 0.046875 2.328125q0 0.578125 -0.359375 0.9375q-0.34375 0.359375 -0.90625 0.359375q-0.5625 0 -0.921875 -0.359375q-0.359375 -0.359375 -0.359375 -0.9375q0 -0.78125 -0.046875 -2.328125q-0.046875 -1.5625 -0.046875 -2.34375q0 -1.21875 0.125 -3.046875q0.140625 -1.84375 0.140625 -3.0625q0 -0.578125 0.359375 -0.9375q0.359375 -0.375 0.90625 -0.375q0.5625 0 0.921875 0.375q0.359375 0.359375 0.359375 0.9375q0 1.21875 -0.140625 3.0625q-0.125 1.828125 -0.125 3.046875zm7.705414 -4.328125l-0.1875 6.46875q0 1.03125 -0.109375 3.03125q-0.125 1.296875 -1.265625 1.296875q-1.28125 0 -1.28125 -1.328125q0 -1.578125 0.140625 -4.734375q0.140625 -3.15625 0.140625 -4.734375q0 -2.046875 0.0625 -4.6875q0.078125 -2.65625 0.078125 -4.71875q0 -1.296875 1.265625 -1.296875q1.296875 0 1.296875 1.296875q0 2.0625 -0.078125 4.71875q-0.0625 2.640625 -0.0625 4.6875zm7.301834 0l-0.1875 6.46875q0 1.03125 -0.109375 3.03125q-0.125 1.296875 -1.265625 1.296875q-1.28125 0 -1.28125 -1.328125q0 -1.578125 0.140625 -4.734375q0.140625 -3.15625 0.140625 -4.734375q0 -2.046875 0.0625 -4.6875q0.078125 -2.65625 0.078125 -4.71875q0 -1.296875 1.265625 -1.296875q1.296875 0 1.296875 1.296875q0 2.0625 -0.078125 4.71875q-0.0625 2.640625 -0.0625 4.6875z" fill-rule="nonzero"/><path fill="#434343" d="m56.463543 201.57175q-1.125 0 -1.265625 -1.21875l-0.359375 -2.859375q-0.1875 -1.515625 -0.1875 -2.84375q0 -0.359375 0.046875 -1.234375q0.046875 -0.875 0.046875 -1.234375q0 -2.8125 -1.046875 -2.8125q-1.453125 0 -2.78125 1.734375q-1.203125 1.5625 -1.875 3.96875q-0.03125 0.515625 -0.125 1.28125q-0.078125 0.65625 -0.078125 1.265625q0 0.390625 0.078125 1.171875q0.078125 0.78125 0.078125 1.171875q0 0.578125 -0.359375 0.9375q-0.34375 0.375 -0.90625 0.375q-0.578125 0 -0.9375 -0.375q-0.34375 -0.359375 -0.34375 -0.9375q0 -0.390625 -0.09375 -1.171875q-0.078125 -0.78125 -0.078125 -1.171875q0 -1.34375 0.1875 -3.71875q0.1875 -2.375 0.1875 -3.71875q0 -0.40625 -0.046875 -1.21875q-0.03125 -0.828125 -0.03125 -1.25q0 -0.5625 0.359375 -0.921875q0.375 -0.359375 0.921875 -0.359375q1.203125 0 1.3125 1.703125l0.046875 1.515625q2.1875 -2.90625 4.484375 -2.90625q2.078125 0 2.90625 1.828125q0.5625 1.21875 0.609375 3.625l0 1.3125l-0.015625 1.203125q0 1.078125 0.28125 2.796875q0.28125 1.703125 0.28125 2.78125q0 0.5625 -0.375 0.921875q-0.359375 0.359375 -0.921875 0.359375zm10.046627 -0.328125q-2.9374962 0 -4.765621 -1.46875q-2.0 -1.625 -2.0 -4.546875q0 -3.390625 1.640625 -5.6875q1.796875 -2.484375 4.765621 -2.484375q2.171875 0 3.53125 0.71875q1.6875 0.90625 1.6875 2.765625q0 1.296875 -1.484375 2.359375q-0.640625 0.46875 -2.75 1.46875l-4.968746 2.34375q0.71875 1.09375 1.796875 1.640625q1.0937462 0.546875 2.5468712 0.546875q0.890625 0 2.109375 -0.34375q1.53125 -0.4375 1.96875 -1.125q0.453125 -0.703125 0.953125 -0.703125q0.453125 0 0.8125 0.34375q0.359375 0.34375 0.359375 0.8125q0 1.4375 -2.328125 2.484375q-1.984375 0.875 -3.875 0.875zm-0.359375 -11.859375q-1.578125 0 -2.6406212 1.234375q-1.046875 1.234375 -1.578125 3.703125l3.9999962 -1.890625q2.359375 -1.15625 3.359375 -2.0q-1.125 -1.046875 -3.140625 -1.046875zm14.963043 11.859375q-2.9375 0 -4.765625 -1.46875q-2.0 -1.625 -2.0 -4.546875q0 -3.390625 1.640625 -5.6875q1.796875 -2.484375 4.765625 -2.484375q2.171875 0 3.53125 0.71875q1.6875 0.90625 1.6875 2.765625q0 1.296875 -1.484375 2.359375q-0.640625 0.46875 -2.75 1.46875l-4.96875 2.34375q0.71875 1.09375 1.796875 1.640625q1.09375 0.546875 2.546875 0.546875q0.890625 0 2.109375 -0.34375q1.53125 -0.4375 1.96875 -1.125q0.453125 -0.703125 0.953125 -0.703125q0.453125 0 0.8125 0.34375q0.359375 0.34375 0.359375 0.8125q0 1.4375 -2.328125 2.484375q-1.984375 0.875 -3.875 0.875zm-0.359375 -11.859375q-1.578125 0 -2.640625 1.234375q-1.046875 1.234375 -1.578125 3.703125l4.0 -1.890625q2.359375 -1.15625 3.359375 -2.0q-1.125 -1.046875 -3.140625 -1.046875zm20.869293 -0.234375q-0.15625 1.921875 -0.15625 3.828125q0 4.34375 0.40625 6.546875q0.015625 0.1875 0.015625 0.3125q0 0.515625 -0.359375 0.84375q-0.359375 0.34375 -0.84375 0.34375q-0.8125 0 -1.1875 -1.171875q-0.9375 0.6875 -1.953125 1.03125q-1.0 0.359375 -2.09375 0.359375q-2.6875 0 -4.46875 -1.796875q-1.8125 -1.828125 -1.8125 -4.703125q0 -3.484375 1.84375 -5.578125q1.84375 -2.09375 4.78125 -2.09375q1.5 0 2.328125 0.46875l1.21875 0.90625q0.1875 -5.484375 0.4375 -7.390625q0.171875 -1.15625 1.1875 -1.15625q1.171875 0 1.171875 1.265625q0 1.8125 -0.515625 7.984375zm-5.78125 0.34375q-2.1875 0 -3.28125 1.296875q-1.09375 1.296875 -1.09375 3.890625q0 1.6875 1.1875 2.90625q1.203125 1.203125 2.796875 1.203125q1.09375 0 1.84375 -0.40625q0.453125 -0.234375 1.453125 -1.078125q0.1875 -0.171875 0.375 -0.40625l-0.03125 -2.25l0 -1.515625l0.03125 -1.53125q-0.5 -1.046875 -1.328125 -1.578125q-0.8125 -0.53125 -1.953125 -0.53125zm26.12358 0.0625q-0.265625 0 -0.640625 -0.015625q-0.375 -0.03125 -0.640625 -0.03125q-0.3125 0 -1.78125 0.1875l0.25 7.703125l0.015625 0.5625l0.015625 0.671875q0.046875 2.84375 -1.375 2.84375q-0.515625 0 -0.90625 -0.34375q-0.375 -0.328125 -0.375 -0.828125q0 -0.5 0.03125 -1.484375q0.046875 -1.0 0.046875 -1.484375l-0.265625 -7.609375q-0.953125 -0.03125 -2.890625 -0.21875q-1.15625 -0.15625 -1.15625 -1.296875q0 -0.5625 0.34375 -0.9375q0.359375 -0.375 0.90625 -0.375l2.734375 0.21875q0 -0.671875 -0.0625 -1.78125q-0.046875 -1.109375 -0.046875 -1.609375q0 -0.546875 0.375 -0.90625q0.375 -0.359375 0.921875 -0.359375q1.171875 0 1.359375 1.921875q0.046875 0.484375 0.046875 1.15625l-0.03125 0.75l-0.015625 0.8125q1.625 -0.203125 1.859375 -0.203125q1.34375 0 1.765625 0.125q0.796875 0.265625 0.796875 1.21875q0 0.578125 -0.359375 0.953125q-0.359375 0.359375 -0.921875 0.359375zm8.732079 11.859375q-2.1875 0 -3.7656326 -1.609375q-1.75 -1.796875 -1.84375 -4.828125q-0.078125 -2.9375 1.484375 -5.1875q1.8281326 -2.640625 5.0781326 -2.640625q2.609375 0 3.9375 2.390625q1.078125 1.921875 1.03125 4.625q-0.03125 2.890625 -1.5 4.9375q-1.671875 2.3125 -4.421875 2.3125zm0.78125 -11.625q-1.90625 -0.015625 -2.984375 1.828125q-0.8437576 1.46875 -0.8437576 3.359375q0 1.890625 1.0312576 2.9375q0.859375 0.875 2.015625 0.875q1.359375 0 2.328125 -0.984375q1.109375 -1.09375 1.171875 -2.96875q0.1875 -5.03125 -2.71875 -5.046875zm17.983597 12.0625q-0.671875 0 -1.140625 -0.46875q-0.46875 -0.46875 -0.46875 -1.140625q0 -0.65625 0.46875 -1.125q0.46875 -0.484375 1.140625 -0.484375q0.671875 0 1.140625 0.484375q0.484375 0.46875 0.484375 1.125q0 0.671875 -0.484375 1.140625q-0.46875 0.46875 -1.140625 0.46875zm6.638031 0q-0.671875 0 -1.140625 -0.46875q-0.46875 -0.46875 -0.46875 -1.140625q0 -0.65625 0.46875 -1.125q0.46875 -0.484375 1.140625 -0.484375q0.671875 0 1.140625 0.484375q0.484375 0.46875 0.484375 1.125q0 0.671875 -0.484375 1.140625q-0.46875 0.46875 -1.140625 0.46875zm6.638031 0q-0.671875 0 -1.140625 -0.46875q-0.46875 -0.46875 -0.46875 -1.140625q0 -0.65625 0.46875 -1.125q0.46875 -0.484375 1.140625 -0.484375q0.671875 0 1.140625 0.484375q0.484375 0.46875 0.484375 1.125q0 0.671875 -0.484375 1.140625q-0.46875 0.46875 -1.140625 0.46875zm10.216156 -14.1875q-0.515625 0 -0.875 -0.328125q-0.34375 -0.34375 -0.34375 -0.859375q0 -1.453125 1.265625 -5.515625q0.28125 -0.875 1.125 -0.875q0.5 0 0.875 0.34375q0.375 0.328125 0.375 0.828125l-0.78125 2.859375q-0.296875 1.140625 -0.46875 2.4375q-0.125 1.109375 -1.171875 1.109375zm-4.46875 0q-0.515625 0 -0.875 -0.328125q-0.34375 -0.34375 -0.34375 -0.859375q0 -1.453125 1.25 -5.515625q0.296875 -0.875 1.125 -0.875q0.515625 0 0.875 0.34375q0.375 0.328125 0.375 0.828125l-0.765625 2.859375q-0.296875 1.140625 -0.46875 2.4375q-0.125 1.109375 -1.171875 1.109375z" fill-rule="nonzero"/><path fill="#000000" fill-opacity="0.0" d="m277.06824 165.13649l208.06299 0" fill-rule="evenodd"/><path stroke="#434343" stroke-width="3.0" stroke-linejoin="round" stroke-linecap="butt" d="m277.06824 165.13649l190.06299 0" fill-rule="evenodd"/><path fill="#434343" stroke="#434343" stroke-width="3.0" stroke-linecap="butt" d="m467.13123 170.09167l13.614288 -4.955185l-13.614288 -4.9552z" fill-rule="evenodd"/><g filter="url(#shadowFilter-p.2)"><use xlink:href="#p.2" transform="matrix(1.0 0.0 0.0 1.0 5.470235989788386 12.887067339238845)"/></g><defs><filter id="shadowFilter-p.2" filterUnits="userSpaceOnUse"><feGaussianBlur in="SourceAlpha" stdDeviation="12.5" result="blur"/><feComponentTransfer in="blur" color-interpolation-filters="sRGB"><feFuncR type="linear" slope="0" intercept="0.0"/><feFuncG type="linear" slope="0" intercept="0.0"/><feFuncB type="linear" slope="0" intercept="0.0"/><feFuncA type="linear" slope="0.45" intercept="0"/></feComponentTransfer></filter></defs><g id="p.2"><path fill="#76a5af" d="m313.1496 88.51748l0 0c0 -11.625755 9.42453 -21.050285 21.050293 -21.050285l84.19864 0l0 0c5.5828857 0 10.937103 2.2177887 14.884796 6.1654816c3.9476929 3.9477005 6.165497 9.301926 6.165497 14.884804l0 142.08841c0 11.625748 -9.42453 21.050293 -21.050293 21.050293l-84.19864 0c-11.625763 0 -21.050293 -9.424545 -21.050293 -21.050293z" fill-rule="evenodd"/><path fill="#000000" d="m330.78378 171.28168l0 -22.90625l8.640625 0q2.28125 0 3.484375 0.21875q1.6875 0.28125 2.828125 1.078125q1.140625 0.78125 1.828125 2.203125q0.703125 1.421875 0.703125 3.125q0 2.921875 -1.859375 4.953125q-1.859375 2.015625 -6.71875 2.015625l-5.875 0l0 9.3125l-3.03125 0zm3.03125 -12.015625l5.921875 0q2.9375 0 4.171875 -1.09375q1.234375 -1.09375 1.234375 -3.078125q0 -1.4375 -0.734375 -2.453125q-0.71875 -1.03125 -1.90625 -1.359375q-0.765625 -0.203125 -2.828125 -0.203125l-5.859375 0l0 8.1875zm28.78125 9.96875q-1.5625 1.328125 -3.015625 1.875q-1.4375 0.546875 -3.09375 0.546875q-2.734375 0 -4.203125 -1.328125q-1.46875 -1.34375 -1.46875 -3.421875q0 -1.21875 0.546875 -2.21875q0.5625 -1.015625 1.453125 -1.625q0.90625 -0.609375 2.03125 -0.921875q0.828125 -0.21875 2.5 -0.421875q3.40625 -0.40625 5.015625 -0.96875q0.015625 -0.578125 0.015625 -0.734375q0 -1.71875 -0.796875 -2.421875q-1.078125 -0.953125 -3.203125 -0.953125q-1.984375 0 -2.9375 0.703125q-0.9375 0.6875 -1.390625 2.453125l-2.75 -0.375q0.375 -1.765625 1.234375 -2.84375q0.859375 -1.09375 2.484375 -1.671875q1.625 -0.59375 3.765625 -0.59375q2.125 0 3.453125 0.5q1.328125 0.5 1.953125 1.265625q0.625 0.75 0.875 1.90625q0.140625 0.71875 0.140625 2.59375l0 3.75q0 3.921875 0.171875 4.96875q0.1875 1.03125 0.71875 1.984375l-2.9375 0q-0.4375 -0.875 -0.5625 -2.046875zm-0.234375 -6.28125q-1.53125 0.625 -4.59375 1.0625q-1.734375 0.25 -2.453125 0.5625q-0.71875 0.3125 -1.109375 0.921875q-0.390625 0.59375 -0.390625 1.328125q0 1.125 0.84375 1.875q0.859375 0.75 2.5 0.75q1.625 0 2.890625 -0.703125q1.265625 -0.71875 1.859375 -1.953125q0.453125 -0.953125 0.453125 -2.8125l0 -1.03125zm7.171875 8.328125l0 -16.59375l2.53125 0l0 2.515625q0.96875 -1.765625 1.78125 -2.328125q0.828125 -0.5625 1.8125 -0.5625q1.421875 0 2.890625 0.90625l-0.96875 2.609375q-1.03125 -0.609375 -2.0625 -0.609375q-0.921875 0 -1.65625 0.5625q-0.734375 0.546875 -1.046875 1.53125q-0.46875 1.5 -0.46875 3.28125l0 8.6875l-2.8125 0zm9.5625 -4.953125l2.78125 -0.4375q0.234375 1.671875 1.296875 2.5625q1.078125 0.890625 3.0 0.890625q1.9375 0 2.875 -0.78125q0.9375 -0.796875 0.9375 -1.859375q0 -0.953125 -0.828125 -1.5q-0.578125 -0.375 -2.875 -0.953125q-3.09375 -0.78125 -4.296875 -1.34375q-1.1875 -0.578125 -1.8125 -1.578125q-0.609375 -1.015625 -0.609375 -2.234375q0 -1.109375 0.5 -2.046875q0.515625 -0.953125 1.390625 -1.578125q0.65625 -0.484375 1.78125 -0.8125q1.140625 -0.34375 2.4375 -0.34375q1.953125 0 3.421875 0.5625q1.484375 0.5625 2.1875 1.53125q0.703125 0.953125 0.96875 2.5625l-2.75 0.375q-0.1875 -1.28125 -1.09375 -2.0q-0.890625 -0.71875 -2.53125 -0.71875q-1.9375 0 -2.765625 0.640625q-0.828125 0.640625 -0.828125 1.5q0 0.546875 0.34375 0.984375q0.34375 0.453125 1.078125 0.75q0.421875 0.15625 2.484375 0.71875q2.984375 0.796875 4.15625 1.3125q1.1875 0.5 1.859375 1.46875q0.671875 0.96875 0.671875 2.40625q0 1.40625 -0.828125 2.65625q-0.8125 1.234375 -2.359375 1.921875q-1.546875 0.671875 -3.5 0.671875q-3.234375 0 -4.9375 -1.34375q-1.6875 -1.34375 -2.15625 -3.984375zm28.484375 -0.390625l2.90625 0.359375q-0.6875 2.546875 -2.546875 3.953125q-1.859375 1.40625 -4.75 1.40625q-3.640625 0 -5.78125 -2.234375q-2.125 -2.25 -2.125 -6.296875q0 -4.1875 2.15625 -6.5q2.15625 -2.3125 5.59375 -2.3125q3.328125 0 5.4375 2.265625q2.109375 2.265625 2.109375 6.375q0 0.25 -0.015625 0.75l-12.375 0q0.15625 2.734375 1.546875 4.1875q1.390625 1.453125 3.46875 1.453125q1.546875 0 2.640625 -0.8125q1.09375 -0.8125 1.734375 -2.59375zm-9.234375 -4.546875l9.265625 0q-0.1875 -2.09375 -1.0625 -3.140625q-1.34375 -1.625 -3.484375 -1.625q-1.9375 0 -3.265625 1.296875q-1.3125 1.296875 -1.453125 3.46875zm15.640625 9.890625l0 -16.59375l2.53125 0l0 2.515625q0.96875 -1.765625 1.78125 -2.328125q0.828125 -0.5625 1.8125 -0.5625q1.421875 0 2.890625 0.90625l-0.96875 2.609375q-1.03125 -0.609375 -2.0625 -0.609375q-0.921875 0 -1.65625 0.5625q-0.734375 0.546875 -1.046875 1.53125q-0.46875 1.5 -0.46875 3.28125l0 8.6875l-2.8125 0z" fill-rule="nonzero"/></g><g filter="url(#shadowFilter-p.3)"><use xlink:href="#p.3" transform="matrix(1.0 0.0 0.0 1.0 5.470235989788386 12.887067339238845)"/></g><defs><filter id="shadowFilter-p.3" filterUnits="userSpaceOnUse"><feGaussianBlur in="SourceAlpha" stdDeviation="12.5" result="blur"/><feComponentTransfer in="blur" color-interpolation-filters="sRGB"><feFuncR type="linear" slope="0" intercept="0.0"/><feFuncG type="linear" slope="0" intercept="0.0"/><feFuncB type="linear" slope="0" intercept="0.0"/><feFuncA type="linear" slope="0.45" intercept="0"/></feComponentTransfer></filter></defs><g id="p.3"><path fill="#ffffff" d="m495.1496 125.394165l0 0c0 -12.8927 10.451599 -23.3443 23.3443 -23.3443l172.08307 0c6.191284 0 12.129028 2.459488 16.506897 6.837387c4.3779297 4.377907 6.8374023 10.31562 6.8374023 16.506912l0 93.37439c0 12.8927 -10.451599 23.3443 -23.3443 23.3443l-172.08307 0c-12.8927 0 -23.3443 -10.451599 -23.3443 -23.3443z" fill-rule="evenodd"/><path stroke="#000000" stroke-width="1.0" stroke-linejoin="round" stroke-linecap="butt" d="m495.1496 125.394165l0 0c0 -12.8927 10.451599 -23.3443 23.3443 -23.3443l172.08307 0c6.191284 0 12.129028 2.459488 16.506897 6.837387c4.3779297 4.377907 6.8374023 10.31562 6.8374023 16.506912l0 93.37439c0 12.8927 -10.451599 23.3443 -23.3443 23.3443l-172.08307 0c-12.8927 0 -23.3443 -10.451599 -23.3443 -23.3443z" fill-rule="evenodd"/></g><path fill="#000000" fill-opacity="0.0" d="m521.07086 107.62467l180.18896 0l0 115.02363l-180.18896 0z" fill-rule="evenodd"/><path fill="#434343" d="m544.36774 130.37592l0 -0.4375q0 -0.46875 0.171875 -0.671875q0.1875 -0.203125 0.484375 -0.203125q0.296875 0 0.46875 0.203125q0.1875 0.203125 0.1875 0.671875l0 3.34375q0 0.46875 -0.1875 0.671875q-0.171875 0.203125 -0.46875 0.203125q-0.28125 0 -0.46875 -0.1875q-0.171875 -0.1875 -0.1875 -0.609375q-0.078125 -1.3125 -1.359375 -2.359375q-1.265625 -1.046875 -3.328125 -1.046875q-2.171875 0 -3.453125 1.125q-1.28125 1.109375 -1.28125 2.625q0 0.78125 0.359375 1.421875q0.359375 0.640625 0.953125 1.046875q0.59375 0.390625 1.34375 0.640625q0.75 0.234375 2.34375 0.5q2.671875 0.4375 3.6875 0.890625q1.359375 0.609375 2.046875 1.6875q0.703125 1.078125 0.703125 2.546875q0 2.25 -1.796875 3.84375q-1.796875 1.578125 -4.84375 1.578125q-3.421875 0 -5.46875 -2.140625l0 0.75q0 0.46875 -0.1875 0.671875q-0.171875 0.203125 -0.46875 0.203125q-0.28125 0 -0.46875 -0.203125q-0.1875 -0.203125 -0.1875 -0.671875l0 -3.625q0 -0.484375 0.171875 -0.6875q0.1875 -0.203125 0.484375 -0.203125q0.28125 0 0.453125 0.1875q0.1875 0.1875 0.203125 0.609375q0.078125 1.4375 1.53125 2.625q1.46875 1.171875 3.9375 1.171875q2.46875 0 3.890625 -1.234375q1.4375 -1.234375 1.4375 -2.921875q0 -1.03125 -0.546875 -1.828125q-0.546875 -0.8125 -1.625 -1.28125q-0.75 -0.328125 -3.125 -0.734375q-3.265625 -0.546875 -4.703125 -1.671875q-1.4375 -1.125 -1.4375 -3.203125q0 -2.0625 1.640625 -3.546875q1.65625 -1.484375 4.359375 -1.484375q2.75 0 4.734375 1.734375zm10.234375 8.140625l0 7.515625l10.09375 0l0 -3.875q0 -0.46875 0.171875 -0.671875q0.1875 -0.203125 0.484375 -0.203125q0.296875 0 0.46875 0.203125q0.1875 0.203125 0.1875 0.671875l0 5.1875l-14.484375 0q-0.46875 0 -0.671875 -0.1875q-0.203125 -0.1875 -0.203125 -0.46875q0 -0.296875 0.203125 -0.46875q0.203125 -0.1875 0.671875 -0.1875l1.765625 0l0 -15.65625l-1.765625 0q-0.46875 0 -0.671875 -0.171875q-0.203125 -0.1875 -0.203125 -0.484375q0 -0.296875 0.203125 -0.46875q0.203125 -0.1875 0.671875 -0.1875l13.796875 0l0 4.515625q0 0.46875 -0.1875 0.671875q-0.171875 0.203125 -0.46875 0.203125q-0.296875 0 -0.484375 -0.203125q-0.171875 -0.203125 -0.171875 -0.671875l0 -3.203125l-9.40625 0l0 6.828125l4.703125 0l0 -1.484375q0 -0.46875 0.1875 -0.671875q0.1875 -0.203125 0.484375 -0.203125q0.28125 0 0.46875 0.203125q0.1875 0.203125 0.1875 0.671875l0 4.28125q0 0.46875 -0.1875 0.671875q-0.1875 0.203125 -0.46875 0.203125q-0.296875 0 -0.484375 -0.203125q-0.1875 -0.203125 -0.1875 -0.671875l0 -1.484375l-4.703125 0zm21.203125 -8.140625l0 15.65625l8.71875 0l0 -5.21875q0 -0.46875 0.1875 -0.671875q0.1875 -0.203125 0.484375 -0.203125q0.28125 0 0.46875 0.203125q0.1875 0.1875 0.1875 0.671875l0 6.53125l-14.5 0q-0.46875 0 -0.671875 -0.1875q-0.203125 -0.1875 -0.203125 -0.46875q0 -0.296875 0.203125 -0.46875q0.203125 -0.1875 0.671875 -0.1875l3.125 0l0 -15.65625l-3.125 0q-0.46875 0 -0.671875 -0.171875q-0.203125 -0.1875 -0.203125 -0.484375q0 -0.296875 0.203125 -0.46875q0.203125 -0.1875 0.671875 -0.1875l7.578125 0q0.46875 0 0.671875 0.1875q0.203125 0.171875 0.203125 0.46875q0 0.296875 -0.203125 0.484375q-0.203125 0.171875 -0.671875 0.171875l-3.125 0zm17.203125 8.140625l0 7.515625l10.09375 0l0 -3.875q0 -0.46875 0.171875 -0.671875q0.1875 -0.203125 0.484375 -0.203125q0.296875 0 0.46875 0.203125q0.1875 0.203125 0.1875 0.671875l0 5.1875l-14.484375 0q-0.46875 0 -0.671875 -0.1875q-0.203125 -0.1875 -0.203125 -0.46875q0 -0.296875 0.203125 -0.46875q0.203125 -0.1875 0.671875 -0.1875l1.765625 0l0 -15.65625l-1.765625 0q-0.46875 0 -0.671875 -0.171875q-0.203125 -0.1875 -0.203125 -0.484375q0 -0.296875 0.203125 -0.46875q0.203125 -0.1875 0.671875 -0.1875l13.796875 0l0 4.515625q0 0.46875 -0.1875 0.671875q-0.171875 0.203125 -0.46875 0.203125q-0.296875 0 -0.484375 -0.203125q-0.171875 -0.203125 -0.171875 -0.671875l0 -3.203125l-9.40625 0l0 6.828125l4.703125 0l0 -1.484375q0 -0.46875 0.1875 -0.671875q0.1875 -0.203125 0.484375 -0.203125q0.28125 0 0.46875 0.203125q0.1875 0.203125 0.1875 0.671875l0 4.28125q0 0.46875 -0.1875 0.671875q-0.1875 0.203125 -0.46875 0.203125q-0.296875 0 -0.484375 -0.203125q-0.1875 -0.203125 -0.1875 -0.671875l0 -1.484375l-4.703125 0zm29.25 -7.65625l0 -0.921875q0 -0.46875 0.171875 -0.671875q0.1875 -0.203125 0.484375 -0.203125q0.296875 0 0.46875 0.203125q0.1875 0.203125 0.1875 0.671875l0 3.640625q0 0.484375 -0.1875 0.6875q-0.171875 0.203125 -0.46875 0.203125q-0.265625 0 -0.453125 -0.1875q-0.171875 -0.1875 -0.203125 -0.609375q-0.078125 -1.3125 -1.421875 -2.328125q-1.8125 -1.390625 -4.125 -1.390625q-1.515625 0 -2.859375 0.671875q-1.0 0.484375 -1.59375 1.1875q-1.03125 1.21875 -1.640625 2.703125q-0.4375 1.09375 -0.4375 2.46875l0 2.296875q0 2.9375 2.125 5.109375q2.125 2.15625 4.9375 2.15625q1.6875 0 3.015625 -0.734375q1.34375 -0.734375 2.59375 -2.21875q0.265625 -0.328125 0.59375 -0.328125q0.28125 0 0.453125 0.171875q0.171875 0.171875 0.171875 0.4375q0 0.359375 -0.671875 1.09375q-1.28125 1.4375 -2.890625 2.171875q-1.59375 0.71875 -3.234375 0.71875q-1.421875 0 -2.890625 -0.546875q-1.125 -0.421875 -1.859375 -0.984375q-0.734375 -0.5625 -1.8125 -1.890625q-1.0625 -1.34375 -1.453125 -2.46875q-0.390625 -1.140625 -0.390625 -2.5l0 -2.671875q0 -1.9375 1.03125 -3.953125q1.046875 -2.03125 2.84375 -3.109375q1.8125 -1.09375 3.921875 -1.09375q3.25 0 5.59375 2.21875zm14.078125 -0.484375l0 15.65625l3.40625 0q0.46875 0 0.671875 0.1875q0.203125 0.171875 0.203125 0.46875q0 0.28125 -0.203125 0.46875q-0.203125 0.1875 -0.671875 0.1875l-8.140625 0q-0.46875 0 -0.671875 -0.1875q-0.203125 -0.1875 -0.203125 -0.46875q0 -0.296875 0.203125 -0.46875q0.203125 -0.1875 0.671875 -0.1875l3.40625 0l0 -15.65625l-5.375 0l0 4.546875q0 0.484375 -0.1875 0.6875q-0.171875 0.203125 -0.46875 0.203125q-0.28125 0 -0.46875 -0.203125q-0.1875 -0.203125 -0.1875 -0.6875l0 -5.859375l14.703125 0l0 5.859375q0 0.484375 -0.1875 0.6875q-0.171875 0.203125 -0.46875 0.203125q-0.296875 0 -0.484375 -0.203125q-0.171875 -0.203125 -0.171875 -0.6875l0 -4.546875l-5.375 0z" fill-rule="nonzero"/><path fill="#434343" d="m545.44586 168.86029l0 -0.921875q0 -0.46875 0.171875 -0.671875q0.1875 -0.203125 0.484375 -0.203125q0.296875 0 0.46875 0.203125q0.1875 0.203125 0.1875 0.671875l0 3.640625q0 0.484375 -0.1875 0.6875q-0.171875 0.203125 -0.46875 0.203125q-0.265625 0 -0.453125 -0.1875q-0.171875 -0.1875 -0.203125 -0.609375q-0.078125 -1.3125 -1.421875 -2.328125q-1.8125 -1.390625 -4.125 -1.390625q-1.515625 0 -2.859375 0.671875q-1.0 0.484375 -1.59375 1.1875q-1.03125 1.21875 -1.640625 2.703125q-0.4375 1.09375 -0.4375 2.46875l0 2.296875q0 2.9375 2.125 5.109375q2.125 2.15625 4.9375 2.15625q1.6875 0 3.015625 -0.734375q1.34375 -0.734375 2.59375 -2.21875q0.265625 -0.328125 0.59375 -0.328125q0.28125 0 0.453125 0.171875q0.171875 0.171875 0.171875 0.4375q0 0.359375 -0.671875 1.09375q-1.28125 1.4375 -2.890625 2.171875q-1.59375 0.71875 -3.234375 0.71875q-1.421875 0 -2.890625 -0.546875q-1.125 -0.421875 -1.859375 -0.984375q-0.734375 -0.5625 -1.8125 -1.890625q-1.0625 -1.34375 -1.453125 -2.46875q-0.390625 -1.140625 -0.390625 -2.5l0 -2.671875q0 -1.9375 1.03125 -3.953125q1.046875 -2.03125 2.84375 -3.109375q1.8125 -1.09375 3.921875 -1.09375q3.25 0 5.59375 2.21875zm21.453125 7.390625q0 2.625 -1.0625 4.875q-1.0625 2.234375 -2.9375 3.484375q-1.859375 1.25 -4.0 1.25q-3.171875 0 -5.59375 -2.6875q-2.40625 -2.703125 -2.40625 -6.921875q0 -4.234375 2.40625 -6.921875q2.421875 -2.6875 5.59375 -2.6875q2.140625 0 4.0 1.25q1.859375 1.25 2.921875 3.484375q1.078125 2.234375 1.078125 4.875zm-1.328125 0q0 -3.203125 -1.859375 -5.75q-1.859375 -2.546875 -4.8125 -2.546875q-2.765625 0 -4.734375 2.4375q-1.953125 2.421875 -1.953125 5.859375q0 3.65625 2.046875 5.984375q2.0625 2.3125 4.640625 2.3125q2.953125 0 4.8125 -2.53125q1.859375 -2.546875 1.859375 -5.765625zm18.859375 -7.875l0 10.96875q0 2.765625 -1.84375 4.640625q-1.84375 1.875 -4.453125 1.875q-1.75 0 -3.109375 -0.765625q-1.359375 -0.765625 -2.3125 -2.3125q-0.953125 -1.5625 -0.953125 -3.4375l0 -10.96875l-1.109375 0q-0.46875 0 -0.671875 -0.171875q-0.203125 -0.1875 -0.203125 -0.484375q0 -0.296875 0.21875 -0.5q0.1875 -0.15625 0.65625 -0.15625l4.84375 0q0.46875 0 0.671875 0.1875q0.203125 0.171875 0.203125 0.46875q0 0.296875 -0.203125 0.484375q-0.203125 0.171875 -0.671875 0.171875l-2.421875 0l0 10.96875q0 2.171875 1.484375 3.6875q1.484375 1.515625 3.515625 1.515625q1.296875 0 2.359375 -0.59375q1.078125 -0.59375 1.875 -1.828125q0.8125 -1.234375 0.8125 -2.78125l0 -10.96875l-2.421875 0q-0.46875 0 -0.671875 -0.171875q-0.203125 -0.1875 -0.203125 -0.484375q0 -0.296875 0.203125 -0.46875q0.203125 -0.1875 0.671875 -0.1875l4.84375 0q0.46875 0 0.671875 0.1875q0.203125 0.171875 0.203125 0.46875q0 0.296875 -0.203125 0.484375q-0.203125 0.171875 -0.671875 0.171875l-1.109375 0zm19.28125 16.96875l-1.6875 0l-9.671875 -16.359375l0 15.046875l2.421875 0q0.484375 0 0.6875 0.1875q0.203125 0.171875 0.203125 0.46875q0 0.28125 -0.203125 0.46875q-0.203125 0.1875 -0.6875 0.1875l-4.828125 0q-0.484375 0 -0.6875 -0.1875q-0.203125 -0.1875 -0.203125 -0.46875q0 -0.296875 0.203125 -0.46875q0.203125 -0.1875 0.6875 -0.1875l1.09375 0l0 -15.65625l-1.765625 0q-0.46875 0 -0.671875 -0.171875q-0.203125 -0.1875 -0.203125 -0.484375q0 -0.296875 0.203125 -0.46875q0.203125 -0.1875 0.671875 -0.1875l3.4375 0l9.6875 16.390625l0 -15.078125l-2.421875 0q-0.46875 0 -0.671875 -0.171875q-0.203125 -0.1875 -0.203125 -0.484375q0 -0.296875 0.1875 -0.46875q0.203125 -0.1875 0.6875 -0.1875l4.84375 0q0.46875 0 0.671875 0.1875q0.203125 0.171875 0.203125 0.46875q0 0.296875 -0.203125 0.484375q-0.203125 0.171875 -0.671875 0.171875l-1.109375 0l0 16.96875zm13.421875 -16.96875l0 15.65625l3.40625 0q0.46875 0 0.671875 0.1875q0.203125 0.171875 0.203125 0.46875q0 0.28125 -0.203125 0.46875q-0.203125 0.1875 -0.671875 0.1875l-8.140625 0q-0.46875 0 -0.671875 -0.1875q-0.203125 -0.1875 -0.203125 -0.46875q0 -0.296875 0.203125 -0.46875q0.203125 -0.1875 0.671875 -0.1875l3.40625 0l0 -15.65625l-5.375 0l0 4.546875q0 0.484375 -0.1875 0.6875q-0.171875 0.203125 -0.46875 0.203125q-0.28125 0 -0.46875 -0.203125q-0.1875 -0.203125 -0.1875 -0.6875l0 -5.859375l14.703125 0l0 5.859375q0 0.484375 -0.1875 0.6875q-0.171875 0.203125 -0.46875 0.203125q-0.296875 0 -0.484375 -0.203125q-0.171875 -0.203125 -0.171875 -0.6875l0 -4.546875l-5.375 0zm18.40625 9.1875q0 -1.796875 0.46875 -3.8125q0.46875 -2.015625 1.796875 -4.65625q1.328125 -2.640625 1.9375 -3.1875q0.1875 -0.171875 0.40625 -0.171875q0.28125 0 0.46875 0.1875q0.203125 0.1875 0.203125 0.453125q0 0.15625 -0.109375 0.34375q-1.71875 3.15625 -2.453125 5.71875q-0.734375 2.5625 -0.734375 5.125q0 2.578125 0.734375 5.140625q0.734375 2.5625 2.453125 5.703125q0.109375 0.1875 0.109375 0.34375q0 0.265625 -0.203125 0.453125q-0.1875 0.203125 -0.46875 0.203125q-0.21875 0 -0.40625 -0.171875q-0.578125 -0.53125 -1.890625 -3.109375q-1.3125 -2.578125 -1.8125 -4.5625q-0.5 -1.984375 -0.5 -4.0zm18.625 -6.453125l0 -4.484375q0 -0.484375 0.1875 -0.6875q0.1875 -0.203125 0.484375 -0.203125q0.28125 0 0.46875 0.203125q0.1875 0.203125 0.1875 0.6875l0 4.484375l4.265625 -1.390625q0.296875 -0.09375 0.453125 -0.09375q0.25 0 0.4375 0.203125q0.1875 0.1875 0.1875 0.453125q0 0.234375 -0.140625 0.40625q-0.125 0.171875 -0.53125 0.296875l-4.265625 1.390625l2.640625 3.625q0.25 0.359375 0.25 0.5625q0 0.28125 -0.203125 0.484375q-0.1875 0.1875 -0.453125 0.1875q-0.34375 0 -0.671875 -0.453125l-2.640625 -3.640625l-2.640625 3.640625q-0.328125 0.453125 -0.65625 0.453125q-0.28125 0 -0.484375 -0.1875q-0.1875 -0.203125 -0.1875 -0.484375q0 -0.203125 0.265625 -0.5625l2.640625 -3.625l-4.28125 -1.40625q-0.390625 -0.125 -0.53125 -0.28125q-0.125 -0.171875 -0.125 -0.40625q0 -0.265625 0.1875 -0.453125q0.1875 -0.203125 0.421875 -0.203125q0.171875 0 0.46875 0.09375l4.265625 1.390625zm20.3125 6.46875q0 1.796875 -0.46875 3.8125q-0.46875 2.0 -1.796875 4.640625q-1.328125 2.65625 -1.9375 3.1875q-0.1875 0.1875 -0.40625 0.1875q-0.28125 0 -0.484375 -0.203125q-0.1875 -0.1875 -0.1875 -0.453125q0 -0.15625 0.109375 -0.34375q1.71875 -3.140625 2.453125 -5.703125q0.734375 -2.5625 0.734375 -5.125q0 -2.578125 -0.734375 -5.140625q-0.734375 -2.5625 -2.453125 -5.71875q-0.109375 -0.1875 -0.109375 -0.34375q0 -0.265625 0.1875 -0.453125q0.203125 -0.1875 0.484375 -0.1875q0.21875 0 0.40625 0.171875q0.578125 0.53125 1.890625 3.109375q1.3125 2.578125 1.8125 4.5625q0.5 1.984375 0.5 4.0z" fill-rule="nonzero"/><path fill="#434343" d="m536.50836 214.51654l0 7.515625l4.5 0q0.46875 0 0.671875 0.1875q0.203125 0.171875 0.203125 0.46875q0 0.28125 -0.203125 0.46875q-0.203125 0.1875 -0.671875 0.1875l-7.578125 0q-0.46875 0 -0.671875 -0.1875q-0.203125 -0.1875 -0.203125 -0.46875q0 -0.296875 0.203125 -0.46875q0.203125 -0.1875 0.671875 -0.1875l1.765625 0l0 -15.65625l-1.765625 0q-0.46875 0 -0.671875 -0.171875q-0.203125 -0.1875 -0.203125 -0.484375q0 -0.296875 0.234375 -0.5q0.171875 -0.15625 0.640625 -0.15625l14.453125 0l0 4.515625q0 0.46875 -0.1875 0.671875q-0.1875 0.203125 -0.46875 0.203125q-0.296875 0 -0.484375 -0.203125q-0.1875 -0.203125 -0.1875 -0.671875l0 -3.203125l-10.046875 0l0 6.828125l4.703125 0l0 -1.484375q0 -0.46875 0.1875 -0.671875q0.1875 -0.203125 0.484375 -0.203125q0.28125 0 0.46875 0.203125q0.1875 0.203125 0.1875 0.671875l0 4.28125q0 0.46875 -0.1875 0.671875q-0.1875 0.203125 -0.46875 0.203125q-0.296875 0 -0.484375 -0.203125q-0.1875 -0.203125 -0.1875 -0.671875l0 -1.484375l-4.703125 0zm18.09375 0.671875l0 6.84375l2.421875 0q0.484375 0 0.6875 0.1875q0.203125 0.171875 0.203125 0.46875q0 0.28125 -0.203125 0.46875q-0.203125 0.1875 -0.6875 0.1875l-5.5 0q-0.46875 0 -0.671875 -0.1875q-0.203125 -0.1875 -0.203125 -0.46875q0 -0.296875 0.203125 -0.46875q0.203125 -0.1875 0.671875 -0.1875l1.765625 0l0 -15.65625l-1.765625 0q-0.46875 0 -0.671875 -0.171875q-0.203125 -0.1875 -0.203125 -0.484375q0 -0.296875 0.203125 -0.46875q0.203125 -0.1875 0.671875 -0.1875l7.9375 0q2.453125 0 4.125 1.5625q1.6875 1.546875 1.6875 3.5q0 1.40625 -1.046875 2.65625q-1.03125 1.234375 -3.46875 2.0625q1.40625 0.96875 2.40625 2.1875q1.0 1.21875 3.203125 5.0l1.0 0q0.46875 0 0.671875 0.1875q0.203125 0.171875 0.203125 0.46875q0 0.28125 -0.203125 0.46875q-0.203125 0.1875 -0.671875 0.1875l-1.75 0q-2.4375 -4.359375 -3.78125 -5.84375q-1.328125 -1.484375 -3.0625 -2.3125l-4.171875 0zm0 -1.3125l3.578125 0q1.71875 0 3.109375 -0.625q1.40625 -0.625 2.03125 -1.46875q0.640625 -0.84375 0.640625 -1.71875q0 -1.3125 -1.328125 -2.5q-1.3125 -1.1875 -3.203125 -1.1875l-4.828125 0l0 7.5zm31.5 0.375q0 2.625 -1.0625 4.875q-1.0625 2.234375 -2.9375 3.484375q-1.859375 1.25 -4.0 1.25q-3.171875 0 -5.59375 -2.6875q-2.40625 -2.703125 -2.40625 -6.921875q0 -4.234375 2.40625 -6.921875q2.421875 -2.6875 5.59375 -2.6875q2.140625 0 4.0 1.25q1.859375 1.25 2.921875 3.484375q1.078125 2.234375 1.078125 4.875zm-1.328125 0q0 -3.203125 -1.859375 -5.75q-1.859375 -2.546875 -4.8125 -2.546875q-2.765625 0 -4.734375 2.4375q-1.953125 2.421875 -1.953125 5.859375q0 3.65625 2.046875 5.984375q2.0625 2.3125 4.640625 2.3125q2.953125 0 4.8125 -2.53125q1.859375 -2.546875 1.859375 -5.765625zm13.375 3.609375l-1.5 0l-5.046875 -11.484375l-0.25 0l0 15.65625l2.421875 0q0.46875 0 0.671875 0.1875q0.203125 0.171875 0.203125 0.46875q0 0.28125 -0.203125 0.46875q-0.203125 0.1875 -0.671875 0.1875l-4.84375 0q-0.46875 0 -0.671875 -0.1875q-0.203125 -0.1875 -0.203125 -0.46875q0 -0.296875 0.203125 -0.46875q0.203125 -0.1875 0.671875 -0.1875l1.109375 0l0 -15.65625l-0.828125 0q-0.46875 0 -0.671875 -0.171875q-0.203125 -0.1875 -0.203125 -0.484375q0 -0.296875 0.203125 -0.46875q0.203125 -0.1875 0.671875 -0.1875l3.21875 0l4.96875 11.3125l4.890625 -11.3125l3.21875 0q0.484375 0 0.6875 0.1875q0.203125 0.171875 0.203125 0.46875q0 0.296875 -0.203125 0.484375q-0.203125 0.171875 -0.6875 0.171875l-0.8125 0l0 15.65625l1.09375 0q0.484375 0 0.6875 0.1875q0.203125 0.171875 0.203125 0.46875q0 0.28125 -0.203125 0.46875q-0.203125 0.1875 -0.6875 0.1875l-4.828125 0q-0.46875 0 -0.6875 -0.1875q-0.203125 -0.1875 -0.203125 -0.46875q0 -0.296875 0.203125 -0.46875q0.203125 -0.1875 0.6875 -0.1875l2.421875 0l0 -15.65625l-0.28125 0l-4.953125 11.484375zm37.265625 1.71875l0.5625 0q0.875 0 1.5 0.625q0.625 0.609375 0.625 1.484375q0 0.90625 -0.640625 1.515625q-0.625 0.609375 -1.484375 0.609375l-0.5625 0q-0.875 0 -1.5 -0.609375q-0.625 -0.625 -0.625 -1.5q0 -0.90625 0.625 -1.515625q0.640625 -0.609375 1.5 -0.609375zm19.203125 0l0.5625 0q0.875 0 1.5 0.625q0.625 0.609375 0.625 1.484375q0 0.90625 -0.640625 1.515625q-0.625 0.609375 -1.484375 0.609375l-0.5625 0q-0.875 0 -1.5 -0.609375q-0.625 -0.625 -0.625 -1.5q0 -0.90625 0.625 -1.515625q0.640625 -0.609375 1.5 -0.609375zm19.203125 0l0.5625 0q0.875 0 1.5 0.625q0.625 0.609375 0.625 1.484375q0 0.90625 -0.640625 1.515625q-0.625 0.609375 -1.484375 0.609375l-0.5625 0q-0.875 0 -1.5 -0.609375q-0.625 -0.625 -0.625 -1.5q0 -0.90625 0.625 -1.515625q0.640625 -0.609375 1.5 -0.609375z" fill-rule="nonzero"/><path fill="#000000" fill-opacity="0.0" d="m737.19946 165.13649l252.0 0" fill-rule="evenodd"/><path stroke="#434343" stroke-width="3.0" stroke-linejoin="round" stroke-linecap="butt" d="m737.19946 165.13649l234.0 0" fill-rule="evenodd"/><path fill="#434343" stroke="#434343" stroke-width="3.0" stroke-linecap="butt" d="m971.19946 170.09167l13.614319 -4.955185l-13.614319 -4.9552z" fill-rule="evenodd"/><g filter="url(#shadowFilter-p.4)"><use xlink:href="#p.4" transform="matrix(1.0 0.0 0.0 1.0 5.470235989788386 12.887067339238845)"/></g><defs><filter id="shadowFilter-p.4" filterUnits="userSpaceOnUse"><feGaussianBlur in="SourceAlpha" stdDeviation="12.5" result="blur"/><feComponentTransfer in="blur" color-interpolation-filters="sRGB"><feFuncR type="linear" slope="0" intercept="0.0"/><feFuncG type="linear" slope="0" intercept="0.0"/><feFuncB type="linear" slope="0" intercept="0.0"/><feFuncA type="linear" slope="0.45" intercept="0"/></feComponentTransfer></filter></defs><g id="p.4"><path fill="#f6b26b" d="m777.2966 94.402115l0 0c0 -14.875748 12.059204 -26.934921 26.934937 -26.934921l107.73645 0l0 0c7.1436157 0 13.994568 2.8377762 19.045898 7.8890533c5.0512695 5.051277 7.889038 11.902283 7.889038 19.045868l0 130.31914c0 14.875748 -12.059204 26.934921 -26.934937 26.934921l-107.73645 0c-14.875732 0 -26.934937 -12.059174 -26.934937 -26.934921z" fill-rule="evenodd"/><path fill="#000000" d="m827.5216 144.9223l2.859375 -0.25q0.203125 1.71875 0.9375 2.828125q0.75 1.09375 2.3125 1.78125q1.5625 0.671875 3.515625 0.671875q1.734375 0 3.0625 -0.515625q1.328125 -0.515625 1.96875 -1.40625q0.65625 -0.90625 0.65625 -1.96875q0 -1.078125 -0.625 -1.875q-0.625 -0.8125 -2.0625 -1.359375q-0.921875 -0.359375 -4.078125 -1.109375q-3.15625 -0.765625 -4.421875 -1.4375q-1.640625 -0.859375 -2.453125 -2.125q-0.796875 -1.28125 -0.796875 -2.859375q0 -1.734375 0.984375 -3.234375q0.984375 -1.515625 2.875 -2.296875q1.890625 -0.78125 4.203125 -0.78125q2.546875 0 4.484375 0.828125q1.953125 0.8125 3.0 2.40625q1.046875 1.59375 1.125 3.609375l-2.90625 0.21875q-0.234375 -2.171875 -1.59375 -3.28125q-1.34375 -1.109375 -3.984375 -1.109375q-2.75 0 -4.015625 1.015625q-1.25 1.0 -1.25 2.421875q0 1.234375 0.890625 2.03125q0.875 0.796875 4.5625 1.640625q3.703125 0.828125 5.078125 1.453125q2.0 0.921875 2.953125 2.34375q0.953125 1.40625 0.953125 3.25q0 1.828125 -1.046875 3.453125q-1.046875 1.609375 -3.015625 2.515625q-1.953125 0.890625 -4.40625 0.890625q-3.109375 0 -5.21875 -0.90625q-2.09375 -0.90625 -3.296875 -2.71875q-1.1875 -1.828125 -1.25 -4.125zm39.734375 4.90625q2.109375 1.453125 3.890625 2.125l-0.890625 2.109375q-2.46875 -0.890625 -4.921875 -2.8125q-2.546875 1.421875 -5.625 1.421875q-3.109375 0 -5.640625 -1.5q-2.53125 -1.5 -3.90625 -4.21875q-1.359375 -2.71875 -1.359375 -6.125q0 -3.390625 1.375 -6.171875q1.375 -2.78125 3.90625 -4.234375q2.546875 -1.453125 5.6875 -1.453125q3.171875 0 5.71875 1.515625q2.546875 1.5 3.875 4.21875q1.34375 2.703125 1.34375 6.109375q0 2.828125 -0.859375 5.09375q-0.859375 2.25 -2.59375 3.921875zm-6.671875 -3.875q2.625 0.734375 4.328125 2.1875q2.671875 -2.4375 2.671875 -7.328125q0 -2.78125 -0.953125 -4.859375q-0.9375 -2.078125 -2.765625 -3.21875q-1.8125 -1.15625 -4.078125 -1.15625q-3.390625 0 -5.625 2.328125q-2.234375 2.3125 -2.234375 6.921875q0 4.46875 2.203125 6.859375q2.21875 2.390625 5.65625 2.390625q1.625 0 3.0625 -0.609375q-1.421875 -0.921875 -3.0 -1.3125l0.734375 -2.203125zm14.078125 6.328125l0 -22.90625l3.03125 0l0 20.203125l11.28125 0l0 2.703125l-14.3125 0z" fill-rule="nonzero"/><path fill="#000000" d="m810.81067 190.28168l0 -22.90625l16.5625 0l0 2.703125l-13.53125 0l0 7.015625l12.671875 0l0 2.6875l-12.671875 0l0 7.796875l14.0625 0l0 2.703125l-17.09375 0zm20.921875 0l0 -16.59375l2.53125 0l0 2.359375q1.828125 -2.734375 5.28125 -2.734375q1.5 0 2.75 0.546875q1.265625 0.53125 1.890625 1.40625q0.625 0.875 0.875 2.078125q0.15625 0.78125 0.15625 2.734375l0 10.203125l-2.8125 0l0 -10.09375q0 -1.71875 -0.328125 -2.5625q-0.328125 -0.859375 -1.171875 -1.359375q-0.828125 -0.515625 -1.953125 -0.515625q-1.796875 0 -3.109375 1.140625q-1.296875 1.140625 -1.296875 4.328125l0 9.0625l-2.8125 0zm17.28125 1.375l2.734375 0.40625q0.171875 1.265625 0.953125 1.84375q1.046875 0.78125 2.859375 0.78125q1.953125 0 3.015625 -0.78125q1.0625 -0.78125 1.4375 -2.1875q0.21875 -0.859375 0.203125 -3.609375q-1.84375 2.171875 -4.59375 2.171875q-3.421875 0 -5.296875 -2.46875q-1.875 -2.46875 -1.875 -5.921875q0 -2.375 0.859375 -4.375q0.859375 -2.015625 2.484375 -3.109375q1.640625 -1.09375 3.84375 -1.09375q2.9375 0 4.84375 2.375l0 -2.0l2.59375 0l0 14.34375q0 3.875 -0.796875 5.484375q-0.78125 1.625 -2.5 2.5625q-1.703125 0.9375 -4.203125 0.9375q-2.96875 0 -4.796875 -1.34375q-1.828125 -1.328125 -1.765625 -4.015625zm2.328125 -9.96875q0 3.265625 1.296875 4.765625q1.296875 1.5 3.25 1.5q1.9375 0 3.25 -1.484375q1.3125 -1.5 1.3125 -4.6875q0 -3.046875 -1.359375 -4.59375q-1.34375 -1.546875 -3.25 -1.546875q-1.875 0 -3.1875 1.53125q-1.3125 1.515625 -1.3125 4.515625zm16.0 -11.078125l0 -3.234375l2.8125 0l0 3.234375l-2.8125 0zm0 19.671875l0 -16.59375l2.8125 0l0 16.59375l-2.8125 0zm7.09375 0l0 -16.59375l2.53125 0l0 2.359375q1.828125 -2.734375 5.28125 -2.734375q1.5 0 2.75 0.546875q1.265625 0.53125 1.890625 1.40625q0.625 0.875 0.875 2.078125q0.15625 0.78125 0.15625 2.734375l0 10.203125l-2.8125 0l0 -10.09375q0 -1.71875 -0.328125 -2.5625q-0.328125 -0.859375 -1.171875 -1.359375q-0.828125 -0.515625 -1.953125 -0.515625q-1.796875 0 -3.109375 1.140625q-1.296875 1.140625 -1.296875 4.328125l0 9.0625l-2.8125 0zm29.15625 -5.34375l2.90625 0.359375q-0.6875 2.546875 -2.546875 3.953125q-1.859375 1.40625 -4.75 1.40625q-3.640625 0 -5.78125 -2.234375q-2.125 -2.25 -2.125 -6.296875q0 -4.1875 2.15625 -6.5q2.15625 -2.3125 5.59375 -2.3125q3.328125 0 5.4375 2.265625q2.109375 2.265625 2.109375 6.375q0 0.25 -0.015625 0.75l-12.375 0q0.15625 2.734375 1.546875 4.1875q1.390625 1.453125 3.46875 1.453125q1.546875 0 2.640625 -0.8125q1.09375 -0.8125 1.734375 -2.59375zm-9.234375 -4.546875l9.265625 0q-0.1875 -2.09375 -1.0625 -3.140625q-1.34375 -1.625 -3.484375 -1.625q-1.9375 0 -3.265625 1.296875q-1.3125 1.296875 -1.453125 3.46875z" fill-rule="nonzero"/></g><g filter="url(#shadowFilter-p.5)"><use xlink:href="#p.5" transform="matrix(1.0 0.0 0.0 1.0 5.470235989788386 12.887067339238845)"/></g><defs><filter id="shadowFilter-p.5" filterUnits="userSpaceOnUse"><feGaussianBlur in="SourceAlpha" stdDeviation="12.5" result="blur"/><feComponentTransfer in="blur" color-interpolation-filters="sRGB"><feFuncR type="linear" slope="0" intercept="0.0"/><feFuncG type="linear" slope="0" intercept="0.0"/><feFuncB type="linear" slope="0" intercept="0.0"/><feFuncA type="linear" slope="0.45" intercept="0"/></feComponentTransfer></filter></defs><g id="p.5"><path fill="#ffffff" d="m1012.47766 137.84016l0 0c0 -7.5378876 6.110718 -13.64856 13.64856 -13.64856l118.844604 0c3.619873 0 7.0914307 1.4379654 9.651001 3.9975739c2.5595703 2.5596008 3.9975586 6.0311584 3.9975586 9.650986l0 54.592636c0 7.5378876 -6.1105957 13.64856 -13.64856 13.64856l-118.844604 0c-7.537842 0 -13.64856 -6.110672 -13.64856 -13.64856z" fill-rule="evenodd"/><path stroke="#000000" stroke-width="1.0" stroke-linejoin="round" stroke-linecap="butt" d="m1012.47766 137.84016l0 0c0 -7.5378876 6.110718 -13.64856 13.64856 -13.64856l118.844604 0c3.619873 0 7.0914307 1.4379654 9.651001 3.9975739c2.5595703 2.5596008 3.9975586 6.0311584 3.9975586 9.650986l0 54.592636c0 7.5378876 -6.1105957 13.64856 -13.64856 13.64856l-118.844604 0c-7.537842 0 -13.64856 -6.110672 -13.64856 -13.64856z" fill-rule="evenodd"/></g><path fill="#000000" fill-opacity="0.0" d="m1025.1392 130.17586l118.96057 0l0 69.92125l-118.96057 0z" fill-rule="evenodd"/><path fill="#434343" d="m1044.3892 150.02086l0 18.5625l4.5 0q0.46875 0 0.671875 0.1875q0.203125 0.171875 0.203125 0.46875q0 0.28125 -0.203125 0.46875q-0.203125 0.1875 -0.671875 0.1875l-10.3125 0q-0.46875 0 -0.671875 -0.1875q-0.203125 -0.1875 -0.203125 -0.46875q0 -0.296875 0.203125 -0.46875q0.203125 -0.1875 0.671875 -0.1875l4.5 0l0 -16.75l-4.28125 1.34375q-0.3125 0.09375 -0.453125 0.09375q-0.234375 0 -0.4375 -0.1875q-0.1875 -0.203125 -0.1875 -0.46875q0 -0.234375 0.15625 -0.4375q0.125 -0.125 0.515625 -0.265625l6.0 -1.890625zm15.953125 15.15625l4.265625 0l-4.640625 8.625q-0.421875 0.78125 -1.015625 0.78125q-0.390625 0 -0.671875 -0.28125q-0.265625 -0.265625 -0.265625 -0.65625q0 -0.15625 0.046875 -0.34375l2.28125 -8.125zm24.25 -0.765625l-8.703125 0l0 -1.515625l7.296875 -12.609375l2.734375 0l0 12.8125l1.09375 0q0.484375 0 0.6875 0.1875q0.203125 0.171875 0.203125 0.46875q0 0.28125 -0.203125 0.46875q-0.203125 0.1875 -0.6875 0.1875l-1.09375 0l0 4.171875l1.09375 0q0.484375 0 0.6875 0.1875q0.203125 0.171875 0.203125 0.46875q0 0.28125 -0.203125 0.46875q-0.203125 0.1875 -0.6875 0.1875l-4.875 0q-0.484375 0 -0.6875 -0.1875q-0.203125 -0.1875 -0.203125 -0.46875q0 -0.296875 0.203125 -0.46875q0.203125 -0.1875 0.6875 -0.1875l2.453125 0l0 -4.171875zm0 -1.3125l0 -11.484375l-0.6875 0l-6.640625 11.484375l7.328125 0zm22.78125 -4.625l0 3.25q0 4.234375 -2.015625 6.703125q-1.578125 1.9375 -3.984375 1.9375q-1.15625 0 -2.1875 -0.46875q-1.015625 -0.453125 -1.734375 -1.28125q-0.453125 -0.515625 -1.0 -1.65625q-0.53125 -1.140625 -0.765625 -2.09375q-0.359375 -1.34375 -0.359375 -3.140625l0 -3.25q0 -4.25 2.015625 -6.71875q1.578125 -1.9375 3.984375 -1.9375q1.171875 0 2.1875 0.46875q1.015625 0.453125 1.734375 1.28125q0.46875 0.53125 1.0 1.671875q0.53125 1.140625 0.78125 2.078125q0.34375 1.34375 0.34375 3.15625zm-1.3125 0.171875q0 -1.859375 -0.53125 -3.453125q-0.515625 -1.609375 -1.171875 -2.5625q-0.390625 -0.546875 -1.015625 -0.9375q-0.890625 -0.546875 -2.0 -0.546875q-2.203125 0 -3.453125 2.25q-1.25 2.25 -1.25 5.25l0 2.890625q0 1.859375 0.515625 3.46875q0.53125 1.609375 1.203125 2.5625q0.375 0.53125 1.0 0.921875q0.890625 0.5625 2.015625 0.5625q2.1875 0 3.4375 -2.25q1.25 -2.265625 1.25 -5.265625l0 -2.890625zm17.1875 0.578125q1.8125 0.8125 2.765625 2.234375q0.953125 1.40625 0.953125 2.9375q0 2.359375 -1.921875 4.171875q-1.90625 1.796875 -4.78125 1.796875q-1.6875 0 -3.5 -0.71875q-1.8125 -0.71875 -2.53125 -1.46875q-0.234375 -0.25 -0.234375 -0.53125q0 -0.25 0.171875 -0.4375q0.1875 -0.1875 0.4375 -0.1875q0.25 0 0.5625 0.234375q2.421875 1.796875 5.125 1.796875q2.28125 0 3.8125 -1.421875q1.546875 -1.4375 1.546875 -3.1875q0 -1.171875 -0.765625 -2.296875q-0.75 -1.125 -2.171875 -1.765625q-1.421875 -0.65625 -2.875 -0.65625q-0.46875 0 -0.671875 -0.171875q-0.203125 -0.1875 -0.203125 -0.484375q0 -0.28125 0.1875 -0.46875q0.203125 -0.1875 0.59375 -0.1875l1.125 0.015625q1.765625 0 2.90625 -1.078125q1.15625 -1.078125 1.15625 -2.5q0 -1.46875 -1.203125 -2.59375q-1.203125 -1.125 -3.140625 -1.125q-1.359375 0 -2.5 0.46875q-1.140625 0.46875 -1.828125 1.28125q-0.25 0.3125 -0.390625 0.390625q-0.125 0.0625 -0.296875 0.0625q-0.265625 0 -0.453125 -0.171875q-0.1875 -0.1875 -0.1875 -0.4375q0 -0.625 1.359375 -1.578125q1.890625 -1.328125 4.296875 -1.328125q2.484375 0 4.078125 1.5q1.59375 1.484375 1.59375 3.546875q0 1.3125 -0.765625 2.484375q-0.765625 1.171875 -2.25 1.875z" fill-rule="nonzero"/></g></svg>