<svg version="1.1" viewBox="0.0 0.0 372.3228346456693 301.0262467191601" fill="none" stroke="none" stroke-linecap="square" stroke-miterlimit="10" xmlns:xlink="http://www.w3.org/1999/xlink" xmlns="http://www.w3.org/2000/svg"><clipPath id="p.0"><path d="m0 0l372.32285 0l0 301.02625l-372.32285 0l0 -301.02625z" clip-rule="nonzero"/></clipPath><g clip-path="url(#p.0)"><path fill="#000000" fill-opacity="0.0" d="m0 0l372.32285 0l0 301.02625l-372.32285 0z" fill-rule="evenodd"/><path fill="#000000" fill-opacity="0.0" d="m106.40682 8.742783l168.12598 0l0 42.015747l-168.12598 0z" fill-rule="evenodd"/><path fill="#000000" d="m165.16864 39.56903q-1.828125 -0.09375 -3.21875 -0.703125q-1.390625 -0.609375 -2.328125 -1.640625q-0.9375 -1.015625 -1.421875 -2.3125q-0.46875 -1.296875 -0.46875 -2.75q0 -1.21875 0.359375 -2.375q0.359375 -1.171875 1.046875 -2.171875q0.6875 -1.015625 1.65625 -1.765625q0.96875 -0.765625 2.203125 -1.1875q1.25 -0.4375 2.703125 -0.4375q1.890625 0 3.296875 0.765625q1.421875 0.765625 2.21875 2.078125q0.8125 1.296875 0.8125 2.921875q0 1.140625 -0.390625 2.203125q-0.375 1.046875 -1.140625 1.890625q-0.75 0.828125 -1.875 1.3125q-1.109375 0.484375 -2.59375 0.484375q-0.34375 0 -0.515625 -0.140625q-0.15625 -0.140625 -0.15625 -0.390625q0 -0.109375 0.078125 -0.53125q0.078125 -0.421875 0.203125 -0.984375q0.125 -0.5625 0.234375 -1.09375q0.109375 -0.546875 0.1875 -0.90625q0.09375 -0.375 0.09375 -0.375l-0.109375 -0.03125q-0.921875 1.75 -1.78125 2.8125q-0.859375 1.046875 -1.71875 1.640625q-0.734375 0 -1.109375 -0.703125q-0.375 -0.703125 -0.375 -1.828125q0 -1.1875 0.375 -2.3125q0.390625 -1.125 1.015625 -2.015625q0.625 -0.890625 1.375 -1.40625q0.765625 -0.53125 1.5 -0.53125l1.875 0.296875l0.171875 -0.46875l0.078125 -0.015625l0.578125 0.28125l0.15625 0.21875q0 0 -0.109375 0.421875q-0.109375 0.40625 -0.296875 1.109375q-0.1875 0.703125 -0.40625 1.640625q-0.21875 0.921875 -0.421875 1.953125q-0.1875 1.015625 -0.328125 2.0625l0.078125 0.078125q1.359375 0 2.25 -0.53125q0.890625 -0.546875 1.34375 -1.484375q0.453125 -0.953125 0.453125 -2.203125q0 -1.640625 -0.703125 -2.796875q-0.6875 -1.15625 -1.921875 -1.765625q-1.21875 -0.609375 -2.890625 -0.609375q-1.40625 0 -2.546875 0.53125q-1.140625 0.515625 -1.953125 1.4375q-0.8125 0.90625 -1.25 2.078125q-0.421875 1.171875 -0.421875 2.5q0 1.8125 0.6875 3.34375q0.703125 1.53125 2.15625 2.5q1.453125 0.96875 3.75 1.09375q0 0.015625 0 0.046875q0 0.046875 0 0.09375l-0.484375 0.671875zm-2.265625 -5.1875q0.34375 0 0.9375 -0.734375q0.609375 -0.734375 1.34375 -2.0q0.75 -1.28125 1.453125 -2.9375q-0.109375 -0.078125 -0.421875 -0.21875q-0.3125 -0.15625 -0.703125 -0.28125q-0.375 -0.125 -0.765625 -0.125q-0.578125 0 -1.125 0.609375q-0.546875 0.609375 -0.90625 1.59375q-0.34375 0.984375 -0.34375 2.140625q0 0.765625 0.140625 1.359375q0.15625 0.59375 0.390625 0.59375zm12.928253 1.5q-0.671875 0 -1.171875 -0.109375q-0.5 -0.09375 -0.78125 -0.1875q-0.265625 -0.09375 -0.265625 -0.09375l-0.046875 -0.125q0.03125 -0.203125 0.078125 -0.671875q0.046875 -0.484375 0.09375 -1.0q0.046875 -0.53125 0.046875 -0.828125l0.65625 -0.09375q0 1.234375 0.40625 1.734375q0.40625 0.5 1.390625 0.5q0.71875 0 1.203125 -0.3125q0.484375 -0.3125 0.484375 -0.78125q0 -0.328125 -0.1875 -0.578125q-0.1875 -0.265625 -0.65625 -0.578125q-0.46875 -0.328125 -1.328125 -0.765625q-1.0625 -0.546875 -1.546875 -1.09375q-0.484375 -0.5625 -0.484375 -1.234375q0 -0.765625 0.453125 -1.359375q0.453125 -0.609375 1.234375 -0.953125q0.78125 -0.34375 1.75 -0.34375q0.765625 0 1.3125 0.15625q0.546875 0.140625 0.546875 0.140625l0.046875 0.09375q0 0 -0.078125 0.328125q-0.0625 0.3125 -0.140625 0.828125q-0.078125 0.5 -0.140625 1.125l-0.6875 0.046875q0 0 0.015625 -0.203125q0.015625 -0.203125 0.015625 -0.328125q0 -0.671875 -0.359375 -0.984375q-0.359375 -0.3125 -1.171875 -0.3125q-0.625 0 -1.0625 0.3125q-0.4375 0.296875 -0.4375 0.71875q0 0.453125 0.375 0.84375q0.390625 0.390625 1.25 0.828125q1.0 0.53125 1.5625 0.953125q0.578125 0.421875 0.8125 0.8125q0.234375 0.390625 0.234375 0.859375q0 0.703125 -0.484375 1.328125q-0.46875 0.609375 -1.25 0.96875q-0.765625 0.359375 -1.6875 0.359375zm8.156067 0q-1.265625 0 -1.796875 -0.5q-0.515625 -0.515625 -0.515625 -1.75l0 -4.59375q0 -0.5 -0.234375 -0.703125q-0.21875 -0.203125 -0.828125 -0.234375l-0.078125 -0.109375l0.09375 -0.5625q0.453125 -0.21875 0.859375 -0.5q0.421875 -0.296875 0.75 -0.5625q0.328125 -0.28125 0.515625 -0.453125q0.1875 -0.171875 0.1875 -0.171875l0.375 0.140625q0 0 -0.046875 0.359375q-0.046875 0.359375 -0.109375 1.046875l2.75 -0.0625l0.0625 0.0625l-0.171875 0.984375l-2.703125 -0.046875q-0.0625 0.875 -0.109375 2.046875q-0.03125 1.171875 -0.03125 2.609375q0 0.953125 0.328125 1.34375q0.328125 0.390625 1.125 0.390625q0.46875 0 0.875 -0.15625q0.40625 -0.171875 0.40625 -0.171875l0.1875 0.484375q0 0 -0.234375 0.171875q-0.21875 0.15625 -0.546875 0.390625q-0.328125 0.21875 -0.640625 0.375q-0.296875 0.171875 -0.46875 0.171875zm9.25032 0q-0.75 0 -1.171875 -0.375q-0.40625 -0.390625 -0.484375 -1.125l-0.078125 -0.03125q-0.453125 0.453125 -0.859375 0.78125q-0.390625 0.328125 -0.703125 0.515625q-0.296875 0.171875 -0.484375 0.171875q-0.6875 0 -1.234375 -0.296875q-0.546875 -0.3125 -0.859375 -0.828125q-0.296875 -0.53125 -0.296875 -1.203125q0 -0.53125 0.265625 -0.9375q0.28125 -0.421875 0.71875 -0.546875l3.546875 -0.96875l0.015625 -0.828125q0 -0.921875 -0.4375 -1.4375q-0.421875 -0.53125 -1.203125 -0.53125q-0.515625 0 -1.09375 0.25q-0.578125 0.234375 -1.140625 0.671875l-0.09375 -0.046875l-0.21875 -0.796875q0.484375 -0.28125 1.078125 -0.59375q0.59375 -0.3125 1.125 -0.515625q0.546875 -0.203125 0.828125 -0.203125q0.828125 0 1.40625 0.296875q0.578125 0.28125 0.875 0.8125q0.3125 0.53125 0.3125 1.296875q0 0.25 -0.046875 0.796875q-0.046875 0.53125 -0.125 1.203125q-0.0625 0.65625 -0.109375 1.265625q-0.046875 0.609375 -0.046875 1.03125q0 0.40625 0.203125 0.640625q0.203125 0.21875 0.5625 0.21875q0.3125 0 0.625 -0.15625q0.328125 -0.171875 0.484375 -0.3125l0.265625 0.296875q-0.15625 0.234375 -0.40625 0.546875q-0.25 0.3125 -0.5625 0.578125q-0.296875 0.25 -0.65625 0.359375zm-3.46875 -1.34375q0.359375 0 0.828125 -0.25q0.484375 -0.25 0.875 -0.640625l0.09375 -1.90625l-2.546875 0.765625q-0.53125 0.171875 -0.53125 0.78125q0 0.53125 0.359375 0.890625q0.359375 0.359375 0.921875 0.359375zm6.318817 0.453125q0.5625 -0.0625 0.75 -0.359375q0.1875 -0.3125 0.1875 -1.1875l0 -4.109375q0 -0.609375 -0.171875 -0.875q-0.15625 -0.265625 -0.53125 -0.265625q-0.15625 0 -0.28125 0.03125q-0.109375 0.03125 -0.109375 0.03125l-0.09375 -0.125l0.046875 -0.578125q0.578125 -0.125 1.15625 -0.25q0.578125 -0.125 0.96875 -0.21875q0.40625 -0.09375 0.40625 -0.09375l0.125 0.109375q0 0 -0.046875 0.296875q-0.046875 0.296875 -0.09375 0.734375q-0.03125 0.4375 -0.03125 0.890625l0.078125 0.0625q0.578125 -0.890625 1.3125 -1.4375q0.75 -0.5625 1.3125 -0.5625q0.328125 0 0.453125 0.046875q0.125 0.03125 0.125 0.03125l0.0625 0.0625q0 0 -0.046875 0.265625q-0.03125 0.25 -0.09375 0.65625q-0.046875 0.390625 -0.09375 0.859375q-0.046875 0.46875 -0.0625 0.890625l-0.734375 0.0625q0 -0.765625 -0.09375 -1.015625q-0.09375 -0.265625 -0.40625 -0.265625q-0.40625 0 -0.875 0.34375q-0.46875 0.328125 -0.859375 0.9375q0 0 -0.015625 0.34375q-0.015625 0.34375 -0.046875 0.875q-0.015625 0.515625 -0.03125 1.0625q-0.015625 0.546875 -0.046875 0.96875q-0.015625 0.421875 -0.015625 0.546875q0 0.640625 0.1875 0.859375q0.1875 0.21875 0.71875 0.21875q0.203125 0 0.5 -0.015625q0.3125 -0.015625 0.3125 -0.015625l0.015625 0.078125l-0.15625 0.8125q0 0 -0.1875 -0.015625q-0.1875 0 -0.484375 0q-0.296875 0 -0.625 -0.015625q-0.328125 0 -0.609375 0q-0.546875 0 -1.0 0.015625q-0.4375 0.015625 -0.703125 0.03125q-0.265625 0.03125 -0.265625 0.03125l0.09375 -0.75zm9.89534 0.890625q-1.265625 0 -1.796875 -0.5q-0.515625 -0.515625 -0.515625 -1.75l0 -4.59375q0 -0.5 -0.234375 -0.703125q-0.21875 -0.203125 -0.828125 -0.234375l-0.078125 -0.109375l0.09375 -0.5625q0.453125 -0.21875 0.859375 -0.5q0.421875 -0.296875 0.75 -0.5625q0.328125 -0.28125 0.515625 -0.453125q0.1875 -0.171875 0.1875 -0.171875l0.375 0.140625q0 0 -0.046875 0.359375q-0.046875 0.359375 -0.109375 1.046875l2.75 -0.0625l0.0625 0.0625l-0.171875 0.984375l-2.703125 -0.046875q-0.0625 0.875 -0.109375 2.046875q-0.03125 1.171875 -0.03125 2.609375q0 0.953125 0.328125 1.34375q0.328125 0.390625 1.125 0.390625q0.46875 0 0.875 -0.15625q0.40625 -0.171875 0.40625 -0.171875l0.1875 0.484375q0 0 -0.234375 0.171875q-0.21875 0.15625 -0.546875 0.390625q-0.328125 0.21875 -0.640625 0.375q-0.296875 0.171875 -0.46875 0.171875zm10.359695 3.6875q-1.828125 -0.09375 -3.21875 -0.703125q-1.390625 -0.609375 -2.328125 -1.640625q-0.9375 -1.015625 -1.421875 -2.3125q-0.46875 -1.296875 -0.46875 -2.75q0 -1.21875 0.359375 -2.375q0.359375 -1.171875 1.046875 -2.171875q0.6875 -1.015625 1.65625 -1.765625q0.96875 -0.765625 2.203125 -1.1875q1.25 -0.4375 2.703125 -0.4375q1.890625 0 3.296875 0.765625q1.421875 0.765625 2.21875 2.078125q0.8125 1.296875 0.8125 2.921875q0 1.140625 -0.390625 2.203125q-0.375 1.046875 -1.140625 1.890625q-0.75 0.828125 -1.875 1.3125q-1.109375 0.484375 -2.59375 0.484375q-0.34375 0 -0.515625 -0.140625q-0.15625 -0.140625 -0.15625 -0.390625q0 -0.109375 0.078125 -0.53125q0.078125 -0.421875 0.203125 -0.984375q0.125 -0.5625 0.234375 -1.09375q0.109375 -0.546875 0.1875 -0.90625q0.09375 -0.375 0.09375 -0.375l-0.109375 -0.03125q-0.921875 1.75 -1.78125 2.8125q-0.859375 1.046875 -1.71875 1.640625q-0.734375 0 -1.109375 -0.703125q-0.375 -0.703125 -0.375 -1.828125q0 -1.1875 0.375 -2.3125q0.390625 -1.125 1.015625 -2.015625q0.625 -0.890625 1.375 -1.40625q0.765625 -0.53125 1.5 -0.53125l1.875 0.296875l0.171875 -0.46875l0.078125 -0.015625l0.578125 0.28125l0.15625 0.21875q0 0 -0.109375 0.421875q-0.109375 0.40625 -0.296875 1.109375q-0.1875 0.703125 -0.40625 1.640625q-0.21875 0.921875 -0.421875 1.953125q-0.1875 1.015625 -0.328125 2.0625l0.078125 0.078125q1.359375 0 2.25 -0.53125q0.890625 -0.546875 1.34375 -1.484375q0.453125 -0.953125 0.453125 -2.203125q0 -1.640625 -0.703125 -2.796875q-0.6875 -1.15625 -1.921875 -1.765625q-1.21875 -0.609375 -2.890625 -0.609375q-1.40625 0 -2.546875 0.53125q-1.140625 0.515625 -1.953125 1.4375q-0.8125 0.90625 -1.25 2.078125q-0.421875 1.171875 -0.421875 2.5q0 1.8125 0.6875 3.34375q0.703125 1.53125 2.15625 2.5q1.453125 0.96875 3.75 1.09375q0 0.015625 0 0.046875q0 0.046875 0 0.09375l-0.484375 0.671875zm-2.265625 -5.1875q0.34375 0 0.9375 -0.734375q0.609375 -0.734375 1.34375 -2.0q0.75 -1.28125 1.453125 -2.9375q-0.109375 -0.078125 -0.421875 -0.21875q-0.3125 -0.15625 -0.703125 -0.28125q-0.375 -0.125 -0.765625 -0.125q-0.578125 0 -1.125 0.609375q-0.546875 0.609375 -0.90625 1.59375q-0.34375 0.984375 -0.34375 2.140625q0 0.765625 0.140625 1.359375q0.15625 0.59375 0.390625 0.59375z" fill-rule="nonzero"/><path fill="#000000" fill-opacity="0.0" d="m106.40682 88.74278l168.12598 0l0 42.015747l-168.12598 0z" fill-rule="evenodd"/><path fill="#000000" d="m180.47731 115.88153l0.0625 -0.765625q0.5625 -0.140625 0.796875 -0.421875q0.25 -0.296875 0.25 -0.78125l0 -4.75q0 -0.515625 -0.171875 -0.75q-0.15625 -0.25 -0.515625 -0.25q-0.15625 0 -0.3125 0.046875q-0.15625 0.03125 -0.15625 0.03125l0.078125 -0.6875q0.46875 -0.078125 0.9375 -0.171875q0.484375 -0.09375 0.875 -0.171875q0.390625 -0.09375 0.625 -0.140625q0.25 -0.0625 0.25 -0.0625l0.09375 0.21875q-0.078125 0.1875 -0.171875 0.84375q-0.078125 0.640625 -0.140625 1.5625q-0.046875 0.921875 -0.09375 2.015625q-0.03125 1.09375 -0.03125 2.1875q0 0.546875 0.140625 0.796875q0.15625 0.25 0.515625 0.25q0.171875 0 0.40625 -0.015625q0.25 -0.03125 0.25 -0.03125l0.03125 0.078125l-0.140625 0.8125q0 0 -0.171875 -0.015625q-0.15625 -0.015625 -0.40625 -0.03125q-0.25 0 -0.546875 -0.015625q-0.28125 0 -0.53125 0q-0.40625 0 -0.859375 0.046875q-0.4375 0.0625 -0.75 0.109375q-0.3125 0.0625 -0.3125 0.0625zm1.640625 -11.078125q-0.46875 0 -0.703125 -0.296875q-0.21875 -0.296875 -0.21875 -0.65625q0 -0.4375 0.3125 -0.765625q0.328125 -0.328125 0.796875 -0.328125q0.4375 0 0.671875 0.296875q0.234375 0.28125 0.234375 0.65625q0 0.4375 -0.3125 0.765625q-0.296875 0.328125 -0.78125 0.328125zm8.886063 10.3125q0.5625 -0.140625 0.796875 -0.421875q0.25 -0.296875 0.25 -0.78125l0.078125 -3.703125q0 -0.921875 -0.40625 -1.421875q-0.390625 -0.515625 -1.140625 -0.515625q-0.453125 0 -0.921875 0.1875q-0.453125 0.1875 -0.828125 0.421875q-0.359375 0.21875 -0.546875 0.359375q-0.015625 0.484375 -0.046875 1.15625q-0.03125 0.65625 -0.0625 1.34375q-0.015625 0.6875 -0.046875 1.25q-0.015625 0.5625 -0.015625 0.84375q0 0.578125 0.15625 0.8125q0.171875 0.234375 0.515625 0.234375q0.171875 0 0.40625 -0.015625q0.25 -0.03125 0.25 -0.03125l0.046875 0.078125l-0.171875 0.8125q0 0 -0.28125 -0.03125q-0.28125 -0.015625 -0.671875 -0.03125q-0.390625 0 -0.75 0q-0.390625 0 -0.828125 0.03125q-0.421875 0.03125 -0.71875 0.046875q-0.296875 0.03125 -0.296875 0.03125l0.09375 -0.765625q0.546875 -0.09375 0.765625 -0.328125q0.21875 -0.25 0.21875 -0.765625l0 -4.5625q0 -0.625 -0.203125 -0.875q-0.203125 -0.25 -0.703125 -0.25l-0.203125 0l-0.0625 -0.078125l0.0625 -0.625q0.640625 -0.109375 1.234375 -0.21875q0.609375 -0.125 0.984375 -0.21875q0.390625 -0.09375 0.390625 -0.09375l0.109375 0.140625q0 0 -0.09375 0.375q-0.078125 0.375 -0.109375 0.859375l0.03125 0.0625q0.171875 -0.109375 0.53125 -0.34375q0.359375 -0.234375 0.78125 -0.46875q0.421875 -0.25 0.8125 -0.421875q0.390625 -0.1875 0.625 -0.1875q1.171875 0 1.859375 0.65625q0.6875 0.65625 0.6875 1.75q0 0.25 -0.046875 0.8125q-0.03125 0.546875 -0.09375 1.25q-0.046875 0.6875 -0.09375 1.328125q-0.03125 0.625 -0.03125 1.03125q0 0.546875 0.15625 0.796875q0.15625 0.25 0.5 0.25q0.171875 0 0.40625 -0.015625q0.25 -0.03125 0.25 -0.03125l0.03125 0.078125l-0.140625 0.8125q0 0 -0.15625 -0.015625q-0.15625 -0.015625 -0.421875 -0.03125q-0.25 0 -0.546875 -0.015625q-0.28125 0 -0.53125 0q-0.296875 0 -0.625 0.03125q-0.328125 0.046875 -0.625 0.078125q-0.296875 0.046875 -0.484375 0.078125q-0.1875 0.03125 -0.1875 0.03125l0.0625 -0.765625zm7.973633 0.765625q-1.265625 0 -1.796875 -0.5q-0.515625 -0.515625 -0.515625 -1.75l0 -4.59375q0 -0.5 -0.234375 -0.703125q-0.21875 -0.203125 -0.828125 -0.234375l-0.078125 -0.109375l0.09375 -0.5625q0.453125 -0.21875 0.859375 -0.5q0.421875 -0.296875 0.75 -0.5625q0.328125 -0.28125 0.515625 -0.453125q0.1875 -0.171875 0.1875 -0.171875l0.375 0.140625q0 0 -0.046875 0.359375q-0.046875 0.359375 -0.109375 1.046875l2.75 -0.0625l0.0625 0.0625l-0.171875 0.984375l-2.703125 -0.046875q-0.0625 0.875 -0.109375 2.046875q-0.03125 1.171875 -0.03125 2.609375q0 0.953125 0.328125 1.34375q0.328125 0.390625 1.125 0.390625q0.46875 0 0.875 -0.15625q0.40625 -0.171875 0.40625 -0.171875l0.1875 0.484375q0 0 -0.234375 0.171875q-0.21875 0.15625 -0.546875 0.390625q-0.328125 0.21875 -0.640625 0.375q-0.296875 0.171875 -0.46875 0.171875z" fill-rule="nonzero"/><path fill="#000000" fill-opacity="0.0" d="m10.406824 168.74278l168.12598 0l0 42.015747l-168.12598 0z" fill-rule="evenodd"/><path fill="#000000" d="m55.527172 194.35028q0 0 -0.328125 -0.140625q-0.3125 -0.15625 -0.84375 -0.390625q-0.515625 -0.25 -1.140625 -0.53125q-0.609375 -0.28125 -1.1875 -0.515625q-0.5 -0.21875 -1.140625 -0.484375q-0.625 -0.28125 -1.21875 -0.515625q-0.59375 -0.25 -0.96875 -0.40625q-0.359375 -0.15625 -0.359375 -0.15625l-0.15625 -0.21875l0.03125 -0.875l3.796875 -1.59375q0.625 -0.28125 1.28125 -0.546875q0.671875 -0.265625 1.21875 -0.484375q0.5625 -0.21875 0.90625 -0.34375q0.34375 -0.140625 0.34375 -0.140625l0.171875 0.09375l0.125 0.9375q0 0 -0.34375 0.125q-0.34375 0.109375 -0.90625 0.3125q-0.546875 0.1875 -1.171875 0.4375q-0.625 0.234375 -1.203125 0.484375l-2.875 1.109375l0 0.125l3.140625 1.296875q0.765625 0.34375 1.546875 0.6875q0.78125 0.328125 1.296875 0.5625q0.53125 0.234375 0.53125 0.234375l0.015625 0.203125l-0.5625 0.734375zm2.3463135 1.53125l0.0625 -0.765625q0.5625 -0.140625 0.796875 -0.421875q0.25 -0.296875 0.25 -0.78125l0 -4.75q0 -0.515625 -0.171875 -0.75q-0.15625 -0.25 -0.515625 -0.25q-0.15625 0 -0.3125 0.046875q-0.15625 0.03125 -0.15625 0.03125l0.078125 -0.6875q0.46875 -0.078125 0.9375 -0.171875q0.484375 -0.09375 0.875 -0.171875q0.390625 -0.09375 0.625 -0.140625q0.25 -0.0625 0.25 -0.0625l0.09375 0.21875q-0.078125 0.1875 -0.171875 0.84375q-0.078125 0.640625 -0.140625 1.5625q-0.046875 0.921875 -0.09375 2.015625q-0.03125 1.09375 -0.03125 2.1875q0 0.546875 0.140625 0.796875q0.15625 0.25 0.515625 0.25q0.171875 0 0.40625 -0.015625q0.25 -0.03125 0.25 -0.03125l0.03125 0.078125l-0.140625 0.8125q0 0 -0.171875 -0.015625q-0.15625 -0.015625 -0.40625 -0.03125q-0.25 0 -0.546875 -0.015625q-0.28125 0 -0.53125 0q-0.40625 0 -0.859375 0.046875q-0.4375 0.0625 -0.75 0.109375q-0.3125 0.0625 -0.3125 0.0625zm1.640625 -11.078125q-0.46875 0 -0.703125 -0.296875q-0.21875 -0.296875 -0.21875 -0.65625q0 -0.4375 0.3125 -0.765625q0.328125 -0.328125 0.796875 -0.328125q0.4375 0 0.671875 0.296875q0.234375 0.28125 0.234375 0.65625q0 0.4375 -0.3125 0.765625q-0.296875 0.328125 -0.78125 0.328125zm8.886059 10.3125q0.5625 -0.140625 0.796875 -0.421875q0.25 -0.296875 0.25 -0.78125l0.078125 -3.703125q0 -0.921875 -0.40625 -1.421875q-0.390625 -0.515625 -1.140625 -0.515625q-0.453125 0 -0.921875 0.1875q-0.453125 0.1875 -0.828125 0.421875q-0.359375 0.21875 -0.546875 0.359375q-0.015625 0.484375 -0.046875 1.15625q-0.03125 0.65625 -0.0625 1.34375q-0.015625 0.6875 -0.046875 1.25q-0.015625 0.5625 -0.015625 0.84375q0 0.578125 0.15625 0.8125q0.171875 0.234375 0.515625 0.234375q0.171875 0 0.40625 -0.015625q0.25 -0.03125 0.25 -0.03125l0.046875 0.078125l-0.171875 0.8125q0 0 -0.28125 -0.03125q-0.28125 -0.015625 -0.671875 -0.03125q-0.390625 0 -0.75 0q-0.390625 0 -0.828125 0.03125q-0.4218712 0.03125 -0.7187462 0.046875q-0.296875 0.03125 -0.296875 0.03125l0.09375 -0.765625q0.546875 -0.09375 0.7656212 -0.328125q0.21875 -0.25 0.21875 -0.765625l0 -4.5625q0 -0.625 -0.203125 -0.875q-0.20312119 -0.25 -0.7031212 -0.25l-0.203125 0l-0.0625 -0.078125l0.0625 -0.625q0.640625 -0.109375 1.2343712 -0.21875q0.609375 -0.125 0.984375 -0.21875q0.390625 -0.09375 0.390625 -0.09375l0.109375 0.140625q0 0 -0.09375 0.375q-0.078125 0.375 -0.109375 0.859375l0.03125 0.0625q0.171875 -0.109375 0.53125 -0.34375q0.359375 -0.234375 0.78125 -0.46875q0.421875 -0.25 0.8125 -0.421875q0.390625 -0.1875 0.625 -0.1875q1.171875 0 1.859375 0.65625q0.6875 0.65625 0.6875 1.75q0 0.25 -0.046875 0.8125q-0.03125 0.546875 -0.09375 1.25q-0.046875 0.6875 -0.09375 1.328125q-0.03125 0.625 -0.03125 1.03125q0 0.546875 0.15625 0.796875q0.15625 0.25 0.5 0.25q0.171875 0 0.40625 -0.015625q0.25 -0.03125 0.25 -0.03125l0.03125 0.078125l-0.140625 0.8125q0 0 -0.15625 -0.015625q-0.15625 -0.015625 -0.421875 -0.03125q-0.25 0 -0.546875 -0.015625q-0.28125 0 -0.53125 0q-0.296875 0 -0.625 0.03125q-0.328125 0.046875 -0.625 0.078125q-0.296875 0.046875 -0.484375 0.078125q-0.1875 0.03125 -0.1875 0.03125l0.0625 -0.765625zm7.973633 0.765625q-1.265625 0 -1.796875 -0.5q-0.515625 -0.515625 -0.515625 -1.75l0 -4.59375q0 -0.5 -0.234375 -0.703125q-0.21875 -0.203125 -0.828125 -0.234375l-0.078125 -0.109375l0.09375 -0.5625q0.453125 -0.21875 0.859375 -0.5q0.421875 -0.296875 0.75 -0.5625q0.328125 -0.28125 0.515625 -0.453125q0.1875 -0.171875 0.1875 -0.171875l0.375 0.140625q0 0 -0.046875 0.359375q-0.046875 0.359375 -0.109375 1.046875l2.75 -0.0625l0.0625 0.0625l-0.171875 0.984375l-2.703125 -0.046875q-0.0625 0.875 -0.109375 2.046875q-0.03125 1.171875 -0.03125 2.609375q0 0.953125 0.328125 1.34375q0.328125 0.390625 1.125 0.390625q0.46875 0 0.875 -0.15625q0.40625 -0.171875 0.40625 -0.171875l0.1875 0.484375q0 0 -0.234375 0.171875q-0.21875 0.15625 -0.546875 0.390625q-0.328125 0.21875 -0.640625 0.375q-0.296875 0.171875 -0.46875 0.171875zm3.8284454 2.703125l-0.34375 -0.265625l0 -0.1875q0.640625 -0.4375 1.0625 -1.0625q0.421875 -0.609375 0.421875 -1.203125q0 -0.390625 -0.1875 -0.734375q-0.171875 -0.34375 -0.421875 -0.5625l0.046875 -0.265625q0.1875 -0.15625 0.484375 -0.3125q0.296875 -0.171875 0.59375 -0.171875q0.390625 0 0.671875 0.375q0.28125 0.375 0.28125 1.078125q0 0.703125 -0.421875 1.328125q-0.421875 0.640625 -1.03125 1.140625q-0.59375 0.515625 -1.15625 0.84375zm4.7974396 -2.703125l0.0625 -0.765625q0.5625 -0.140625 0.796875 -0.421875q0.25 -0.296875 0.25 -0.78125l0 -4.75q0 -0.515625 -0.171875 -0.75q-0.15625 -0.25 -0.515625 -0.25q-0.15625 0 -0.3125 0.046875q-0.15625 0.03125 -0.15625 0.03125l0.078125 -0.6875q0.46875 -0.078125 0.9375 -0.171875q0.484375 -0.09375 0.875 -0.171875q0.390625 -0.09375 0.625 -0.140625q0.25 -0.0625 0.25 -0.0625l0.09375 0.21875q-0.078125 0.1875 -0.171875 0.84375q-0.078125 0.640625 -0.140625 1.5625q-0.046875 0.921875 -0.09375 2.015625q-0.03125 1.09375 -0.03125 2.1875q0 0.546875 0.140625 0.796875q0.15625 0.25 0.515625 0.25q0.171875 0 0.40625 -0.015625q0.25 -0.03125 0.25 -0.03125l0.03125 0.078125l-0.140625 0.8125q0 0 -0.171875 -0.015625q-0.15625 -0.015625 -0.40625 -0.03125q-0.25 0 -0.546875 -0.015625q-0.28125 0 -0.53125 0q-0.40625 0 -0.859375 0.046875q-0.4375 0.0625 -0.75 0.109375q-0.3125 0.0625 -0.3125 0.0625zm1.640625 -11.078125q-0.46875 0 -0.703125 -0.296875q-0.21875 -0.296875 -0.21875 -0.65625q0 -0.4375 0.3125 -0.765625q0.328125 -0.328125 0.796875 -0.328125q0.4375 0 0.671875 0.296875q0.234375 0.28125 0.234375 0.65625q0 0.4375 -0.3125 0.765625q-0.296875 0.328125 -0.78125 0.328125zm8.886063 10.3125q0.5625 -0.140625 0.796875 -0.421875q0.25 -0.296875 0.25 -0.78125l0.078125 -3.703125q0 -0.921875 -0.40625 -1.421875q-0.390625 -0.515625 -1.140625 -0.515625q-0.453125 0 -0.921875 0.1875q-0.453125 0.1875 -0.828125 0.421875q-0.359375 0.21875 -0.546875 0.359375q-0.015625 0.484375 -0.046875 1.15625q-0.03125 0.65625 -0.0625 1.34375q-0.015625 0.6875 -0.046875 1.25q-0.015625 0.5625 -0.015625 0.84375q0 0.578125 0.15625 0.8125q0.171875 0.234375 0.515625 0.234375q0.171875 0 0.40625 -0.015625q0.25 -0.03125 0.25 -0.03125l0.046875 0.078125l-0.171875 0.8125q0 0 -0.28125 -0.03125q-0.28125 -0.015625 -0.671875 -0.03125q-0.390625 0 -0.75 0q-0.390625 0 -0.828125 0.03125q-0.421875 0.03125 -0.71875 0.046875q-0.296875 0.03125 -0.296875 0.03125l0.09375 -0.765625q0.546875 -0.09375 0.765625 -0.328125q0.21875 -0.25 0.21875 -0.765625l0 -4.5625q0 -0.625 -0.203125 -0.875q-0.203125 -0.25 -0.703125 -0.25l-0.203125 0l-0.0625 -0.078125l0.0625 -0.625q0.640625 -0.109375 1.234375 -0.21875q0.609375 -0.125 0.984375 -0.21875q0.390625 -0.09375 0.390625 -0.09375l0.109375 0.140625q0 0 -0.09375 0.375q-0.078125 0.375 -0.109375 0.859375l0.03125 0.0625q0.171875 -0.109375 0.53125 -0.34375q0.359375 -0.234375 0.78125 -0.46875q0.421875 -0.25 0.8125 -0.421875q0.390625 -0.1875 0.625 -0.1875q1.171875 0 1.859375 0.65625q0.6875 0.65625 0.6875 1.75q0 0.25 -0.046875 0.8125q-0.03125 0.546875 -0.09375 1.25q-0.046875 0.6875 -0.09375 1.328125q-0.03125 0.625 -0.03125 1.03125q0 0.546875 0.15625 0.796875q0.15625 0.25 0.5 0.25q0.171875 0 0.40625 -0.015625q0.25 -0.03125 0.25 -0.03125l0.03125 0.078125l-0.140625 0.8125q0 0 -0.15625 -0.015625q-0.15625 -0.015625 -0.421875 -0.03125q-0.25 0 -0.546875 -0.015625q-0.28125 0 -0.53125 0q-0.296875 0 -0.625 0.03125q-0.328125 0.046875 -0.625 0.078125q-0.296875 0.046875 -0.484375 0.078125q-0.1875 0.03125 -0.1875 0.03125l0.0625 -0.765625zm7.973633 0.765625q-1.265625 0 -1.796875 -0.5q-0.515625 -0.515625 -0.515625 -1.75l0 -4.59375q0 -0.5 -0.234375 -0.703125q-0.21875 -0.203125 -0.828125 -0.234375l-0.078125 -0.109375l0.09375 -0.5625q0.453125 -0.21875 0.859375 -0.5q0.421875 -0.296875 0.75 -0.5625q0.328125 -0.28125 0.515625 -0.453125q0.1875 -0.171875 0.1875 -0.171875l0.375 0.140625q0 0 -0.046875 0.359375q-0.046875 0.359375 -0.109375 1.046875l2.75 -0.0625l0.0625 0.0625l-0.171875 0.984375l-2.703125 -0.046875q-0.0625 0.875 -0.109375 2.046875q-0.03125 1.171875 -0.03125 2.609375q0 0.953125 0.328125 1.34375q0.328125 0.390625 1.125 0.390625q0.46875 0 0.875 -0.15625q0.40625 -0.171875 0.40625 -0.171875l0.1875 0.484375q0 0 -0.234375 0.171875q-0.21875 0.15625 -0.546875 0.390625q-0.328125 0.21875 -0.640625 0.375q-0.296875 0.171875 -0.46875 0.171875zm5.0159454 0q-0.53125 0 -0.796875 -0.3125q-0.25 -0.328125 -0.25 -0.75q0 -0.484375 0.3125 -0.8125q0.328125 -0.34375 0.84375 -0.34375q0.53125 0 0.796875 0.328125q0.265625 0.3125 0.265625 0.734375q0 0.46875 -0.3125 0.8125q-0.3125 0.34375 -0.859375 0.34375zm0 -5.21875q-0.53125 0 -0.796875 -0.3125q-0.25 -0.328125 -0.25 -0.75q0 -0.484375 0.3125 -0.8125q0.328125 -0.34375 0.84375 -0.34375q0.53125 0 0.796875 0.328125q0.265625 0.3125 0.265625 0.734375q0 0.46875 -0.3125 0.8125q-0.3125 0.34375 -0.859375 0.34375zm2.5651855 5.21875l0.0625 -0.765625q0.5625 -0.140625 0.796875 -0.421875q0.25 -0.296875 0.25 -0.78125l0 -4.75q0 -0.515625 -0.171875 -0.75q-0.15625 -0.25 -0.515625 -0.25q-0.15625 0 -0.3125 0.046875q-0.15625 0.03125 -0.15625 0.03125l0.078125 -0.6875q0.46875 -0.078125 0.9375 -0.171875q0.484375 -0.09375 0.875 -0.171875q0.390625 -0.09375 0.625 -0.140625q0.25 -0.0625 0.25 -0.0625l0.09375 0.21875q-0.078125 0.1875 -0.171875 0.84375q-0.078125 0.640625 -0.140625 1.5625q-0.046875 0.921875 -0.09375 2.015625q-0.03125 1.09375 -0.03125 2.1875q0 0.546875 0.140625 0.796875q0.15625 0.25 0.515625 0.25q0.171875 0 0.40625 -0.015625q0.25 -0.03125 0.25 -0.03125l0.03125 0.078125l-0.140625 0.8125q0 0 -0.171875 -0.015625q-0.15625 -0.015625 -0.40625 -0.03125q-0.25 0 -0.546875 -0.015625q-0.28125 0 -0.53125 0q-0.40625 0 -0.859375 0.046875q-0.4375 0.0625 -0.75 0.109375q-0.3125 0.0625 -0.3125 0.0625zm1.640625 -11.078125q-0.46875 0 -0.703125 -0.296875q-0.21875 -0.296875 -0.21875 -0.65625q0 -0.4375 0.3125 -0.765625q0.328125 -0.328125 0.796875 -0.328125q0.4375 0 0.671875 0.296875q0.234375 0.28125 0.234375 0.65625q0 0.4375 -0.3125 0.765625q-0.296875 0.328125 -0.78125 0.328125zm8.886063 10.3125q0.5625 -0.140625 0.796875 -0.421875q0.25 -0.296875 0.25 -0.78125l0.078125 -3.703125q0 -0.921875 -0.40625 -1.421875q-0.390625 -0.515625 -1.140625 -0.515625q-0.453125 0 -0.921875 0.1875q-0.453125 0.1875 -0.828125 0.421875q-0.359375 0.21875 -0.546875 0.359375q-0.015625 0.484375 -0.046875 1.15625q-0.03125 0.65625 -0.0625 1.34375q-0.015625 0.6875 -0.046875 1.25q-0.015625 0.5625 -0.015625 0.84375q0 0.578125 0.15625 0.8125q0.171875 0.234375 0.515625 0.234375q0.171875 0 0.40625 -0.015625q0.25 -0.03125 0.25 -0.03125l0.046875 0.078125l-0.171875 0.8125q0 0 -0.28125 -0.03125q-0.28125 -0.015625 -0.671875 -0.03125q-0.390625 0 -0.75 0q-0.390625 0 -0.828125 0.03125q-0.421875 0.03125 -0.71875 0.046875q-0.296875 0.03125 -0.296875 0.03125l0.09375 -0.765625q0.546875 -0.09375 0.765625 -0.328125q0.21875 -0.25 0.21875 -0.765625l0 -4.5625q0 -0.625 -0.203125 -0.875q-0.203125 -0.25 -0.703125 -0.25l-0.203125 0l-0.0625 -0.078125l0.0625 -0.625q0.640625 -0.109375 1.234375 -0.21875q0.609375 -0.125 0.984375 -0.21875q0.390625 -0.09375 0.390625 -0.09375l0.109375 0.140625q0 0 -0.09375 0.375q-0.078125 0.375 -0.109375 0.859375l0.03125 0.0625q0.171875 -0.109375 0.53125 -0.34375q0.359375 -0.234375 0.78125 -0.46875q0.421875 -0.25 0.8125 -0.421875q0.390625 -0.1875 0.625 -0.1875q1.171875 0 1.859375 0.65625q0.6875 0.65625 0.6875 1.75q0 0.25 -0.046875 0.8125q-0.03125 0.546875 -0.09375 1.25q-0.046875 0.6875 -0.09375 1.328125q-0.03125 0.625 -0.03125 1.03125q0 0.546875 0.15625 0.796875q0.15625 0.25 0.5 0.25q0.171875 0 0.40625 -0.015625q0.25 -0.03125 0.25 -0.03125l0.03125 0.078125l-0.140625 0.8125q0 0 -0.15625 -0.015625q-0.15625 -0.015625 -0.421875 -0.03125q-0.25 0 -0.546875 -0.015625q-0.28125 0 -0.53125 0q-0.296875 0 -0.625 0.03125q-0.328125 0.046875 -0.625 0.078125q-0.296875 0.046875 -0.484375 0.078125q-0.1875 0.03125 -0.1875 0.03125l0.0625 -0.765625zm7.9736404 0.765625q-1.265625 0 -1.7968826 -0.5q-0.515625 -0.515625 -0.515625 -1.75l0 -4.59375q0 -0.5 -0.234375 -0.703125q-0.21875 -0.203125 -0.828125 -0.234375l-0.078125 -0.109375l0.09375 -0.5625q0.453125 -0.21875 0.859375 -0.5q0.421875 -0.296875 0.75 -0.5625q0.32813263 -0.28125 0.5156326 -0.453125q0.1875 -0.171875 0.1875 -0.171875l0.375 0.140625q0 0 -0.046875 0.359375q-0.046875 0.359375 -0.109375 1.046875l2.75 -0.0625l0.0625 0.0625l-0.171875 0.984375l-2.703125 -0.046875q-0.0625 0.875 -0.109375 2.046875q-0.03125 1.171875 -0.03125 2.609375q0 0.953125 0.328125 1.34375q0.328125 0.390625 1.125 0.390625q0.46875 0 0.875 -0.15625q0.40625 -0.171875 0.40625 -0.171875l0.1875 0.484375q0 0 -0.234375 0.171875q-0.21875 0.15625 -0.546875 0.390625q-0.328125 0.21875 -0.640625 0.375q-0.296875 0.171875 -0.46875 0.171875zm3.5940704 -1.53125l-0.15625 -0.09375l-0.140625 -0.921875q0 0 0.34375 -0.125q0.34375 -0.125 0.890625 -0.3125q0.5625 -0.203125 1.1875 -0.4375q0.625 -0.25 1.203125 -0.484375l2.875 -1.125l0 -0.109375l-3.140625 -1.3125q-0.765625 -0.328125 -1.546875 -0.671875q-0.78125 -0.34375 -1.3125 -0.5625q-0.515625 -0.234375 -0.515625 -0.234375l-0.015625 -0.203125l0.5625 -0.75q0 0 0.328125 0.15625q0.328125 0.140625 0.84375 0.390625q0.515625 0.234375 1.125 0.515625q0.625 0.28125 1.203125 0.515625q0.5 0.234375 1.140625 0.5q0.640625 0.265625 1.21875 0.515625q0.59375 0.234375 0.96875 0.40625q0.375 0.15625 0.375 0.15625l0.140625 0.203125l-0.03125 0.875l-3.796875 1.609375q-0.625 0.28125 -1.296875 0.546875q-0.65625 0.25 -1.203125 0.484375q-0.546875 0.21875 -0.90625 0.34375q-0.34375 0.125 -0.34375 0.125z" fill-rule="nonzero"/><path fill="#000000" fill-opacity="0.0" d="m106.40682 168.74278l168.12598 0l0 42.015747l-168.12598 0z" fill-rule="evenodd"/><path fill="#000000" d="m180.47731 195.88153l0.0625 -0.765625q0.5625 -0.140625 0.796875 -0.421875q0.25 -0.296875 0.25 -0.78125l0 -4.75q0 -0.515625 -0.171875 -0.75q-0.15625 -0.25 -0.515625 -0.25q-0.15625 0 -0.3125 0.046875q-0.15625 0.03125 -0.15625 0.03125l0.078125 -0.6875q0.46875 -0.078125 0.9375 -0.171875q0.484375 -0.09375 0.875 -0.171875q0.390625 -0.09375 0.625 -0.140625q0.25 -0.0625 0.25 -0.0625l0.09375 0.21875q-0.078125 0.1875 -0.171875 0.84375q-0.078125 0.640625 -0.140625 1.5625q-0.046875 0.921875 -0.09375 2.015625q-0.03125 1.09375 -0.03125 2.1875q0 0.546875 0.140625 0.796875q0.15625 0.25 0.515625 0.25q0.171875 0 0.40625 -0.015625q0.25 -0.03125 0.25 -0.03125l0.03125 0.078125l-0.140625 0.8125q0 0 -0.171875 -0.015625q-0.15625 -0.015625 -0.40625 -0.03125q-0.25 0 -0.546875 -0.015625q-0.28125 0 -0.53125 0q-0.40625 0 -0.859375 0.046875q-0.4375 0.0625 -0.75 0.109375q-0.3125 0.0625 -0.3125 0.0625zm1.640625 -11.078125q-0.46875 0 -0.703125 -0.296875q-0.21875 -0.296875 -0.21875 -0.65625q0 -0.4375 0.3125 -0.765625q0.328125 -0.328125 0.796875 -0.328125q0.4375 0 0.671875 0.296875q0.234375 0.28125 0.234375 0.65625q0 0.4375 -0.3125 0.765625q-0.296875 0.328125 -0.78125 0.328125zm8.886063 10.3125q0.5625 -0.140625 0.796875 -0.421875q0.25 -0.296875 0.25 -0.78125l0.078125 -3.703125q0 -0.921875 -0.40625 -1.421875q-0.390625 -0.515625 -1.140625 -0.515625q-0.453125 0 -0.921875 0.1875q-0.453125 0.1875 -0.828125 0.421875q-0.359375 0.21875 -0.546875 0.359375q-0.015625 0.484375 -0.046875 1.15625q-0.03125 0.65625 -0.0625 1.34375q-0.015625 0.6875 -0.046875 1.25q-0.015625 0.5625 -0.015625 0.84375q0 0.578125 0.15625 0.8125q0.171875 0.234375 0.515625 0.234375q0.171875 0 0.40625 -0.015625q0.25 -0.03125 0.25 -0.03125l0.046875 0.078125l-0.171875 0.8125q0 0 -0.28125 -0.03125q-0.28125 -0.015625 -0.671875 -0.03125q-0.390625 0 -0.75 0q-0.390625 0 -0.828125 0.03125q-0.421875 0.03125 -0.71875 0.046875q-0.296875 0.03125 -0.296875 0.03125l0.09375 -0.765625q0.546875 -0.09375 0.765625 -0.328125q0.21875 -0.25 0.21875 -0.765625l0 -4.5625q0 -0.625 -0.203125 -0.875q-0.203125 -0.25 -0.703125 -0.25l-0.203125 0l-0.0625 -0.078125l0.0625 -0.625q0.640625 -0.109375 1.234375 -0.21875q0.609375 -0.125 0.984375 -0.21875q0.390625 -0.09375 0.390625 -0.09375l0.109375 0.140625q0 0 -0.09375 0.375q-0.078125 0.375 -0.109375 0.859375l0.03125 0.0625q0.171875 -0.109375 0.53125 -0.34375q0.359375 -0.234375 0.78125 -0.46875q0.421875 -0.25 0.8125 -0.421875q0.390625 -0.1875 0.625 -0.1875q1.171875 0 1.859375 0.65625q0.6875 0.65625 0.6875 1.75q0 0.25 -0.046875 0.8125q-0.03125 0.546875 -0.09375 1.25q-0.046875 0.6875 -0.09375 1.328125q-0.03125 0.625 -0.03125 1.03125q0 0.546875 0.15625 0.796875q0.15625 0.25 0.5 0.25q0.171875 0 0.40625 -0.015625q0.25 -0.03125 0.25 -0.03125l0.03125 0.078125l-0.140625 0.8125q0 0 -0.15625 -0.015625q-0.15625 -0.015625 -0.421875 -0.03125q-0.25 0 -0.546875 -0.015625q-0.28125 0 -0.53125 0q-0.296875 0 -0.625 0.03125q-0.328125 0.046875 -0.625 0.078125q-0.296875 0.046875 -0.484375 0.078125q-0.1875 0.03125 -0.1875 0.03125l0.0625 -0.765625zm7.973633 0.765625q-1.265625 0 -1.796875 -0.5q-0.515625 -0.515625 -0.515625 -1.75l0 -4.59375q0 -0.5 -0.234375 -0.703125q-0.21875 -0.203125 -0.828125 -0.234375l-0.078125 -0.109375l0.09375 -0.5625q0.453125 -0.21875 0.859375 -0.5q0.421875 -0.296875 0.75 -0.5625q0.328125 -0.28125 0.515625 -0.453125q0.1875 -0.171875 0.1875 -0.171875l0.375 0.140625q0 0 -0.046875 0.359375q-0.046875 0.359375 -0.109375 1.046875l2.75 -0.0625l0.0625 0.0625l-0.171875 0.984375l-2.703125 -0.046875q-0.0625 0.875 -0.109375 2.046875q-0.03125 1.171875 -0.03125 2.609375q0 0.953125 0.328125 1.34375q0.328125 0.390625 1.125 0.390625q0.46875 0 0.875 -0.15625q0.40625 -0.171875 0.40625 -0.171875l0.1875 0.484375q0 0 -0.234375 0.171875q-0.21875 0.15625 -0.546875 0.390625q-0.328125 0.21875 -0.640625 0.375q-0.296875 0.171875 -0.46875 0.171875z" fill-rule="nonzero"/><path fill="#000000" fill-opacity="0.0" d="m202.40683 168.74278l168.12598 0l0 42.015747l-168.12598 0z" fill-rule="evenodd"/><path fill="#000000" d="m276.47733 195.88153l0.0625 -0.765625q0.5625 -0.140625 0.796875 -0.421875q0.25 -0.296875 0.25 -0.78125l0 -4.75q0 -0.515625 -0.171875 -0.75q-0.15625 -0.25 -0.515625 -0.25q-0.15625 0 -0.3125 0.046875q-0.15625 0.03125 -0.15625 0.03125l0.078125 -0.6875q0.46875 -0.078125 0.9375 -0.171875q0.484375 -0.09375 0.875 -0.171875q0.390625 -0.09375 0.625 -0.140625q0.25 -0.0625 0.25 -0.0625l0.09375 0.21875q-0.078125 0.1875 -0.171875 0.84375q-0.078125 0.640625 -0.140625 1.5625q-0.046875 0.921875 -0.09375 2.015625q-0.03125 1.09375 -0.03125 2.1875q0 0.546875 0.140625 0.796875q0.15625 0.25 0.515625 0.25q0.171875 0 0.40625 -0.015625q0.25 -0.03125 0.25 -0.03125l0.03125 0.078125l-0.140625 0.8125q0 0 -0.171875 -0.015625q-0.15625 -0.015625 -0.40625 -0.03125q-0.25 0 -0.546875 -0.015625q-0.28125 0 -0.53125 0q-0.40625 0 -0.859375 0.046875q-0.4375 0.0625 -0.75 0.109375q-0.3125 0.0625 -0.3125 0.0625zm1.640625 -11.078125q-0.46875 0 -0.703125 -0.296875q-0.21875 -0.296875 -0.21875 -0.65625q0 -0.4375 0.3125 -0.765625q0.328125 -0.328125 0.796875 -0.328125q0.4375 0 0.671875 0.296875q0.234375 0.28125 0.234375 0.65625q0 0.4375 -0.3125 0.765625q-0.296875 0.328125 -0.78125 0.328125zm8.886047 10.3125q0.5625 -0.140625 0.796875 -0.421875q0.25 -0.296875 0.25 -0.78125l0.078125 -3.703125q0 -0.921875 -0.40625 -1.421875q-0.390625 -0.515625 -1.140625 -0.515625q-0.453125 0 -0.921875 0.1875q-0.453125 0.1875 -0.828125 0.421875q-0.359375 0.21875 -0.546875 0.359375q-0.015625 0.484375 -0.046875 1.15625q-0.03125 0.65625 -0.0625 1.34375q-0.015625 0.6875 -0.046875 1.25q-0.015625 0.5625 -0.015625 0.84375q0 0.578125 0.15625 0.8125q0.171875 0.234375 0.515625 0.234375q0.171875 0 0.40625 -0.015625q0.25 -0.03125 0.25 -0.03125l0.046875 0.078125l-0.171875 0.8125q0 0 -0.28125 -0.03125q-0.28125 -0.015625 -0.671875 -0.03125q-0.390625 0 -0.75 0q-0.390625 0 -0.828125 0.03125q-0.421875 0.03125 -0.71875 0.046875q-0.296875 0.03125 -0.296875 0.03125l0.09375 -0.765625q0.546875 -0.09375 0.765625 -0.328125q0.21875 -0.25 0.21875 -0.765625l0 -4.5625q0 -0.625 -0.203125 -0.875q-0.203125 -0.25 -0.703125 -0.25l-0.203125 0l-0.0625 -0.078125l0.0625 -0.625q0.640625 -0.109375 1.234375 -0.21875q0.609375 -0.125 0.984375 -0.21875q0.390625 -0.09375 0.390625 -0.09375l0.109375 0.140625q0 0 -0.09375 0.375q-0.078125 0.375 -0.109375 0.859375l0.03125 0.0625q0.171875 -0.109375 0.53125 -0.34375q0.359375 -0.234375 0.78125 -0.46875q0.421875 -0.25 0.8125 -0.421875q0.390625 -0.1875 0.625 -0.1875q1.171875 0 1.859375 0.65625q0.6875 0.65625 0.6875 1.75q0 0.25 -0.046875 0.8125q-0.03125 0.546875 -0.09375 1.25q-0.046875 0.6875 -0.09375 1.328125q-0.03125 0.625 -0.03125 1.03125q0 0.546875 0.15625 0.796875q0.15625 0.25 0.5 0.25q0.171875 0 0.40625 -0.015625q0.25 -0.03125 0.25 -0.03125l0.03125 0.078125l-0.140625 0.8125q0 0 -0.15625 -0.015625q-0.15625 -0.015625 -0.421875 -0.03125q-0.25 0 -0.546875 -0.015625q-0.28125 0 -0.53125 0q-0.296875 0 -0.625 0.03125q-0.328125 0.046875 -0.625 0.078125q-0.296875 0.046875 -0.484375 0.078125q-0.1875 0.03125 -0.1875 0.03125l0.0625 -0.765625zm7.973633 0.765625q-1.265625 0 -1.796875 -0.5q-0.515625 -0.515625 -0.515625 -1.75l0 -4.59375q0 -0.5 -0.234375 -0.703125q-0.21875 -0.203125 -0.828125 -0.234375l-0.078125 -0.109375l0.09375 -0.5625q0.453125 -0.21875 0.859375 -0.5q0.421875 -0.296875 0.75 -0.5625q0.328125 -0.28125 0.515625 -0.453125q0.1875 -0.171875 0.1875 -0.171875l0.375 0.140625q0 0 -0.046875 0.359375q-0.046875 0.359375 -0.109375 1.046875l2.75 -0.0625l0.0625 0.0625l-0.171875 0.984375l-2.703125 -0.046875q-0.0625 0.875 -0.109375 2.046875q-0.03125 1.171875 -0.03125 2.609375q0 0.953125 0.328125 1.34375q0.328125 0.390625 1.125 0.390625q0.46875 0 0.875 -0.15625q0.40625 -0.171875 0.40625 -0.171875l0.1875 0.484375q0 0 -0.234375 0.171875q-0.21875 0.15625 -0.546875 0.390625q-0.328125 0.21875 -0.640625 0.375q-0.296875 0.171875 -0.46875 0.171875z" fill-rule="nonzero"/><path fill="#000000" fill-opacity="0.0" d="m10.406824 248.74278l168.12598 0l0 42.015762l-168.12598 0z" fill-rule="evenodd"/><path fill="#000000" d="m65.49701 275.88153q-0.75 0 -1.3125 -0.125q-0.5468712 -0.125 -0.8593712 -0.25q-0.3125 -0.125 -0.3125 -0.125l-0.109375 -0.1875q0.03125 -0.265625 0.078125 -0.703125q0.046875 -0.453125 0.09375 -0.921875q0.046875 -0.484375 0.078125 -0.828125l1.0156212 -0.09375q0.015625 0.9375 0.421875 1.40625q0.421875 0.46875 1.234375 0.46875q0.546875 0 0.890625 -0.234375q0.359375 -0.234375 0.359375 -0.578125q0 -0.265625 -0.15625 -0.46875q-0.15625 -0.203125 -0.5625 -0.453125q-0.390625 -0.265625 -1.140625 -0.609375q-1.125 -0.53125 -1.6249962 -1.109375q-0.5 -0.59375 -0.5 -1.375q0 -0.859375 0.484375 -1.484375q0.4843712 -0.640625 1.3593712 -1.0q0.875 -0.375 2.0 -0.375q0.90625 0 1.5 0.171875q0.59375 0.171875 0.59375 0.171875l0.09375 0.1875q0 0 -0.078125 0.34375q-0.0625 0.34375 -0.140625 0.890625q-0.078125 0.546875 -0.140625 1.171875l-1.046875 0.0625q0 0 0 -0.125q0.015625 -0.125 0.015625 -0.203125q0 -0.65625 -0.3125 -0.953125q-0.3125 -0.3125 -0.984375 -0.3125q-0.515625 0 -0.84375 0.234375q-0.3125 0.234375 -0.3125 0.578125q0 0.359375 0.296875 0.65625q0.3125 0.296875 0.984375 0.640625q1.078125 0.5 1.671875 0.921875q0.609375 0.421875 0.84375 0.859375q0.234375 0.421875 0.234375 0.96875q0 0.765625 -0.515625 1.421875q-0.5 0.640625 -1.375 1.0q-0.859375 0.359375 -1.921875 0.359375zm5.8461304 -6.5q0 -0.46875 -0.15625 -0.6875q-0.15625 -0.234375 -0.484375 -0.234375q-0.171875 0 -0.328125 0.03125q-0.140625 0.03125 -0.140625 0.03125l0.109375 -1.09375q0.578125 -0.0625 1.171875 -0.15625q0.59375 -0.109375 1.09375 -0.21875q0.5 -0.109375 0.796875 -0.15625q0.3125 -0.0625 0.3125 -0.0625l0.171875 0.296875q-0.109375 0.25 -0.203125 0.796875q-0.078125 0.53125 -0.15625 1.265625q-0.0625 0.734375 -0.109375 1.578125q-0.03125 0.828125 -0.03125 1.65625q0 1.515625 1.171875 1.515625q0.4375 0 0.84375 -0.234375q0.421875 -0.234375 0.78125 -0.46875l0 -3.84375q0 -0.546875 -0.15625 -0.71875q-0.15625 -0.171875 -0.640625 -0.203125q-0.078125 0 -0.203125 0.015625q-0.125 0.015625 -0.140625 0.015625l0.15625 -1.078125q0.609375 -0.0625 1.21875 -0.15625q0.609375 -0.109375 1.109375 -0.1875q0.5 -0.09375 0.8125 -0.140625q0.328125 -0.0625 0.328125 -0.0625l0.171875 0.296875q-0.140625 0.28125 -0.25 1.1875q-0.109375 0.890625 -0.1875 2.171875q-0.078125 1.265625 -0.078125 2.6875q0 0.34375 0.171875 0.5625q0.1875 0.203125 0.5 0.203125q0.234375 0 0.4375 -0.078125q0.203125 -0.09375 0.328125 -0.171875q0.140625 -0.078125 0.140625 -0.078125l0.28125 0.375q0 0 -0.171875 0.25q-0.171875 0.25 -0.46875 0.609375q-0.28125 0.34375 -0.625 0.640625q-0.328125 0.28125 -0.65625 0.34375q-1.71875 0 -1.90625 -1.4375l-0.15625 -0.0625q-0.71875 0.671875 -1.296875 1.078125q-0.5625 0.40625 -0.796875 0.40625q-1.40625 0 -2.15625 -0.59375q-0.75 -0.59375 -0.75 -1.734375l0.140625 -4.15625zm13.170685 6.46875q-0.734375 0 -1.40625 -0.078125q-0.671875 -0.078125 -1.109375 -0.140625q-0.421875 -0.0625 -0.421875 -0.0625l-0.1875 -0.203125l0 -10.859375q0 -0.59375 -0.171875 -0.828125q-0.15625 -0.234375 -0.609375 -0.234375q-0.125 0 -0.25 0.015625q-0.125 0.015625 -0.171875 0.015625l-0.078125 -0.09375l0.109375 -0.96875q0.640625 -0.078125 1.296875 -0.171875q0.65625 -0.109375 1.21875 -0.203125q0.5625 -0.109375 0.90625 -0.15625q0.34375 -0.0625 0.34375 -0.0625l0.140625 0.359375q-0.09375 0.125 -0.203125 0.890625q-0.109375 0.75 -0.171875 2.03125q-0.0625 1.265625 -0.125 2.984375q0.75 -0.53125 1.3125 -0.859375q0.5625 -0.34375 0.734375 -0.34375q1.078125 0 1.875 0.5q0.8125 0.5 1.234375 1.421875q0.421875 0.90625 0.421875 2.1875q0 1.40625 -0.59375 2.515625q-0.59375 1.09375 -1.65625 1.71875q-1.0625 0.625 -2.4375 0.625zm0.421875 -1.515625q0.890625 0 1.390625 -0.671875q0.515625 -0.6875 0.515625 -1.953125q0 -0.9375 -0.234375 -1.625q-0.234375 -0.6875 -0.65625 -1.0625q-0.40625 -0.390625 -0.953125 -0.390625q-0.34375 0 -0.734375 0.203125q-0.390625 0.1875 -0.671875 0.421875l-0.046875 4.78125q0.171875 0.09375 0.578125 0.203125q0.40625 0.09375 0.8125 0.09375zm8.601913 1.546875q-1.328125 0 -1.953125 -0.546875q-0.609375 -0.5625 -0.609375 -1.75l0 -4.15625q0 -0.578125 -0.203125 -0.78125q-0.203125 -0.203125 -0.796875 -0.21875l-0.1875 -0.140625l0.125 -0.90625q0.609375 -0.28125 1.15625 -0.625q0.5625 -0.34375 1.0 -0.65625q0.4375 -0.3125 0.703125 -0.5q0.265625 -0.203125 0.265625 -0.203125l0.515625 0.265625q0 0 -0.0625 0.421875q-0.0625 0.421875 -0.140625 1.1875l2.203125 -0.0625l0.078125 0.09375l-0.1875 1.25l-2.203125 -0.046875q-0.0625 0.796875 -0.09375 1.8125q-0.015625 1.015625 -0.015625 2.25q0 0.796875 0.28125 1.15625q0.28125 0.359375 0.90625 0.359375q0.40625 0 0.765625 -0.125q0.359375 -0.140625 0.359375 -0.140625l0.234375 0.59375q0 0 -0.25 0.234375q-0.25 0.21875 -0.625 0.515625q-0.359375 0.28125 -0.71875 0.5q-0.34375 0.21875 -0.546875 0.21875zm3.1782532 -1.28125q0.546875 -0.03125 0.734375 -0.296875q0.203125 -0.265625 0.203125 -0.984375l0 -3.71875q0 -0.640625 -0.171875 -0.859375q-0.15625 -0.234375 -0.625 -0.234375q-0.109375 0 -0.234375 0.015625q-0.125 0 -0.125 0l-0.09375 -0.140625l0.125 -0.921875q0.796875 -0.140625 1.5625 -0.28125q0.765625 -0.15625 1.28125 -0.25q0.515625 -0.109375 0.515625 -0.109375l0.15625 0.171875q0 0 -0.046875 0.265625q-0.046875 0.265625 -0.078125 0.671875q-0.03125 0.40625 -0.0625 0.8125l0.109375 0.078125q0.609375 -0.875 1.296875 -1.359375q0.6875 -0.484375 1.328125 -0.484375q0.296875 0 0.46875 0.03125q0.171875 0.015625 0.171875 0.015625l0.078125 0.15625q0 0 -0.046875 0.3125q-0.046875 0.296875 -0.109375 0.8125q-0.0625 0.5 -0.125 1.09375q-0.0625 0.59375 -0.09375 1.15625l-1.1875 0.078125q0 -0.90625 -0.109375 -1.1875q-0.09375 -0.296875 -0.421875 -0.296875q-0.296875 0 -0.640625 0.234375q-0.328125 0.21875 -0.625 0.609375q0 0 -0.015625 0.328125q-0.015625 0.328125 -0.046875 0.828125q-0.03125 0.5 -0.046875 1.03125q-0.015625 0.515625 -0.03125 0.90625q-0.015625 0.390625 -0.015625 0.5q0 0.5 0.15625 0.6875q0.15625 0.171875 0.5625 0.171875q0.265625 0 0.59375 -0.015625q0.34375 -0.03125 0.34375 -0.03125l0.046875 0.109375l-0.203125 1.234375q0 0 -0.25 -0.03125q-0.234375 -0.015625 -0.625 -0.03125q-0.375 0 -0.78125 -0.015625q-0.40625 0 -0.75 0q-0.5625 0 -1.109375 0.015625q-0.53125 0.015625 -0.875 0.03125q-0.34375 0.03125 -0.34375 0.03125l0.15625 -1.140625zm13.777939 1.28125q-0.8125 0 -1.296875 -0.359375q-0.46875 -0.375 -0.5625 -1.078125l-0.15625 -0.046875q-0.359375 0.375 -0.75 0.703125q-0.390625 0.3125 -0.734375 0.515625q-0.328125 0.203125 -0.5625 0.203125q-0.734375 0 -1.3125 -0.359375q-0.578125 -0.359375 -0.921875 -0.96875q-0.328125 -0.625 -0.328125 -1.390625q0 -0.578125 0.3125 -0.984375q0.3125 -0.421875 0.765625 -0.5625l3.609375 -0.828125l0.015625 -0.453125q0 -0.796875 -0.421875 -1.25q-0.421875 -0.453125 -1.1875 -0.453125q-0.515625 0 -1.109375 0.265625q-0.59375 0.25 -1.0625 0.609375l-0.171875 -0.0625l-0.3125 -1.125q0.53125 -0.3125 1.203125 -0.640625q0.671875 -0.328125 1.28125 -0.546875q0.609375 -0.234375 0.921875 -0.234375q1.078125 0 1.765625 0.34375q0.703125 0.328125 1.015625 0.90625q0.3125 0.5625 0.3125 1.296875q0 0.234375 -0.0625 0.75q-0.046875 0.5 -0.125 1.09375q-0.0625 0.59375 -0.125 1.140625q-0.046875 0.53125 -0.046875 0.859375q0 0.34375 0.171875 0.5625q0.171875 0.203125 0.5 0.203125q0.234375 0 0.484375 -0.109375q0.25 -0.125 0.40625 -0.21875l0.28125 0.390625q-0.1875 0.328125 -0.484375 0.734375q-0.296875 0.390625 -0.640625 0.703125q-0.328125 0.296875 -0.671875 0.390625zm-3.375 -1.84375q0.28125 0 0.65625 -0.15625q0.390625 -0.15625 0.6875 -0.390625l0.0625 -1.765625l-2.0 0.5625q-0.453125 0.125 -0.453125 0.609375q0 0.484375 0.28125 0.8125q0.296875 0.328125 0.765625 0.328125zm9.854721 1.84375q-1.265625 0 -2.203125 -0.515625q-0.921875 -0.53125 -1.421875 -1.484375q-0.484375 -0.96875 -0.484375 -2.28125q0 -1.40625 0.578125 -2.46875q0.578125 -1.0625 1.59375 -1.671875q1.03125 -0.625 2.359375 -0.625q0.71875 0 1.234375 0.09375q0.515625 0.09375 0.828125 0.1875q0.3125 0.09375 0.3125 0.09375l0.078125 0.171875q0 0 -0.09375 0.390625q-0.078125 0.390625 -0.171875 1.0625q-0.09375 0.65625 -0.15625 1.421875l-1.1875 0.078125l0 -0.625q0 -0.65625 -0.3125 -0.984375q-0.296875 -0.34375 -0.859375 -0.34375q-0.859375 0 -1.328125 0.640625q-0.46875 0.640625 -0.46875 1.84375q0 1.546875 0.53125 2.359375q0.546875 0.8125 1.546875 0.8125q0.515625 0 0.96875 -0.140625q0.46875 -0.140625 0.734375 -0.265625q0.28125 -0.140625 0.28125 -0.140625l0.140625 0.0625l0.296875 0.953125q0 0 -0.28125 0.203125q-0.265625 0.203125 -0.703125 0.484375q-0.4375 0.28125 -0.921875 0.484375q-0.484375 0.203125 -0.890625 0.203125zm7.290848 0q-1.328125 0 -1.953125 -0.546875q-0.609375 -0.5625 -0.609375 -1.75l0 -4.15625q0 -0.578125 -0.203125 -0.78125q-0.203125 -0.203125 -0.796875 -0.21875l-0.1875 -0.140625l0.125 -0.90625q0.609375 -0.28125 1.15625 -0.625q0.5625 -0.34375 1.0 -0.65625q0.4375 -0.3125 0.703125 -0.5q0.265625 -0.203125 0.265625 -0.203125l0.515625 0.265625q0 0 -0.0625 0.421875q-0.0625 0.421875 -0.140625 1.1875l2.203125 -0.0625l0.078125 0.09375l-0.1875 1.25l-2.203125 -0.046875q-0.0625 0.796875 -0.09375 1.8125q-0.015625 1.015625 -0.015625 2.25q0 0.796875 0.28125 1.15625q0.28125 0.359375 0.90625 0.359375q0.40625 0 0.765625 -0.125q0.359375 -0.140625 0.359375 -0.140625l0.234375 0.59375q0 0 -0.25 0.234375q-0.25 0.21875 -0.625 0.515625q-0.359375 0.28125 -0.71875 0.5q-0.34375 0.21875 -0.546875 0.21875z" fill-rule="nonzero"/><path fill="#000000" fill-opacity="0.0" d="m106.40682 248.74278l168.12598 0l0 42.015762l-168.12598 0z" fill-rule="evenodd"/><path fill="#000000" d="m188.1931 277.52216q-0.78125 0 -1.109375 -0.421875q-0.3125 -0.40625 -0.359375 -1.4375l0.21875 -0.265625q0.734375 0.25 1.609375 0.25q0.78125 0 1.40625 -0.234375q0.625 -0.234375 0.96875 -0.640625q0.359375 -0.421875 0.359375 -0.9375q0 -0.78125 -0.671875 -1.140625q-0.671875 -0.375 -2.109375 -0.390625l-0.15625 -0.171875l-0.140625 -1.109375l1.21875 -0.28125q0.625 -0.28125 1.015625 -0.765625q0.40625 -0.5 0.40625 -1.03125q0 -0.484375 -0.34375 -0.765625q-0.328125 -0.28125 -0.84375 -0.28125q-0.453125 0 -1.015625 0.265625q-0.546875 0.25 -1.015625 0.671875q-0.046875 0 -0.125 0q-0.0625 0 -0.109375 0l-0.359375 -1.28125q0.171875 -0.15625 0.546875 -0.390625q0.375 -0.234375 0.859375 -0.453125q0.5 -0.21875 1.015625 -0.390625q0.53125 -0.171875 1.015625 -0.171875q1.25 0 1.984375 0.59375q0.75 0.59375 0.75 1.59375q0 0.765625 -0.5625 1.453125q-0.546875 0.6875 -1.484375 1.09375l0 0.140625q1.265625 0.328125 1.921875 0.953125q0.65625 0.625 0.65625 1.5q0 0.734375 -0.484375 1.453125q-0.46875 0.71875 -1.28125 1.3125q-0.796875 0.59375 -1.78125 0.9375q-0.96875 0.34375 -2.0 0.34375z" fill-rule="nonzero"/><path fill="#000000" fill-opacity="0.0" d="m202.40683 248.74278l168.12598 0l0 42.015762l-168.12598 0z" fill-rule="evenodd"/><path fill="#000000" d="m282.2612 275.2409l1.40625 -1.5625q1.0 -1.171875 1.609375 -2.0q0.625 -0.828125 0.890625 -1.40625q0.28125 -0.578125 0.28125 -1.03125q0 -0.5625 -0.3125 -0.859375q-0.3125 -0.296875 -0.875 -0.296875q-0.546875 0 -1.109375 0.390625q-0.5625 0.375 -1.0 1.046875l-0.234375 0l-0.3125 -1.328125q0.453125 -0.625 1.046875 -1.078125q0.59375 -0.46875 1.234375 -0.71875q0.65625 -0.25 1.3125 -0.25q1.3125 0 2.09375 0.671875q0.796875 0.65625 0.796875 1.734375q0 0.578125 -0.3125 1.234375q-0.296875 0.65625 -1.0625 1.59375q-0.75 0.9375 -2.125 2.4375l0.0625 0.140625l1.859375 0q0.59375 0 0.9375 -0.140625q0.34375 -0.15625 0.53125 -0.515625q0.203125 -0.359375 0.328125 -1.03125l1.390625 -0.140625q0 0 -0.078125 0.328125q-0.0625 0.328125 -0.140625 0.859375q-0.078125 0.515625 -0.171875 1.140625q-0.078125 0.609375 -0.140625 1.140625l-0.25 0.234375q0 0 -0.484375 -0.015625q-0.46875 0 -1.234375 -0.046875q-0.765625 -0.03125 -1.640625 -0.0625q-0.859375 -0.03125 -1.65625 -0.046875q-0.796875 0 -1.3125 0l-1.203125 0.171875l-0.125 -0.59375z" fill-rule="nonzero"/><path fill="#000000" fill-opacity="0.0" d="m190.46982 50.75853l0 37.984253" fill-rule="evenodd"/><path stroke="#000000" stroke-width="1.0" stroke-linejoin="round" stroke-linecap="butt" d="m190.46982 50.75853l0 31.984253" fill-rule="evenodd"/><path fill="#000000" stroke="#000000" stroke-width="1.0" stroke-linecap="butt" d="m188.81808 82.74278l1.6517334 4.5380936l1.6517334 -4.5380936z" fill-rule="evenodd"/><path fill="#000000" fill-opacity="0.0" d="m190.46982 130.75853l-96.0 37.984253" fill-rule="evenodd"/><path stroke="#000000" stroke-width="1.0" stroke-linejoin="round" stroke-linecap="butt" d="m190.46982 130.75853l-90.42085 35.77675" fill-rule="evenodd"/><path fill="#000000" stroke="#000000" stroke-width="1.0" stroke-linecap="butt" d="m99.44127 164.9994l-3.612091 3.2055206l4.8274918 -0.13375854z" fill-rule="evenodd"/><path fill="#000000" fill-opacity="0.0" d="m190.46982 130.75853l0 37.984253" fill-rule="evenodd"/><path stroke="#000000" stroke-width="1.0" stroke-linejoin="round" stroke-linecap="butt" d="m190.46982 130.75853l0 31.984253" fill-rule="evenodd"/><path fill="#000000" stroke="#000000" stroke-width="1.0" stroke-linecap="butt" d="m188.81808 162.74278l1.6517334 4.538101l1.6517334 -4.538101z" fill-rule="evenodd"/><path fill="#000000" fill-opacity="0.0" d="m190.46982 130.75853l96.0 37.984253" fill-rule="evenodd"/><path stroke="#000000" stroke-width="1.0" stroke-linejoin="round" stroke-linecap="butt" d="m190.46982 130.75853l90.42084 35.77675" fill-rule="evenodd"/><path fill="#000000" stroke="#000000" stroke-width="1.0" stroke-linecap="butt" d="m280.28296 168.07117l4.827484 0.13375854l-3.612091 -3.2055206z" fill-rule="evenodd"/><path fill="#000000" fill-opacity="0.0" d="m94.46982 210.75853l0 37.984253" fill-rule="evenodd"/><path stroke="#000000" stroke-width="1.0" stroke-linejoin="round" stroke-linecap="butt" d="m94.46982 210.75853l0 31.984253" fill-rule="evenodd"/><path fill="#000000" stroke="#000000" stroke-width="1.0" stroke-linecap="butt" d="m92.818085 242.74278l1.6517334 4.538101l1.6517334 -4.538101z" fill-rule="evenodd"/><path fill="#000000" fill-opacity="0.0" d="m190.46982 210.75853l0 37.984253" fill-rule="evenodd"/><path stroke="#000000" stroke-width="1.0" stroke-linejoin="round" stroke-linecap="butt" d="m190.46982 210.75853l0 31.984253" fill-rule="evenodd"/><path fill="#000000" stroke="#000000" stroke-width="1.0" stroke-linecap="butt" d="m188.81808 242.74278l1.6517334 4.538101l1.6517334 -4.538101z" fill-rule="evenodd"/><path fill="#000000" fill-opacity="0.0" d="m286.46982 210.75853l0 37.984253" fill-rule="evenodd"/><path stroke="#000000" stroke-width="1.0" stroke-linejoin="round" stroke-linecap="butt" d="m286.46982 210.75853l0 31.984253" fill-rule="evenodd"/><path fill="#000000" stroke="#000000" stroke-width="1.0" stroke-linecap="butt" d="m284.81808 242.74278l1.6517334 4.538101l1.6517334 -4.538101z" fill-rule="evenodd"/></g></svg>